<svg xmlns="http://www.w3.org/2000/svg" xmlns:xlink="http://www.w3.org/1999/xlink" width="2000" zoomAndPan="magnify" viewBox="0 0 1500 1499.999933" height="2000" preserveAspectRatio="xMidYMid meet" version="1.0"><defs><clipPath id="0db18c62a7"><path d="M 149.769531 167.601562 L 1350.519531 167.601562 L 1350.519531 1368.347656 L 149.769531 1368.347656 Z M 149.769531 167.601562 " clip-rule="nonzero"/></clipPath></defs><g clip-path="url(#0db18c62a7)"><path fill="#563d7c" d="M 149.769531 1213.519531 C 149.769531 1299.023438 219.089844 1368.347656 304.597656 1368.347656 L 1195.683594 1368.347656 C 1281.191406 1368.347656 1350.515625 1299.023438 1350.515625 1213.519531 L 1350.515625 322.429688 C 1350.515625 236.910156 1281.191406 167.601562 1195.683594 167.601562 L 304.597656 167.601562 C 219.074219 167.601562 149.765625 236.917969 149.765625 322.425781 L 149.765625 1213.515625 Z M 149.769531 1213.519531 " fill-opacity="1" fill-rule="nonzero"/></g><path fill="#ffffff" d="M 647.707031 698.742188 L 647.707031 528.691406 L 797.378906 528.691406 C 811.636719 528.691406 825.378906 529.878906 838.605469 532.253906 C 851.832031 534.628906 863.558594 538.871094 873.738281 544.980469 C 883.914062 551.09375 892.078125 559.578125 898.175781 570.4375 C 904.273438 581.300781 907.320312 595.214844 907.320312 612.1875 C 907.320312 642.738281 898.175781 664.785156 879.835938 678.386719 C 861.542969 691.941406 838.089844 698.742188 809.574219 698.742188 Z M 487.832031 404.464844 L 487.832031 1131.484375 L 840.152344 1131.484375 C 872.707031 1131.484375 904.460938 1127.402344 935.324219 1119.242188 C 966.234375 1111.125 993.71875 1098.554688 1017.828125 1081.578125 C 1041.9375 1064.597656 1061.074219 1042.738281 1075.332031 1015.910156 C 1089.589844 989.082031 1096.722656 957.375 1096.722656 920.695312 C 1096.722656 875.246094 1085.699219 836.359375 1063.652344 804.136719 C 1041.5625 771.867188 1008.164062 749.308594 963.324219 736.40625 C 995.921875 720.789062 1020.546875 700.761719 1037.152344 676.324219 C 1053.804688 651.886719 1062.105469 621.351562 1062.105469 584.691406 C 1062.105469 550.75 1056.523438 522.242188 1045.3125 499.160156 C 1034.105469 476.078125 1018.34375 457.585938 997.988281 443.667969 C 977.582031 429.753906 953.148438 419.738281 924.675781 413.632812 C 896.15625 407.519531 864.589844 404.464844 829.976562 404.464844 Z M 647.707031 1007.28125 L 647.707031 807.703125 L 821.816406 807.703125 C 856.429688 807.703125 884.246094 815.675781 905.304688 831.625 C 926.363281 847.570312 936.871094 874.210938 936.871094 911.546875 C 936.871094 930.546875 933.632812 946.164062 927.207031 958.40625 C 920.734375 970.601562 912.105469 980.261719 901.222656 987.394531 C 890.390625 994.523438 877.820312 999.636719 863.558594 1002.683594 C 849.300781 1005.734375 834.386719 1007.28125 818.765625 1007.28125 Z M 647.707031 1007.28125 " fill-opacity="1" fill-rule="nonzero"/></svg>