<svg xmlns="http://www.w3.org/2000/svg" xmlns:xlink="http://www.w3.org/1999/xlink" width="2000" zoomAndPan="magnify" viewBox="0 0 1500 1499.999933" height="2000" preserveAspectRatio="xMidYMid meet" version="1.0"><defs><clipPath id="ef849c471f"><path d="M 433 66 L 970 66 L 970 1452 L 433 1452 Z M 433 66 " clip-rule="nonzero"/></clipPath><clipPath id="85eb7f3d49"><path d="M 125.691406 900.785156 L 776.082031 47.996094 L 1498.863281 599.238281 L 848.472656 1452.027344 Z M 125.691406 900.785156 " clip-rule="nonzero"/></clipPath><clipPath id="509325d233"><path d="M 125.691406 900.785156 L 776.082031 47.996094 L 1498.863281 599.238281 L 848.472656 1452.027344 Z M 125.691406 900.785156 " clip-rule="nonzero"/></clipPath><clipPath id="7b5455ddf3"><path d="M 125.691406 900.785156 L 776.082031 47.996094 L 1498.863281 599.238281 L 848.472656 1452.027344 Z M 125.691406 900.785156 " clip-rule="nonzero"/></clipPath></defs><g clip-path="url(#ef849c471f)"><g clip-path="url(#85eb7f3d49)"><g clip-path="url(#509325d233)"><g clip-path="url(#7b5455ddf3)"><path fill="#27963c" d="M 649.921875 1076.167969 C 627.449219 953.296875 618.359375 730.976562 715.640625 464.414062 C 715.644531 464.40625 551.59375 1073.296875 848.453125 1451.972656 C 852.773438 1410.058594 842.152344 1367.996094 818.566406 1333.082031 C 757.105469 1242.117188 718.824219 1148.851562 748.152344 1056.066406 C 998.164062 867.894531 1028.082031 664.546875 880.117188 357.96875 C 786.417969 163.847656 800.898438 66.816406 800.898438 66.816406 C 682.316406 243.453125 659.871094 200.675781 552.570312 344.082031 C 265.351562 727.929688 579.679688 977.878906 649.921875 1076.167969 " fill-opacity="1" fill-rule="nonzero"/></g></g></g></g></svg>