<svg xmlns="http://www.w3.org/2000/svg" xmlns:xlink="http://www.w3.org/1999/xlink" width="2000" zoomAndPan="magnify" viewBox="0 0 1500 1499.999933" height="2000" preserveAspectRatio="xMidYMid meet" version="1.0"><defs><clipPath id="7ff19a0158"><path d="M 3 363 L 1497 363 L 1497 1137.476562 L 3 1137.476562 Z M 3 363 " clip-rule="nonzero"/></clipPath><clipPath id="849a53f4aa"><path d="M 3.894531 750.65625 C 3.894531 964.621094 338.117188 1138.082031 750.367188 1138.082031 C 1162.617188 1138.082031 1496.839844 964.621094 1496.839844 750.65625 C 1496.839844 536.695312 1162.617188 363.234375 750.367188 363.234375 C 338.117188 363.234375 3.894531 536.703125 3.894531 750.65625 " clip-rule="nonzero"/></clipPath><clipPath id="0020483d71"><path d="M 3.894531 750.65625 C 3.894531 964.621094 338.117188 1138.082031 750.367188 1138.082031 C 1162.617188 1138.082031 1496.839844 964.621094 1496.839844 750.65625 C 1496.839844 536.695312 1162.617188 363.234375 750.367188 363.234375 C 338.117188 363.234375 3.894531 536.703125 3.894531 750.65625 " clip-rule="nonzero"/></clipPath><radialGradient gradientTransform="matrix(1.006734, 0, 0, 0.993266, 452.080763, 499.435568)" gradientUnits="userSpaceOnUse" r="973.674607" cx="0" id="1aea19c50a" cy="0" fx="0" fy="0"><stop stop-opacity="1" stop-color="rgb(68.238831%, 69.799805%, 83.529663%)" offset="0"/><stop stop-opacity="1" stop-color="rgb(68.238831%, 69.799805%, 83.529663%)" offset="0.25"/><stop stop-opacity="1" stop-color="rgb(68.203735%, 69.764709%, 83.503723%)" offset="0.296875"/><stop stop-opacity="1" stop-color="rgb(67.996216%, 69.555664%, 83.348083%)" offset="0.300781"/><stop stop-opacity="1" stop-color="rgb(67.648315%, 69.20929%, 83.088684%)" offset="0.304688"/><stop stop-opacity="1" stop-color="rgb(67.301941%, 68.861389%, 82.830811%)" offset="0.308594"/><stop stop-opacity="1" stop-color="rgb(66.954041%, 68.513489%, 82.571411%)" offset="0.3125"/><stop stop-opacity="1" stop-color="rgb(66.607666%, 68.167114%, 82.313538%)" offset="0.316406"/><stop stop-opacity="1" stop-color="rgb(66.259766%, 67.819214%, 82.054138%)" offset="0.320312"/><stop stop-opacity="1" stop-color="rgb(65.911865%, 67.472839%, 81.796265%)" offset="0.324219"/><stop stop-opacity="1" stop-color="rgb(65.565491%, 67.124939%, 81.536865%)" offset="0.328125"/><stop stop-opacity="1" stop-color="rgb(65.21759%, 66.778564%, 81.278992%)" offset="0.332031"/><stop stop-opacity="1" stop-color="rgb(64.871216%, 66.430664%, 81.019592%)" offset="0.335938"/><stop stop-opacity="1" stop-color="rgb(64.523315%, 66.08429%, 80.761719%)" offset="0.339844"/><stop stop-opacity="1" stop-color="rgb(64.176941%, 65.736389%, 80.502319%)" offset="0.34375"/><stop stop-opacity="1" stop-color="rgb(63.829041%, 65.388489%, 80.24292%)" offset="0.347656"/><stop stop-opacity="1" stop-color="rgb(63.482666%, 65.042114%, 79.985046%)" offset="0.351562"/><stop stop-opacity="1" stop-color="rgb(63.134766%, 64.694214%, 79.725647%)" offset="0.355469"/><stop stop-opacity="1" stop-color="rgb(62.786865%, 64.347839%, 79.467773%)" offset="0.359375"/><stop stop-opacity="1" stop-color="rgb(62.440491%, 63.999939%, 79.208374%)" offset="0.363281"/><stop stop-opacity="1" stop-color="rgb(62.09259%, 63.653564%, 78.9505%)" offset="0.367188"/><stop stop-opacity="1" stop-color="rgb(61.746216%, 63.305664%, 78.691101%)" offset="0.371094"/><stop stop-opacity="1" stop-color="rgb(61.398315%, 62.95929%, 78.433228%)" offset="0.375"/><stop stop-opacity="1" stop-color="rgb(61.051941%, 62.611389%, 78.173828%)" offset="0.378906"/><stop stop-opacity="1" stop-color="rgb(60.704041%, 62.263489%, 77.915955%)" offset="0.382812"/><stop stop-opacity="1" stop-color="rgb(60.357666%, 61.917114%, 77.656555%)" offset="0.386719"/><stop stop-opacity="1" stop-color="rgb(60.009766%, 61.569214%, 77.398682%)" offset="0.390625"/><stop stop-opacity="1" stop-color="rgb(59.661865%, 61.222839%, 77.139282%)" offset="0.394531"/><stop stop-opacity="1" stop-color="rgb(59.315491%, 60.874939%, 76.881409%)" offset="0.398438"/><stop stop-opacity="1" stop-color="rgb(58.96759%, 60.528564%, 76.622009%)" offset="0.402344"/><stop stop-opacity="1" stop-color="rgb(58.621216%, 60.180664%, 76.364136%)" offset="0.40625"/><stop stop-opacity="1" stop-color="rgb(58.273315%, 59.83429%, 76.104736%)" offset="0.410156"/><stop stop-opacity="1" stop-color="rgb(57.926941%, 59.486389%, 75.845337%)" offset="0.414062"/><stop stop-opacity="1" stop-color="rgb(57.579041%, 59.138489%, 75.587463%)" offset="0.417969"/><stop stop-opacity="1" stop-color="rgb(57.232666%, 58.792114%, 75.328064%)" offset="0.421875"/><stop stop-opacity="1" stop-color="rgb(56.884766%, 58.444214%, 75.07019%)" offset="0.425781"/><stop stop-opacity="1" stop-color="rgb(56.536865%, 58.097839%, 74.810791%)" offset="0.429688"/><stop stop-opacity="1" stop-color="rgb(56.190491%, 57.749939%, 74.552917%)" offset="0.433594"/><stop stop-opacity="1" stop-color="rgb(55.84259%, 57.403564%, 74.293518%)" offset="0.4375"/><stop stop-opacity="1" stop-color="rgb(55.496216%, 57.055664%, 74.035645%)" offset="0.441406"/><stop stop-opacity="1" stop-color="rgb(55.148315%, 56.70929%, 73.776245%)" offset="0.445312"/><stop stop-opacity="1" stop-color="rgb(54.801941%, 56.361389%, 73.518372%)" offset="0.449219"/><stop stop-opacity="1" stop-color="rgb(54.454041%, 56.013489%, 73.258972%)" offset="0.453125"/><stop stop-opacity="1" stop-color="rgb(54.107666%, 55.667114%, 73.001099%)" offset="0.457031"/><stop stop-opacity="1" stop-color="rgb(53.759766%, 55.319214%, 72.741699%)" offset="0.460938"/><stop stop-opacity="1" stop-color="rgb(53.411865%, 54.972839%, 72.483826%)" offset="0.464844"/><stop stop-opacity="1" stop-color="rgb(53.065491%, 54.624939%, 72.224426%)" offset="0.46875"/><stop stop-opacity="1" stop-color="rgb(52.71759%, 54.278564%, 71.966553%)" offset="0.472656"/><stop stop-opacity="1" stop-color="rgb(52.371216%, 53.930664%, 71.707153%)" offset="0.476562"/><stop stop-opacity="1" stop-color="rgb(52.023315%, 53.58429%, 71.447754%)" offset="0.480469"/><stop stop-opacity="1" stop-color="rgb(51.676941%, 53.236389%, 71.18988%)" offset="0.484375"/><stop stop-opacity="1" stop-color="rgb(51.329041%, 52.888489%, 70.930481%)" offset="0.488281"/><stop stop-opacity="1" stop-color="rgb(50.982666%, 52.542114%, 70.672607%)" offset="0.492188"/><stop stop-opacity="1" stop-color="rgb(50.634766%, 52.194214%, 70.413208%)" offset="0.496094"/><stop stop-opacity="1" stop-color="rgb(50.286865%, 51.847839%, 70.155334%)" offset="0.5"/><stop stop-opacity="1" stop-color="rgb(49.940491%, 51.499939%, 69.895935%)" offset="0.503906"/><stop stop-opacity="1" stop-color="rgb(49.59259%, 51.153564%, 69.638062%)" offset="0.507812"/><stop stop-opacity="1" stop-color="rgb(49.246216%, 50.805664%, 69.378662%)" offset="0.511719"/><stop stop-opacity="1" stop-color="rgb(48.898315%, 50.45929%, 69.120789%)" offset="0.515625"/><stop stop-opacity="1" stop-color="rgb(48.551941%, 50.111389%, 68.861389%)" offset="0.519531"/><stop stop-opacity="1" stop-color="rgb(48.204041%, 49.763489%, 68.603516%)" offset="0.523438"/><stop stop-opacity="1" stop-color="rgb(47.857666%, 49.417114%, 68.344116%)" offset="0.527344"/><stop stop-opacity="1" stop-color="rgb(47.509766%, 49.069214%, 68.086243%)" offset="0.53125"/><stop stop-opacity="1" stop-color="rgb(47.161865%, 48.722839%, 67.826843%)" offset="0.535156"/><stop stop-opacity="1" stop-color="rgb(46.815491%, 48.374939%, 67.56897%)" offset="0.539062"/><stop stop-opacity="1" stop-color="rgb(46.46759%, 48.028564%, 67.30957%)" offset="0.542969"/><stop stop-opacity="1" stop-color="rgb(46.121216%, 47.680664%, 67.050171%)" offset="0.546875"/><stop stop-opacity="1" stop-color="rgb(45.773315%, 47.33429%, 66.792297%)" offset="0.550781"/><stop stop-opacity="1" stop-color="rgb(45.426941%, 46.986389%, 66.532898%)" offset="0.554688"/><stop stop-opacity="1" stop-color="rgb(45.079041%, 46.638489%, 66.275024%)" offset="0.558594"/><stop stop-opacity="1" stop-color="rgb(44.732666%, 46.292114%, 66.015625%)" offset="0.5625"/><stop stop-opacity="1" stop-color="rgb(44.384766%, 45.944214%, 65.757751%)" offset="0.566406"/><stop stop-opacity="1" stop-color="rgb(44.036865%, 45.597839%, 65.498352%)" offset="0.570312"/><stop stop-opacity="1" stop-color="rgb(43.690491%, 45.249939%, 65.240479%)" offset="0.574219"/><stop stop-opacity="1" stop-color="rgb(43.34259%, 44.903564%, 64.981079%)" offset="0.578125"/><stop stop-opacity="1" stop-color="rgb(42.996216%, 44.555664%, 64.723206%)" offset="0.582031"/><stop stop-opacity="1" stop-color="rgb(42.648315%, 44.20929%, 64.463806%)" offset="0.585938"/><stop stop-opacity="1" stop-color="rgb(42.301941%, 43.861389%, 64.205933%)" offset="0.589844"/><stop stop-opacity="1" stop-color="rgb(41.954041%, 43.513489%, 63.946533%)" offset="0.59375"/><stop stop-opacity="1" stop-color="rgb(41.607666%, 43.167114%, 63.68866%)" offset="0.597656"/><stop stop-opacity="1" stop-color="rgb(41.259766%, 42.819214%, 63.42926%)" offset="0.601562"/><stop stop-opacity="1" stop-color="rgb(40.911865%, 42.472839%, 63.171387%)" offset="0.605469"/><stop stop-opacity="1" stop-color="rgb(40.565491%, 42.124939%, 62.911987%)" offset="0.609375"/><stop stop-opacity="1" stop-color="rgb(40.21759%, 41.778564%, 62.654114%)" offset="0.613281"/><stop stop-opacity="1" stop-color="rgb(39.871216%, 41.430664%, 62.394714%)" offset="0.617188"/><stop stop-opacity="1" stop-color="rgb(39.523315%, 41.08429%, 62.135315%)" offset="0.621094"/><stop stop-opacity="1" stop-color="rgb(39.176941%, 40.736389%, 61.877441%)" offset="0.625"/><stop stop-opacity="1" stop-color="rgb(38.829041%, 40.388489%, 61.618042%)" offset="0.628906"/><stop stop-opacity="1" stop-color="rgb(38.482666%, 40.042114%, 61.360168%)" offset="0.632812"/><stop stop-opacity="1" stop-color="rgb(38.134766%, 39.694214%, 61.100769%)" offset="0.636719"/><stop stop-opacity="1" stop-color="rgb(37.786865%, 39.347839%, 60.842896%)" offset="0.640625"/><stop stop-opacity="1" stop-color="rgb(37.440491%, 38.999939%, 60.583496%)" offset="0.644531"/><stop stop-opacity="1" stop-color="rgb(37.09259%, 38.653564%, 60.325623%)" offset="0.648438"/><stop stop-opacity="1" stop-color="rgb(36.746216%, 38.305664%, 60.066223%)" offset="0.652344"/><stop stop-opacity="1" stop-color="rgb(36.398315%, 37.95929%, 59.80835%)" offset="0.65625"/><stop stop-opacity="1" stop-color="rgb(36.051941%, 37.611389%, 59.54895%)" offset="0.660156"/><stop stop-opacity="1" stop-color="rgb(35.704041%, 37.263489%, 59.291077%)" offset="0.664062"/><stop stop-opacity="1" stop-color="rgb(35.357666%, 36.917114%, 59.031677%)" offset="0.667969"/><stop stop-opacity="1" stop-color="rgb(35.009766%, 36.569214%, 58.773804%)" offset="0.671875"/><stop stop-opacity="1" stop-color="rgb(34.661865%, 36.222839%, 58.514404%)" offset="0.675781"/><stop stop-opacity="1" stop-color="rgb(34.315491%, 35.874939%, 58.256531%)" offset="0.679688"/><stop stop-opacity="1" stop-color="rgb(33.96759%, 35.528564%, 57.997131%)" offset="0.683594"/><stop stop-opacity="1" stop-color="rgb(33.621216%, 35.180664%, 57.737732%)" offset="0.6875"/><stop stop-opacity="1" stop-color="rgb(33.273315%, 34.83429%, 57.479858%)" offset="0.691406"/><stop stop-opacity="1" stop-color="rgb(32.926941%, 34.486389%, 57.220459%)" offset="0.695312"/><stop stop-opacity="1" stop-color="rgb(32.579041%, 34.138489%, 56.962585%)" offset="0.699219"/><stop stop-opacity="1" stop-color="rgb(32.232666%, 33.792114%, 56.703186%)" offset="0.703125"/><stop stop-opacity="1" stop-color="rgb(31.884766%, 33.444214%, 56.445312%)" offset="0.707031"/><stop stop-opacity="1" stop-color="rgb(31.536865%, 33.097839%, 56.185913%)" offset="0.710938"/><stop stop-opacity="1" stop-color="rgb(31.190491%, 32.749939%, 55.92804%)" offset="0.714844"/><stop stop-opacity="1" stop-color="rgb(30.84259%, 32.403564%, 55.66864%)" offset="0.71875"/><stop stop-opacity="1" stop-color="rgb(30.496216%, 32.055664%, 55.410767%)" offset="0.722656"/><stop stop-opacity="1" stop-color="rgb(30.148315%, 31.70929%, 55.151367%)" offset="0.726562"/><stop stop-opacity="1" stop-color="rgb(29.801941%, 31.361389%, 54.893494%)" offset="0.730469"/><stop stop-opacity="1" stop-color="rgb(29.454041%, 31.013489%, 54.634094%)" offset="0.734375"/><stop stop-opacity="1" stop-color="rgb(29.107666%, 30.667114%, 54.376221%)" offset="0.738281"/><stop stop-opacity="1" stop-color="rgb(28.759766%, 30.319214%, 54.116821%)" offset="0.742188"/><stop stop-opacity="1" stop-color="rgb(28.411865%, 29.972839%, 53.858948%)" offset="0.746094"/><stop stop-opacity="1" stop-color="rgb(28.239441%, 29.798889%, 53.729248%)" offset="1"/></radialGradient></defs><g clip-path="url(#7ff19a0158)"><g clip-path="url(#849a53f4aa)"><g clip-path="url(#0020483d71)"><path fill="url(#1aea19c50a)" d="M 3.894531 363.234375 L 3.894531 1137.476562 L 1496.839844 1137.476562 L 1496.839844 363.234375 Z M 3.894531 363.234375 " fill-rule="nonzero"/></g></g></g><path fill="#777bb3" d="M 750.367188 1109.3125 C 1146.527344 1109.3125 1467.679688 948.738281 1467.679688 750.65625 C 1467.679688 552.578125 1146.527344 392.003906 750.367188 392.003906 C 354.207031 392.003906 33.054688 552.578125 33.054688 750.65625 C 33.054688 948.738281 354.207031 1109.3125 750.367188 1109.3125 " fill-opacity="1" fill-rule="nonzero"/><path fill="#000000" d="M 409.449219 795.117188 C 442.023438 795.117188 466.339844 789.191406 481.726562 777.507812 C 496.949219 765.949219 507.460938 745.910156 512.972656 717.964844 C 518.109375 691.84375 516.152344 673.605469 507.15625 663.761719 C 497.957031 653.710938 478.070312 648.609375 448.046875 648.609375 L 395.992188 648.609375 L 367.128906 795.121094 L 409.445312 795.121094 Z M 239.191406 975.597656 C 236.777344 975.597656 234.480469 974.53125 232.945312 972.6875 C 232.175781 971.769531 231.640625 970.730469 231.34375 969.574219 C 231.046875 968.417969 231.011719 967.253906 231.242188 966.082031 L 307.726562 577.832031 C 307.816406 577.382812 307.945312 576.941406 308.109375 576.511719 C 308.277344 576.082031 308.480469 575.667969 308.71875 575.273438 C 308.957031 574.878906 309.226562 574.503906 309.53125 574.15625 C 309.835938 573.804688 310.167969 573.484375 310.527344 573.191406 C 310.886719 572.898438 311.269531 572.640625 311.675781 572.414062 C 312.082031 572.183594 312.503906 571.992188 312.941406 571.839844 C 313.378906 571.683594 313.828125 571.566406 314.289062 571.488281 C 314.75 571.40625 315.210938 571.367188 315.679688 571.367188 L 480.519531 571.367188 C 532.324219 571.367188 570.886719 585.21875 595.121094 612.621094 C 619.488281 640.140625 627.015625 678.609375 617.484375 726.953125 C 613.609375 746.648438 606.941406 764.9375 597.667969 781.320312 C 588.378906 797.71875 576.113281 812.886719 561.191406 826.417969 C 543.328125 842.914062 523.113281 854.875 501.15625 861.910156 C 479.550781 868.855469 451.804688 872.378906 418.679688 872.378906 L 351.933594 872.378906 L 332.871094 969.136719 C 332.78125 969.585938 332.65625 970.027344 332.488281 970.457031 C 332.324219 970.886719 332.121094 971.300781 331.882812 971.695312 C 331.644531 972.089844 331.371094 972.464844 331.070312 972.8125 C 330.765625 973.164062 330.433594 973.484375 330.074219 973.777344 C 329.714844 974.070312 329.332031 974.328125 328.925781 974.558594 C 328.519531 974.785156 328.097656 974.976562 327.660156 975.132812 C 327.21875 975.289062 326.769531 975.40625 326.3125 975.484375 C 325.851562 975.5625 325.390625 975.601562 324.921875 975.601562 L 239.171875 975.601562 Z M 239.191406 975.597656 " fill-opacity="1" fill-rule="nonzero"/><path fill="#ffffff" d="M 402.671875 656.597656 L 448.050781 656.597656 C 484.285156 656.597656 496.875 664.445312 501.152344 669.121094 C 508.246094 676.882812 509.585938 693.25 505.027344 716.445312 C 499.902344 742.417969 490.402344 760.832031 476.789062 771.175781 C 462.851562 781.761719 440.195312 787.125 409.453125 787.125 L 376.972656 787.125 L 402.6875 656.597656 Z M 480.511719 563.367188 L 315.679688 563.367188 C 314.75 563.367188 313.820312 563.445312 312.902344 563.605469 C 311.984375 563.761719 311.085938 563.996094 310.207031 564.308594 C 309.328125 564.617188 308.484375 565 307.675781 565.457031 C 306.863281 565.910156 306.097656 566.433594 305.378906 567.015625 C 304.660156 567.601562 303.996094 568.246094 303.386719 568.941406 C 302.78125 569.640625 302.238281 570.386719 301.761719 571.175781 C 301.285156 571.96875 300.878906 572.792969 300.546875 573.652344 C 300.214844 574.515625 299.960938 575.394531 299.78125 576.300781 L 223.300781 964.574219 C 223.1875 965.152344 223.105469 965.730469 223.058594 966.316406 C 223.007812 966.902344 222.992188 967.488281 223.011719 968.078125 C 223.027344 968.664062 223.078125 969.25 223.160156 969.832031 C 223.242188 970.410156 223.355469 970.988281 223.503906 971.558594 C 223.648438 972.125 223.828125 972.6875 224.035156 973.234375 C 224.246094 973.785156 224.484375 974.324219 224.753906 974.847656 C 225.023438 975.371094 225.320312 975.878906 225.644531 976.371094 C 225.972656 976.863281 226.324219 977.335938 226.703125 977.789062 C 227.082031 978.242188 227.484375 978.671875 227.910156 979.082031 C 228.339844 979.492188 228.785156 979.875 229.257812 980.238281 C 229.726562 980.597656 230.214844 980.933594 230.722656 981.238281 C 231.230469 981.546875 231.753906 981.828125 232.292969 982.078125 C 232.832031 982.328125 233.382812 982.546875 233.945312 982.738281 C 234.507812 982.929688 235.078125 983.089844 235.660156 983.21875 C 236.242188 983.347656 236.828125 983.441406 237.417969 983.507812 C 238.011719 983.570312 238.605469 983.605469 239.199219 983.605469 L 324.921875 983.605469 C 325.855469 983.605469 326.78125 983.527344 327.699219 983.367188 C 328.621094 983.210938 329.519531 982.976562 330.398438 982.664062 C 331.273438 982.355469 332.121094 981.96875 332.929688 981.515625 C 333.742188 981.0625 334.507812 980.539062 335.226562 979.953125 C 335.949219 979.371094 336.609375 978.726562 337.21875 978.027344 C 337.824219 977.328125 338.367188 976.585938 338.84375 975.792969 C 339.324219 975.003906 339.726562 974.175781 340.058594 973.316406 C 340.390625 972.457031 340.648438 971.574219 340.824219 970.671875 L 358.613281 880.382812 L 418.683594 880.382812 C 452.65625 880.382812 481.253906 876.726562 503.679688 869.523438 C 526.734375 862.128906 547.957031 849.597656 566.734375 832.273438 C 582.261719 818.175781 595.082031 802.351562 604.746094 785.238281 C 614.414062 768.121094 621.40625 749.023438 625.449219 728.492188 C 635.480469 677.605469 627.332031 636.851562 601.230469 607.378906 C 575.386719 578.191406 534.777344 563.390625 480.53125 563.390625 M 357.324219 803.132812 L 409.46875 803.132812 C 444.027344 803.132812 469.773438 796.710938 486.6875 783.863281 C 503.597656 771.011719 515.011719 749.566406 520.941406 719.511719 C 526.613281 690.660156 524.03125 670.296875 513.195312 658.433594 C 502.355469 646.566406 480.632812 640.636719 448.070312 640.636719 L 389.335938 640.636719 L 357.328125 803.128906 M 480.53125 579.371094 C 530.121094 579.371094 566.296875 592.210938 589.035156 617.890625 C 611.777344 643.566406 618.621094 679.417969 609.546875 725.441406 C 605.8125 744.398438 599.5 761.730469 590.609375 777.4375 C 581.71875 793.144531 570.082031 807.519531 555.71875 820.546875 C 538.601562 836.351562 519.585938 847.613281 498.664062 854.324219 C 477.738281 861.050781 451.089844 864.398438 418.691406 864.398438 L 345.265625 864.398438 L 324.933594 967.621094 L 239.210938 967.621094 L 315.699219 579.398438 L 480.542969 579.398438 " fill-opacity="1" fill-rule="nonzero"/><path fill="#000000" d="M 814.03125 872.367188 C 811.613281 872.367188 809.320312 871.300781 807.785156 869.457031 C 806.246094 867.613281 805.617188 865.195312 806.082031 862.851562 L 839.914062 691.0625 C 843.132812 674.726562 842.335938 663 837.679688 658.046875 C 834.828125 655.015625 826.265625 649.9375 800.941406 649.9375 L 739.648438 649.9375 L 697.113281 865.898438 C 697.023438 866.347656 696.894531 866.789062 696.730469 867.21875 C 696.5625 867.648438 696.359375 868.0625 696.121094 868.457031 C 695.882812 868.855469 695.613281 869.226562 695.308594 869.574219 C 695.003906 869.925781 694.671875 870.246094 694.3125 870.539062 C 693.953125 870.832031 693.570312 871.09375 693.164062 871.320312 C 692.757812 871.546875 692.335938 871.738281 691.898438 871.894531 C 691.457031 872.050781 691.007812 872.167969 690.550781 872.246094 C 690.089844 872.324219 689.625 872.363281 689.160156 872.363281 L 604.113281 872.363281 C 603.515625 872.363281 602.925781 872.300781 602.34375 872.171875 C 601.761719 872.042969 601.199219 871.851562 600.65625 871.601562 C 600.117188 871.347656 599.613281 871.042969 599.140625 870.679688 C 598.667969 870.320312 598.242188 869.910156 597.863281 869.457031 C 597.484375 869 597.160156 868.511719 596.886719 867.984375 C 596.617188 867.460938 596.410156 866.910156 596.261719 866.339844 C 596.117188 865.769531 596.035156 865.191406 596.015625 864.601562 C 596 864.011719 596.046875 863.429688 596.160156 862.847656 L 672.644531 474.601562 C 672.734375 474.148438 672.863281 473.707031 673.027344 473.277344 C 673.195312 472.847656 673.398438 472.4375 673.636719 472.039062 C 673.875 471.644531 674.144531 471.273438 674.449219 470.921875 C 674.753906 470.574219 675.085938 470.253906 675.445312 469.960938 C 675.804688 469.667969 676.1875 469.40625 676.59375 469.179688 C 676.996094 468.953125 677.421875 468.761719 677.859375 468.605469 C 678.296875 468.449219 678.746094 468.332031 679.207031 468.253906 C 679.667969 468.175781 680.128906 468.136719 680.597656 468.136719 L 765.644531 468.136719 C 766.242188 468.136719 766.832031 468.199219 767.414062 468.328125 C 767.996094 468.457031 768.558594 468.648438 769.097656 468.898438 C 769.636719 469.152344 770.144531 469.457031 770.617188 469.820312 C 771.085938 470.179688 771.511719 470.589844 771.894531 471.042969 C 772.273438 471.5 772.597656 471.988281 772.867188 472.515625 C 773.136719 473.039062 773.347656 473.589844 773.492188 474.160156 C 773.640625 474.730469 773.722656 475.308594 773.738281 475.898438 C 773.757812 476.488281 773.707031 477.074219 773.59375 477.652344 L 755.136719 571.359375 L 821.074219 571.359375 C 871.308594 571.359375 905.367188 580.09375 925.210938 598.070312 C 945.460938 616.40625 951.742188 645.726562 943.96875 685.230469 L 908.382812 865.902344 C 908.292969 866.355469 908.167969 866.792969 908 867.226562 C 907.832031 867.65625 907.632812 868.066406 907.394531 868.464844 C 907.15625 868.859375 906.882812 869.230469 906.578125 869.582031 C 906.277344 869.929688 905.945312 870.25 905.582031 870.542969 C 905.222656 870.835938 904.839844 871.097656 904.4375 871.324219 C 904.03125 871.550781 903.609375 871.742188 903.167969 871.898438 C 902.730469 872.054688 902.28125 872.171875 901.820312 872.25 C 901.359375 872.332031 900.898438 872.371094 900.429688 872.371094 L 814.035156 872.371094 Z M 814.03125 872.367188 " fill-opacity="1" fill-rule="nonzero"/><path fill="#ffffff" d="M 765.648438 460.144531 L 680.601562 460.144531 C 679.667969 460.144531 678.742188 460.222656 677.824219 460.382812 C 676.902344 460.539062 676.003906 460.773438 675.128906 461.085938 C 674.25 461.394531 673.40625 461.777344 672.59375 462.234375 C 671.78125 462.6875 671.015625 463.207031 670.296875 463.792969 C 669.578125 464.378906 668.914062 465.023438 668.304688 465.71875 C 667.699219 466.417969 667.15625 467.164062 666.679688 467.953125 C 666.203125 468.746094 665.796875 469.570312 665.464844 470.433594 C 665.132812 471.292969 664.878906 472.171875 664.699219 473.078125 L 588.214844 861.324219 C 588.101562 861.902344 588.019531 862.484375 587.972656 863.070312 C 587.925781 863.65625 587.910156 864.242188 587.925781 864.828125 C 587.941406 865.414062 587.992188 866 588.074219 866.582031 C 588.15625 867.164062 588.269531 867.738281 588.417969 868.308594 C 588.5625 868.878906 588.742188 869.4375 588.953125 869.988281 C 589.160156 870.539062 589.398438 871.074219 589.667969 871.597656 C 589.9375 872.125 590.234375 872.632812 590.5625 873.121094 C 590.886719 873.613281 591.238281 874.085938 591.617188 874.539062 C 591.996094 874.992188 592.402344 875.425781 592.828125 875.835938 C 593.253906 876.242188 593.703125 876.628906 594.171875 876.988281 C 594.644531 877.351562 595.132812 877.683594 595.640625 877.992188 C 596.148438 878.300781 596.671875 878.578125 597.207031 878.828125 C 597.746094 879.078125 598.296875 879.300781 598.859375 879.492188 C 599.425781 879.679688 599.996094 879.839844 600.578125 879.96875 C 601.160156 880.097656 601.746094 880.195312 602.335938 880.257812 C 602.929688 880.324219 603.523438 880.355469 604.117188 880.355469 L 689.164062 880.355469 C 690.097656 880.355469 691.023438 880.277344 691.945312 880.121094 C 692.863281 879.960938 693.761719 879.726562 694.640625 879.414062 C 695.519531 879.105469 696.363281 878.722656 697.171875 878.265625 C 697.984375 877.8125 698.75 877.292969 699.46875 876.707031 C 700.191406 876.121094 700.855469 875.480469 701.460938 874.78125 C 702.070312 874.082031 702.609375 873.335938 703.089844 872.546875 C 703.566406 871.753906 703.96875 870.929688 704.300781 870.070312 C 704.636719 869.207031 704.890625 868.328125 705.066406 867.421875 L 746.332031 657.929688 L 800.949219 657.929688 C 826.230469 657.929688 831.535156 663.257812 831.75 663.484375 C 833.28125 665.109375 835.296875 672.648438 831.96875 689.539062 L 798.140625 861.324219 C 798.027344 861.902344 797.945312 862.484375 797.898438 863.070312 C 797.847656 863.65625 797.832031 864.242188 797.847656 864.828125 C 797.867188 865.414062 797.914062 866 797.996094 866.582031 C 798.082031 867.164062 798.195312 867.738281 798.339844 868.308594 C 798.488281 868.878906 798.664062 869.4375 798.875 869.988281 C 799.085938 870.539062 799.324219 871.074219 799.59375 871.597656 C 799.863281 872.125 800.160156 872.632812 800.484375 873.121094 C 800.8125 873.613281 801.164062 874.085938 801.542969 874.539062 C 801.921875 874.992188 802.324219 875.425781 802.75 875.835938 C 803.179688 876.242188 803.628906 876.628906 804.097656 876.988281 C 804.566406 877.351562 805.054688 877.683594 805.5625 877.992188 C 806.070312 878.300781 806.59375 878.578125 807.132812 878.828125 C 807.671875 879.078125 808.222656 879.300781 808.785156 879.492188 C 809.347656 879.679688 809.921875 879.839844 810.5 879.96875 C 811.082031 880.097656 811.667969 880.195312 812.261719 880.257812 C 812.851562 880.324219 813.445312 880.355469 814.042969 880.355469 L 900.441406 880.355469 C 901.371094 880.355469 902.296875 880.277344 903.21875 880.117188 C 904.136719 879.960938 905.035156 879.726562 905.914062 879.414062 C 906.792969 879.105469 907.636719 878.722656 908.449219 878.265625 C 909.257812 877.8125 910.023438 877.292969 910.742188 876.707031 C 911.464844 876.121094 912.128906 875.480469 912.734375 874.78125 C 913.34375 874.082031 913.886719 873.335938 914.363281 872.546875 C 914.839844 871.753906 915.242188 870.929688 915.578125 870.070312 C 915.910156 869.207031 916.164062 868.328125 916.34375 867.421875 L 951.925781 686.75 C 960.277344 644.34375 953.132812 612.527344 930.707031 592.1875 C 909.300781 572.792969 873.445312 563.363281 821.089844 563.363281 L 764.972656 563.363281 L 781.558594 479.175781 C 781.671875 478.597656 781.753906 478.015625 781.804688 477.429688 C 781.851562 476.84375 781.867188 476.257812 781.851562 475.671875 C 781.832031 475.085938 781.785156 474.5 781.703125 473.917969 C 781.621094 473.335938 781.503906 472.761719 781.359375 472.191406 C 781.210938 471.621094 781.035156 471.0625 780.824219 470.511719 C 780.617188 469.960938 780.375 469.421875 780.109375 468.898438 C 779.839844 468.375 779.539062 467.867188 779.214844 467.375 C 778.890625 466.882812 778.535156 466.410156 778.15625 465.957031 C 777.777344 465.503906 777.375 465.074219 776.949219 464.664062 C 776.523438 464.253906 776.074219 463.871094 775.601562 463.507812 C 775.132812 463.148438 774.644531 462.8125 774.136719 462.507812 C 773.628906 462.199219 773.105469 461.917969 772.566406 461.667969 C 772.027344 461.417969 771.476562 461.199219 770.914062 461.007812 C 770.351562 460.816406 769.777344 460.65625 769.199219 460.527344 C 768.617188 460.398438 768.03125 460.304688 767.4375 460.238281 C 766.847656 460.175781 766.253906 460.140625 765.65625 460.140625 M 765.65625 476.125 L 745.328125 579.347656 L 821.089844 579.347656 C 868.765625 579.347656 901.644531 587.554688 919.746094 603.953125 C 937.847656 620.351562 943.261719 646.949219 936.03125 683.703125 L 900.449219 864.371094 L 814.050781 864.371094 L 847.878906 692.589844 C 851.730469 673.046875 850.316406 659.71875 843.628906 652.613281 C 836.945312 645.503906 822.71875 641.945312 800.957031 641.945312 L 732.976562 641.945312 L 689.164062 864.371094 L 604.117188 864.371094 L 680.601562 476.125 L 765.648438 476.125 " fill-opacity="1" fill-rule="nonzero"/><path fill="#000000" d="M 1078.542969 795.117188 C 1111.117188 795.117188 1135.433594 789.191406 1150.820312 777.507812 C 1166.039062 765.949219 1176.554688 745.917969 1182.066406 717.964844 C 1187.207031 691.84375 1185.25 673.605469 1176.25 663.761719 C 1167.050781 653.710938 1147.164062 648.609375 1117.140625 648.609375 L 1065.085938 648.609375 L 1036.222656 795.121094 L 1078.539062 795.121094 Z M 908.28125 975.589844 C 905.863281 975.589844 903.570312 974.523438 902.03125 972.679688 C 901.261719 971.761719 900.730469 970.722656 900.429688 969.566406 C 900.132812 968.410156 900.097656 967.246094 900.328125 966.074219 L 976.8125 577.824219 C 976.902344 577.375 977.027344 576.933594 977.195312 576.503906 C 977.363281 576.074219 977.5625 575.660156 977.800781 575.265625 C 978.042969 574.867188 978.3125 574.496094 978.617188 574.148438 C 978.921875 573.796875 979.253906 573.476562 979.613281 573.183594 C 979.972656 572.890625 980.355469 572.632812 980.761719 572.402344 C 981.167969 572.175781 981.589844 571.984375 982.027344 571.828125 C 982.46875 571.675781 982.917969 571.558594 983.375 571.480469 C 983.835938 571.398438 984.300781 571.359375 984.765625 571.359375 L 1149.605469 571.359375 C 1201.414062 571.359375 1239.96875 585.210938 1264.210938 612.613281 C 1288.578125 640.132812 1296.097656 678.597656 1286.574219 726.945312 C 1282.691406 746.640625 1276.023438 764.929688 1266.75 781.3125 C 1257.460938 797.707031 1245.195312 812.878906 1230.273438 826.410156 C 1212.410156 842.90625 1192.195312 854.867188 1170.238281 861.902344 C 1148.632812 868.847656 1120.882812 872.371094 1087.761719 872.371094 L 1020.964844 872.371094 L 1001.914062 969.125 C 1001.824219 969.578125 1001.695312 970.019531 1001.53125 970.449219 C 1001.363281 970.878906 1001.160156 971.292969 1000.921875 971.6875 C 1000.683594 972.085938 1000.414062 972.457031 1000.109375 972.804688 C 999.804688 973.15625 999.472656 973.476562 999.113281 973.769531 C 998.753906 974.0625 998.371094 974.324219 997.964844 974.550781 C 997.558594 974.777344 997.136719 974.96875 996.695312 975.125 C 996.257812 975.28125 995.808594 975.398438 995.347656 975.476562 C 994.890625 975.554688 994.425781 975.59375 993.960938 975.59375 L 908.238281 975.59375 Z M 908.28125 975.589844 " fill-opacity="1" fill-rule="nonzero"/><path fill="#ffffff" d="M 1071.765625 656.597656 L 1117.144531 656.597656 C 1153.378906 656.597656 1165.96875 664.445312 1170.246094 669.121094 C 1177.34375 676.882812 1178.683594 693.25 1174.117188 716.445312 C 1168.996094 742.417969 1159.492188 760.832031 1145.882812 771.175781 C 1131.945312 781.761719 1109.289062 787.125 1078.546875 787.125 L 1046.058594 787.125 L 1071.769531 656.597656 Z M 1149.605469 563.367188 L 984.761719 563.367188 C 983.832031 563.367188 982.902344 563.445312 981.984375 563.605469 C 981.066406 563.761719 980.167969 563.996094 979.289062 564.308594 C 978.410156 564.617188 977.566406 565 976.757812 565.457031 C 975.945312 565.910156 975.179688 566.433594 974.460938 567.015625 C 973.742188 567.601562 973.078125 568.246094 972.46875 568.941406 C 971.863281 569.640625 971.320312 570.386719 970.84375 571.175781 C 970.367188 571.96875 969.960938 572.792969 969.628906 573.652344 C 969.296875 574.515625 969.042969 575.394531 968.863281 576.300781 L 892.375 964.574219 C 892.261719 965.152344 892.179688 965.730469 892.132812 966.316406 C 892.082031 966.902344 892.066406 967.488281 892.085938 968.078125 C 892.101562 968.664062 892.152344 969.25 892.234375 969.832031 C 892.316406 970.410156 892.429688 970.988281 892.578125 971.558594 C 892.722656 972.125 892.902344 972.6875 893.109375 973.234375 C 893.320312 973.785156 893.558594 974.324219 893.828125 974.847656 C 894.097656 975.371094 894.394531 975.878906 894.71875 976.371094 C 895.046875 976.863281 895.398438 977.335938 895.777344 977.789062 C 896.15625 978.242188 896.558594 978.671875 896.984375 979.082031 C 897.414062 979.492188 897.859375 979.875 898.332031 980.238281 C 898.800781 980.597656 899.289062 980.933594 899.796875 981.238281 C 900.304688 981.546875 900.828125 981.828125 901.367188 982.078125 C 901.902344 982.328125 902.453125 982.546875 903.019531 982.738281 C 903.582031 982.929688 904.152344 983.089844 904.734375 983.21875 C 905.316406 983.347656 905.902344 983.441406 906.492188 983.507812 C 907.085938 983.570312 907.679688 983.605469 908.273438 983.605469 L 993.996094 983.605469 C 994.929688 983.605469 995.855469 983.527344 996.773438 983.367188 C 997.695312 983.210938 998.59375 982.976562 999.472656 982.664062 C 1000.347656 982.355469 1001.195312 981.96875 1002.003906 981.515625 C 1002.816406 981.058594 1003.582031 980.539062 1004.300781 979.953125 C 1005.019531 979.371094 1005.683594 978.726562 1006.292969 978.027344 C 1006.898438 977.328125 1007.441406 976.585938 1007.917969 975.792969 C 1008.398438 975.003906 1008.800781 974.175781 1009.132812 973.316406 C 1009.464844 972.457031 1009.722656 971.574219 1009.898438 970.671875 L 1027.683594 880.382812 L 1087.757812 880.382812 C 1121.726562 880.382812 1150.324219 876.726562 1172.75 869.523438 C 1195.808594 862.128906 1217.027344 849.597656 1235.808594 832.265625 C 1251.339844 818.175781 1264.125 802.351562 1273.820312 785.238281 C 1283.511719 768.121094 1290.476562 749.023438 1294.523438 728.492188 C 1304.550781 677.601562 1296.402344 636.851562 1270.304688 607.378906 C 1244.460938 578.191406 1203.851562 563.390625 1149.601562 563.390625 M 1026.398438 803.132812 L 1078.539062 803.132812 C 1113.097656 803.132812 1138.84375 796.710938 1155.757812 783.863281 C 1172.667969 771.011719 1184.085938 749.566406 1190.011719 719.511719 C 1195.6875 690.660156 1193.105469 670.296875 1182.265625 658.433594 C 1171.425781 646.566406 1149.703125 640.636719 1117.144531 640.636719 L 1058.410156 640.636719 L 1026.402344 803.128906 M 1149.605469 579.371094 C 1199.191406 579.371094 1235.371094 592.210938 1258.109375 617.890625 C 1280.847656 643.566406 1287.691406 679.417969 1278.621094 725.441406 C 1274.886719 744.398438 1268.570312 761.730469 1259.679688 777.4375 C 1250.789062 793.144531 1239.15625 807.519531 1224.792969 820.546875 C 1207.671875 836.351562 1188.65625 847.613281 1167.734375 854.324219 C 1146.808594 861.050781 1120.160156 864.398438 1087.761719 864.398438 L 1014.335938 864.398438 L 994.003906 967.621094 L 908.28125 967.621094 L 984.765625 579.375 L 1149.605469 579.375 " fill-opacity="1" fill-rule="nonzero"/></svg>