<svg xmlns="http://www.w3.org/2000/svg" xmlns:xlink="http://www.w3.org/1999/xlink" width="2000" zoomAndPan="magnify" viewBox="0 0 1500 1499.999933" height="2000" preserveAspectRatio="xMidYMid meet" version="1.0"><defs><clipPath id="da35b5c409"><path d="M 218.183594 294 L 1281.683594 294 L 1281.683594 1500 L 218.183594 1500 Z M 218.183594 294 " clip-rule="nonzero"/></clipPath></defs><g clip-path="url(#da35b5c409)"><path fill="#e44d26" d="M 1281.386719 294.777344 L 1184.589844 1379.308594 L 749.472656 1499.941406 L 315.5625 1379.476562 L 218.871094 294.777344 L 1281.367188 294.757812 L 1281.40625 294.757812 Z M 1281.386719 294.777344 " fill-opacity="1" fill-rule="nonzero"/></g><path fill="#f16529" d="M 750.140625 1407.734375 L 1101.75 1310.261719 L 1184.464844 383.476562 L 750.140625 383.464844 Z M 750.140625 1407.734375 " fill-opacity="1" fill-rule="nonzero"/><path fill="#ebebeb" d="M 561.964844 649.527344 L 750.140625 649.527344 L 750.140625 516.480469 L 416.59375 516.480469 L 419.777344 552.179688 L 452.472656 918.785156 L 750.140625 918.785156 L 750.140625 785.78125 L 574.121094 785.78125 Z M 561.964844 649.527344 " fill-opacity="1" fill-rule="nonzero"/><path fill="#ebebeb" d="M 591.945312 985.308594 L 458.414062 985.308594 L 477.050781 1194.210938 L 749.515625 1269.855469 L 750.140625 1269.6875 L 750.140625 1131.269531 L 749.558594 1131.4375 L 601.414062 1091.40625 Z M 591.945312 985.308594 " fill-opacity="1" fill-rule="nonzero"/><path fill="#000000" d="M 317.734375 0 L 385.332031 0 L 385.332031 66.792969 L 447.164062 66.792969 L 447.164062 0 L 514.765625 0 L 514.765625 202.269531 L 447.167969 202.269531 L 447.167969 134.539062 L 385.332031 134.539062 L 385.332031 202.269531 L 317.734375 202.269531 Z M 317.734375 0 " fill-opacity="1" fill-rule="nonzero"/><path fill="#000000" d="M 603.660156 67.078125 L 544.152344 67.078125 L 544.152344 0 L 730.8125 0 L 730.8125 67.078125 L 671.253906 67.078125 L 671.253906 202.269531 L 603.664062 202.269531 L 603.664062 67.078125 Z M 603.660156 67.078125 " fill-opacity="1" fill-rule="nonzero"/><path fill="#000000" d="M 760.425781 0 L 830.898438 0 L 874.257812 71.070312 L 917.574219 0 L 988.085938 0 L 988.085938 202.269531 L 920.78125 202.269531 L 920.78125 102.011719 L 874.257812 173.929688 L 873.089844 173.929688 L 826.566406 102.011719 L 826.566406 202.269531 L 760.425781 202.269531 Z M 760.425781 0 " fill-opacity="1" fill-rule="nonzero"/><path fill="#000000" d="M 1021.738281 0 L 1089.339844 0 L 1089.339844 135.414062 L 1184.425781 135.414062 L 1184.425781 202.269531 L 1021.738281 202.269531 Z M 1021.738281 0 " fill-opacity="1" fill-rule="nonzero"/><path fill="#ffffff" d="M 749.683594 918.785156 L 913.492188 918.785156 L 898.039062 1091.320312 L 749.683594 1131.394531 L 749.683594 1269.773438 L 1022.363281 1194.210938 L 1024.363281 1171.714844 L 1055.644531 821.480469 L 1058.890625 785.78125 L 749.683594 785.78125 Z M 749.683594 918.785156 " fill-opacity="1" fill-rule="nonzero"/><path fill="#ffffff" d="M 749.683594 649.195312 L 749.683594 649.527344 L 1070.96875 649.527344 L 1073.636719 619.621094 L 1079.714844 552.179688 L 1082.882812 516.480469 L 749.683594 516.480469 Z M 749.683594 649.195312 " fill-opacity="1" fill-rule="nonzero"/></svg>