<svg xmlns="http://www.w3.org/2000/svg" xmlns:xlink="http://www.w3.org/1999/xlink" width="2000" zoomAndPan="magnify" viewBox="0 0 1500 1499.999933" height="2000" preserveAspectRatio="xMidYMid meet" version="1.0"><defs><clipPath id="78f3a42969"><path d="M 5 845 L 621 845 L 621 1144.160156 L 5 1144.160156 Z M 5 845 " clip-rule="nonzero"/></clipPath></defs><g clip-path="url(#78f3a42969)"><path fill="#00618a" d="M 5.445312 1076.050781 L 54.503906 1076.050781 L 54.503906 882.378906 L 130.449219 1051.277344 C 139.40625 1071.636719 151.679688 1078.953125 175.734375 1078.953125 C 199.785156 1078.953125 211.582031 1071.71875 220.550781 1051.277344 L 296.503906 882.378906 L 296.503906 1076.125 L 345.570312 1076.125 L 345.570312 882.699219 C 345.570312 863.828125 338.007812 854.703125 322.449219 849.992188 C 285.183594 838.355469 260.179688 848.417969 248.867188 873.578125 L 174.339844 1040.269531 L 102.152344 873.507812 C 91.304688 848.347656 65.832031 838.28125 28.570312 849.917969 C 12.992188 854.636719 5.445312 863.761719 5.445312 882.625 Z M 386.347656 918.359375 L 435.390625 918.359375 L 435.390625 1025.105469 C 434.933594 1030.910156 437.25 1044.523438 464.125 1044.9375 C 477.839844 1045.15625 569.949219 1044.9375 570.804688 1044.9375 L 570.804688 917.828125 L 619.957031 917.828125 C 620.175781 917.828125 619.90625 1091.140625 619.914062 1091.882812 C 620.183594 1134.625 566.878906 1143.910156 542.316406 1144.632812 L 387.414062 1144.632812 L 387.414062 1111.617188 L 542.59375 1111.609375 C 574.164062 1108.265625 570.441406 1092.582031 570.441406 1087.292969 L 570.441406 1074.421875 L 466.175781 1074.421875 C 417.664062 1073.988281 386.777344 1052.804688 386.390625 1028.445312 C 386.355469 1026.261719 387.4375 919.40625 386.359375 918.351562 Z M 386.347656 918.359375 " fill-opacity="1" fill-rule="nonzero"/></g><path fill="#e48e00" d="M 657.773438 1076.050781 L 798.816406 1076.050781 C 815.324219 1076.050781 831.371094 1072.597656 844.117188 1066.613281 C 865.347656 1056.871094 875.722656 1043.65625 875.722656 1026.359375 L 875.722656 990.507812 C 875.722656 976.351562 863.929688 963.144531 840.824219 954.339844 C 828.554688 949.613281 813.460938 947.105469 798.839844 947.105469 L 739.398438 947.105469 C 719.59375 947.105469 710.15625 941.125 707.800781 927.921875 C 707.328125 926.351562 707.328125 925.011719 707.328125 923.515625 L 707.328125 901.191406 C 707.328125 899.933594 707.328125 898.667969 707.800781 897.097656 C 710.15625 887.03125 715.347656 884.195312 732.796875 882.554688 C 734.214844 882.554688 736.097656 882.234375 737.523438 882.234375 L 877.621094 882.234375 L 877.621094 849.53125 L 739.878906 849.53125 C 720.066406 849.53125 709.6875 850.789062 700.25 853.617188 C 670.964844 862.746094 658.226562 877.289062 658.226562 902.449219 L 658.226562 931.070312 C 658.226562 953.089844 683.238281 971.957031 725.207031 976.359375 C 729.933594 976.671875 734.644531 976.984375 739.355469 976.984375 L 790.304688 976.984375 C 792.195312 976.984375 794.085938 976.984375 795.496094 977.304688 C 811.054688 978.5625 817.671875 981.390625 822.382812 987.046875 C 825.292969 989.957031 826.164062 992.71875 826.164062 995.773438 L 826.164062 1024.394531 C 826.164062 1027.855469 823.808594 1032.261719 819.089844 1036.027344 C 814.84375 1039.808594 807.769531 1042.320312 798.332031 1042.953125 C 796.441406 1042.953125 795.03125 1043.265625 793.144531 1043.265625 L 657.757812 1043.265625 L 657.757812 1075.972656 Z M 1181.753906 1019.128906 C 1181.753906 1052.78125 1206.75 1071.652344 1257.226562 1075.425781 C 1261.9375 1075.792969 1266.652344 1076 1271.375 1076.050781 L 1399.214844 1076.050781 L 1399.214844 1043.34375 L 1270.429688 1043.34375 C 1241.660156 1043.34375 1230.804688 1036.109375 1230.804688 1018.808594 L 1230.804688 849.597656 L 1181.746094 849.597656 L 1181.746094 1019.113281 Z M 907.019531 1020.832031 L 907.019531 904.230469 C 907.019531 874.605469 927.8125 856.636719 968.9375 850.964844 C 973.328125 850.335938 977.742188 850.023438 982.179688 850.019531 L 1075.296875 850.019531 C 1079.890625 850.023438 1084.460938 850.335938 1089.011719 850.964844 C 1130.136719 856.636719 1150.933594 874.597656 1150.933594 904.230469 L 1150.933594 1020.832031 C 1150.933594 1044.863281 1142.097656 1057.726562 1121.738281 1066.113281 L 1170.0625 1109.742188 L 1113.101562 1109.742188 L 1074.003906 1074.445312 L 1034.644531 1076.941406 L 982.179688 1076.941406 C 973.199219 1076.941406 963.746094 1075.675781 953.339844 1072.839844 C 922.078125 1064.332031 907.023438 1047.941406 907.023438 1020.832031 Z M 959.972656 1017.921875 C 959.972656 1019.5 960.445312 1021.070312 960.917969 1022.96875 C 963.828125 1036.523438 976.515625 1044.085938 995.820312 1044.085938 L 1040.390625 1044.085938 L 999.453125 1007.125 L 1056.414062 1007.125 L 1092.042969 1039.359375 C 1098.625 1035.855469 1102.949219 1030.488281 1104.40625 1023.601562 C 1104.878906 1022.03125 1104.878906 1020.453125 1104.878906 1018.875 L 1104.878906 907.074219 C 1104.878906 905.816406 1104.878906 904.164062 1104.40625 902.660156 C 1101.496094 890.058594 1088.800781 882.808594 1069.894531 882.808594 L 995.949219 882.808594 C 974.136719 882.808594 960.03125 892.261719 960.03125 907.074219 L 960.03125 1018.011719 Z M 959.972656 1017.921875 " fill-opacity="1" fill-rule="nonzero"/><path fill="#00618a" d="M 1442.347656 795.335938 C 1412.195312 794.523438 1389.152344 797.320312 1369.460938 805.625 C 1363.863281 807.988281 1354.941406 808.046875 1354.027344 815.066406 C 1357.101562 818.285156 1357.589844 823.101562 1360.023438 827.0625 C 1364.730469 834.675781 1372.675781 844.878906 1379.75 850.214844 C 1387.488281 856.054688 1395.457031 862.308594 1403.765625 867.378906 C 1418.527344 876.378906 1435.003906 881.519531 1449.210938 890.53125 C 1457.585938 895.839844 1465.90625 902.527344 1474.078125 908.535156 C 1478.113281 911.5 1480.839844 916.113281 1486.074219 917.964844 L 1486.074219 917.109375 C 1483.3125 913.597656 1482.605469 908.765625 1480.078125 905.109375 L 1468.929688 893.960938 C 1458.023438 879.417969 1444.195312 866.789062 1429.484375 856.222656 C 1417.757812 847.800781 1391.5 836.429688 1386.605469 822.773438 L 1385.75 821.914062 C 1394.066406 820.96875 1403.804688 817.964844 1411.488281 815.914062 C 1424.378906 812.460938 1435.90625 813.347656 1449.226562 809.917969 L 1467.234375 804.769531 L 1467.234375 801.335938 C 1460.503906 794.425781 1455.703125 785.289062 1448.367188 779.039062 C 1429.171875 762.679688 1408.210938 746.355469 1386.636719 732.71875 C 1374.667969 725.15625 1359.878906 720.257812 1347.191406 713.851562 C 1342.921875 711.699219 1335.425781 710.578125 1332.613281 706.984375 C 1325.953125 698.492188 1322.324219 687.714844 1317.183594 677.898438 C 1306.421875 657.175781 1295.851562 634.53125 1286.3125 612.722656 C 1279.804688 597.851562 1275.550781 583.183594 1267.449219 569.84375 C 1228.511719 505.820312 1186.597656 467.179688 1121.679688 429.207031 C 1107.867188 421.136719 1091.238281 417.9375 1073.65625 413.769531 L 1045.355469 412.054688 C 1039.597656 409.652344 1033.605469 402.601562 1028.195312 399.183594 C 1006.6875 385.585938 951.523438 356.039062 935.59375 394.820312 C 925.535156 419.347656 950.621094 443.277344 959.601562 455.714844 C 965.898438 464.4375 973.96875 474.203125 978.460938 484.015625 C 981.421875 490.457031 981.9375 496.921875 984.46875 503.742188 C 990.699219 520.46875 996.125 538.8125 1004.1875 554.339844 C 1008.257812 562.191406 1012.753906 570.46875 1017.90625 577.492188 C 1021.070312 581.804688 1026.488281 583.703125 1027.339844 590.363281 C 1022.046875 597.78125 1021.738281 609.269531 1018.757812 618.664062 C 1005.359375 660.925781 1010.410156 713.449219 1029.90625 744.734375 C 1035.890625 754.332031 1049.972656 774.925781 1069.351562 767.027344 C 1086.292969 760.121094 1082.4375 738.742188 1087.359375 719.863281 C 1088.453125 715.574219 1087.78125 712.445312 1089.933594 709.574219 L 1089.933594 710.433594 L 1105.371094 741.300781 C 1116.785156 759.699219 1137.074219 778.933594 1154.246094 791.910156 C 1163.152344 798.636719 1170.242188 810.273438 1181.6875 814.207031 L 1181.6875 813.347656 L 1180.832031 813.347656 C 1178.597656 809.859375 1175.109375 808.425781 1172.25 805.640625 C 1165.539062 799.058594 1158.070312 790.878906 1152.523438 783.34375 C 1136.890625 762.125 1123.089844 738.914062 1110.511719 714.738281 C 1104.507812 703.195312 1099.277344 690.464844 1094.226562 678.722656 C 1092.277344 674.191406 1092.296875 667.347656 1088.226562 665 C 1082.679688 673.609375 1074.507812 680.558594 1070.214844 690.726562 C 1063.351562 706.972656 1062.464844 726.777344 1059.925781 747.328125 C 1058.421875 747.867188 1059.089844 747.496094 1058.210938 748.1875 C 1046.273438 745.308594 1042.070312 733.011719 1037.632812 722.460938 C 1026.40625 695.773438 1024.328125 652.828125 1034.203125 622.125 C 1036.746094 614.183594 1048.308594 589.15625 1043.632812 581.816406 C 1041.402344 574.496094 1034.035156 570.183594 1029.914062 564.65625 C 1024.824219 557.75 1019.71875 548.628906 1016.191406 540.644531 C 1007 519.847656 1002.710938 496.507812 993.042969 475.46875 C 988.417969 465.421875 980.609375 455.253906 974.179688 446.382812 C 967.070312 436.492188 959.109375 429.191406 953.601562 417.296875 C 951.640625 413.042969 948.980469 406.242188 951.886719 401.859375 C 952.027344 401.230469 952.25 400.632812 952.5625 400.066406 C 952.871094 399.5 953.253906 398.988281 953.710938 398.53125 C 954.164062 398.078125 954.675781 397.695312 955.242188 397.382812 C 955.808594 397.074219 956.40625 396.847656 957.035156 396.710938 C 962.007812 392.878906 975.867188 397.984375 981.042969 400.144531 C 994.785156 405.859375 1006.273438 411.296875 1017.921875 419.011719 C 1023.523438 422.648438 1029.171875 429.890625 1035.925781 431.882812 L 1043.632812 431.882812 C 1055.703125 434.660156 1069.226562 432.757812 1080.496094 436.175781 C 1100.433594 442.230469 1118.292969 451.664062 1134.519531 461.902344 C 1183.949219 493.109375 1224.355469 537.542969 1252 590.609375 C 1256.449219 599.140625 1258.367188 607.292969 1262.289062 616.335938 C 1270.191406 634.515625 1280.144531 653.371094 1288.011719 671.214844 C 1295.863281 689.03125 1303.5 706.992188 1314.59375 721.8125 C 1320.425781 729.59375 1342.953125 733.78125 1353.183594 738.101562 C 1360.359375 741.132812 1372.109375 744.296875 1378.90625 748.390625 C 1391.886719 756.222656 1404.464844 765.550781 1416.644531 774.132812 C 1422.730469 778.421875 1441.4375 787.824219 1442.371094 795.570312 Z M 1442.347656 795.335938 " fill-opacity="1" fill-rule="nonzero"/><path fill="#00618a" d="M 1059.089844 468.605469 C 1052.800781 468.488281 1048.359375 469.289062 1043.65625 470.320312 L 1043.65625 471.179688 L 1044.511719 471.179688 C 1047.507812 477.347656 1052.800781 481.308594 1056.511719 486.617188 L 1065.089844 504.621094 L 1065.949219 503.765625 C 1071.253906 500.019531 1073.691406 494.035156 1073.65625 484.894531 C 1071.523438 482.65625 1071.210938 479.847656 1069.367188 477.171875 C 1066.914062 473.609375 1062.09375 471.585938 1059.078125 468.589844 Z M 1059.089844 468.605469 " fill-opacity="1" fill-rule="evenodd"/><path fill="#e48e00" d="M 1422.28125 1042.414062 C 1422.28125 1064.011719 1439.34375 1078.570312 1458.429688 1078.570312 C 1477.515625 1078.570312 1494.582031 1064.011719 1494.582031 1042.414062 C 1494.582031 1020.816406 1477.515625 1006.257812 1458.429688 1006.257812 C 1439.34375 1006.257812 1422.28125 1020.816406 1422.28125 1042.414062 Z M 1486.484375 1042.414062 C 1486.484375 1058.804688 1473.953125 1071.050781 1458.417969 1071.050781 C 1442.710938 1071.050781 1430.351562 1058.804688 1430.351562 1042.414062 C 1430.351562 1026.023438 1442.695312 1013.777344 1458.417969 1013.777344 C 1473.941406 1013.777344 1486.484375 1026.023438 1486.484375 1042.414062 Z M 1468.160156 1063.050781 L 1476.253906 1063.050781 L 1464.402344 1044.929688 C 1470.761719 1044.253906 1475.574219 1041.164062 1475.574219 1033.644531 C 1475.574219 1025.253906 1470.269531 1021.792969 1460.058594 1021.792969 L 1443.953125 1021.792969 L 1443.953125 1063.058594 L 1450.898438 1063.058594 L 1450.898438 1045.21875 L 1457.355469 1045.21875 L 1468.152344 1063.058594 Z M 1450.898438 1039.417969 L 1450.898438 1027.566406 L 1458.894531 1027.566406 C 1463.039062 1027.566406 1468.058594 1028.335938 1468.058594 1033.164062 C 1468.058594 1038.945312 1463.527344 1039.433594 1458.316406 1039.433594 L 1450.898438 1039.433594 Z M 1450.898438 1039.417969 " fill-opacity="1" fill-rule="evenodd"/></svg>