<svg xmlns="http://www.w3.org/2000/svg" xmlns:xlink="http://www.w3.org/1999/xlink" width="2000" zoomAndPan="magnify" viewBox="0 0 1500 1499.999933" height="2000" preserveAspectRatio="xMidYMid meet" version="1.0"><path fill="#362701" d="M 1005.777344 671.660156 C 978.738281 671.660156 958.566406 684.945312 958.566406 716.925781 C 958.566406 740.792969 971.851562 757.738281 1004.300781 757.738281 C 1031.820312 757.738281 1050.507812 741.511719 1050.507812 715.925781 C 1050.507812 686.886719 1033.808594 671.660156 1005.777344 671.660156 Z M 951.695312 897.445312 C 945.285156 905.304688 938.90625 913.671875 938.90625 923.300781 C 938.90625 942.949219 963.960938 948.886719 998.398438 948.886719 C 1026.917969 948.886719 1065.761719 946.898438 1065.761719 920.355469 C 1065.761719 904.605469 1047.074219 903.617188 1023.453125 902.136719 L 951.871094 897.238281 Z M 1097.242188 673.121094 C 1106.070312 684.46875 1115.441406 700.171875 1115.441406 722.8125 C 1115.441406 777.390625 1072.492188 809.375 1010.710938 809.375 C 994.804688 809.375 980.886719 807.382812 971.851562 804.949219 L 955.625 830.804688 L 1003.824219 833.75 C 1088.921875 839.160156 1139.03125 841.640625 1139.03125 907.023438 C 1139.03125 963.605469 1089.402344 995.523438 1003.824219 995.523438 C 914.824219 995.523438 880.910156 972.898438 880.910156 933.867188 C 880.910156 911.75 890.773438 899.925781 907.953125 883.679688 C 891.726562 876.839844 886.320312 864.523438 886.320312 851.253906 C 886.320312 840.433594 891.726562 830.566406 900.589844 821.417969 L 931.066406 791.902344 C 906.96875 780.128906 888.753906 754.511719 888.753906 718.3125 C 888.753906 661.746094 926.132812 622.90625 1001.375 622.90625 C 1022.527344 622.90625 1035.316406 624.863281 1046.628906 627.839844 L 1142.511719 627.839844 L 1142.511719 669.636719 L 1097.257812 673.074219 M 1228.996094 583.730469 C 1201.160156 583.730469 1184.746094 567.5 1184.746094 539.433594 C 1184.746094 511.363281 1200.96875 496.152344 1228.996094 496.152344 C 1257.519531 496.152344 1273.742188 511.429688 1273.742188 539.433594 C 1273.742188 567.4375 1257.519531 583.730469 1229.015625 583.730469 Z M 1165.371094 879.335938 L 1165.371094 840.511719 L 1190.472656 837.074219 C 1197.34375 836.089844 1198.34375 834.609375 1198.34375 827.210938 L 1198.34375 682.636719 C 1198.34375 677.226562 1196.867188 673.789062 1191.933594 672.296875 L 1165.371094 662.953125 L 1170.777344 623.144531 L 1272.582031 623.144531 L 1272.582031 827.289062 C 1272.582031 835.164062 1273.058594 836.136719 1280.457031 837.15625 L 1305.507812 840.589844 L 1305.507812 879.382812 L 1165.324219 879.382812 M 1500.160156 860.289062 C 1479.003906 870.632812 1448.015625 880.179688 1419.988281 880.179688 C 1361.453125 880.179688 1339.34375 856.597656 1339.34375 800.988281 L 1339.34375 672.105469 C 1339.34375 669.160156 1339.34375 667.171875 1335.367188 667.171875 L 1301.167969 667.171875 L 1301.167969 623.414062 C 1344.433594 618.640625 1361.660156 596.84375 1367.066406 543.21875 L 1413.785156 543.21875 L 1413.785156 613.070312 C 1413.785156 616.492188 1413.785156 618.003906 1417.730469 618.003906 L 1487.082031 618.003906 L 1487.082031 667.171875 L 1413.59375 667.171875 L 1413.59375 784.519531 C 1413.59375 813.558594 1420.5 824.855469 1447 824.855469 C 1460.773438 824.855469 1474.835938 821.417969 1486.828125 816.996094 L 1500.109375 860.273438 " fill-opacity="1" fill-rule="nonzero"/><path fill="#f03c2e" d="M 666.011719 719.074219 L 371.230469 424.234375 C 354.273438 407.253906 326.738281 407.253906 309.75 424.234375 L 248.558594 485.460938 L 326.183594 563.109375 C 344.238281 557.015625 364.914062 561.121094 379.261719 575.472656 C 380.96875 577.179688 382.542969 579 383.996094 580.925781 C 385.445312 582.855469 386.753906 584.875 387.917969 586.988281 C 389.085938 589.097656 390.101562 591.28125 390.964844 593.535156 C 391.824219 595.789062 392.527344 598.09375 393.066406 600.445312 C 393.605469 602.796875 393.976562 605.171875 394.183594 607.578125 C 394.390625 609.980469 394.429688 612.386719 394.300781 614.796875 C 394.167969 617.207031 393.871094 619.597656 393.40625 621.964844 C 392.945312 624.332031 392.316406 626.65625 391.527344 628.9375 L 466.351562 703.785156 C 484.246094 697.546875 505.324219 701.605469 519.796875 716.035156 C 521.398438 717.632812 522.890625 719.328125 524.265625 721.125 C 525.644531 722.917969 526.902344 724.792969 528.035156 726.75 C 529.164062 728.710938 530.164062 730.734375 531.03125 732.824219 C 531.898438 734.914062 532.625 737.050781 533.210938 739.234375 C 533.796875 741.421875 534.238281 743.632812 534.535156 745.875 C 534.832031 748.121094 534.980469 750.371094 534.980469 752.632812 C 534.980469 754.898438 534.832031 757.148438 534.535156 759.390625 C 534.242188 761.636719 533.800781 763.847656 533.214844 766.035156 C 532.628906 768.21875 531.902344 770.355469 531.035156 772.445312 C 530.171875 774.535156 529.171875 776.5625 528.039062 778.519531 C 526.90625 780.476562 525.652344 782.355469 524.273438 784.148438 C 522.898438 785.941406 521.40625 787.640625 519.808594 789.238281 C 518.207031 790.835938 516.507812 792.324219 514.714844 793.699219 C 512.917969 795.074219 511.039062 796.324219 509.082031 797.453125 C 507.121094 798.582031 505.09375 799.578125 503.003906 800.441406 C 500.914062 801.304688 498.777344 802.027344 496.589844 802.609375 C 494.40625 803.195312 492.195312 803.636719 489.953125 803.933594 C 487.714844 804.226562 485.460938 804.375 483.203125 804.375 C 480.941406 804.375 478.691406 804.230469 476.449219 803.933594 C 474.210938 803.636719 471.996094 803.199219 469.8125 802.613281 C 467.628906 802.027344 465.496094 801.300781 463.40625 800.4375 C 461.316406 799.570312 459.296875 798.570312 457.339844 797.441406 C 455.382812 796.308594 453.507812 795.054688 451.714844 793.679688 C 449.921875 792.300781 448.226562 790.8125 446.628906 789.214844 C 431.4375 774 427.699219 751.660156 435.382812 732.933594 L 365.789062 663.320312 L 365.789062 847.019531 C 370.5625 849.46875 375.367188 852.699219 379.46875 856.804688 C 399.671875 877.011719 399.671875 909.757812 379.46875 930 C 378.273438 931.199219 377.019531 932.335938 375.710938 933.410156 C 374.402344 934.488281 373.042969 935.496094 371.632812 936.4375 C 370.226562 937.382812 368.773438 938.253906 367.28125 939.050781 C 365.785156 939.851562 364.253906 940.574219 362.691406 941.226562 C 361.125 941.875 359.53125 942.445312 357.910156 942.9375 C 356.289062 943.429688 354.648438 943.839844 352.984375 944.171875 C 351.324219 944.503906 349.648438 944.75 347.964844 944.917969 C 346.277344 945.085938 344.585938 945.167969 342.890625 945.167969 C 341.199219 945.167969 339.507812 945.085938 337.820312 944.917969 C 336.136719 944.75 334.460938 944.503906 332.800781 944.171875 C 331.136719 943.839844 329.496094 943.429688 327.875 942.9375 C 326.253906 942.445312 324.660156 941.875 323.09375 941.226562 C 321.527344 940.574219 320 939.851562 318.503906 939.050781 C 317.011719 938.253906 315.558594 937.382812 314.152344 936.4375 C 312.742188 935.496094 311.382812 934.488281 310.074219 933.410156 C 308.765625 932.335938 307.511719 931.199219 306.316406 930 C 286.113281 909.742188 286.113281 877.011719 306.316406 856.804688 C 311.210938 851.914062 316.855469 848.148438 323.253906 845.507812 L 323.253906 660.136719 C 317.289062 657.59375 311.324219 653.871094 306.316406 649 C 304.511719 647.195312 302.847656 645.269531 301.328125 643.21875 C 299.808594 641.167969 298.449219 639.015625 297.246094 636.761719 C 296.046875 634.511719 295.015625 632.183594 294.160156 629.777344 C 293.304688 627.371094 292.628906 624.917969 292.136719 622.414062 C 291.644531 619.910156 291.335938 617.382812 291.21875 614.832031 C 291.097656 612.28125 291.167969 609.738281 291.425781 607.199219 C 291.683594 604.65625 292.128906 602.152344 292.757812 599.675781 C 293.386719 597.203125 294.195312 594.789062 295.179688 592.433594 L 218.636719 515.851562 L 16.382812 717.691406 C 15.378906 718.699219 14.425781 719.753906 13.527344 720.859375 C 12.625 721.960938 11.78125 723.105469 10.992188 724.289062 C 10.203125 725.472656 9.476562 726.695312 8.804688 727.953125 C 8.136719 729.207031 7.53125 730.492188 6.988281 731.808594 C 6.445312 733.125 5.96875 734.464844 5.554688 735.828125 C 5.144531 737.191406 4.796875 738.570312 4.523438 739.96875 C 4.246094 741.363281 4.035156 742.769531 3.898438 744.1875 C 3.757812 745.605469 3.6875 747.023438 3.6875 748.449219 C 3.6875 749.871094 3.757812 751.292969 3.898438 752.707031 C 4.035156 754.125 4.246094 755.53125 4.523438 756.929688 C 4.796875 758.324219 5.144531 759.703125 5.554688 761.066406 C 5.96875 762.429688 6.445312 763.769531 6.988281 765.085938 C 7.53125 766.402344 8.136719 767.6875 8.804688 768.945312 C 9.476562 770.199219 10.203125 771.421875 10.992188 772.605469 C 11.78125 773.792969 12.625 774.933594 13.527344 776.039062 C 14.425781 777.140625 15.378906 778.195312 16.382812 779.203125 L 311.183594 1074.046875 C 328.140625 1091.023438 355.671875 1091.023438 372.660156 1074.046875 L 666.011719 780.589844 C 667.015625 779.582031 667.96875 778.523438 668.871094 777.421875 C 669.769531 776.320312 670.613281 775.175781 671.402344 773.992188 C 672.191406 772.804688 672.921875 771.585938 673.589844 770.328125 C 674.257812 769.070312 674.867188 767.785156 675.410156 766.46875 C 675.953125 765.152344 676.429688 763.816406 676.839844 762.453125 C 677.253906 761.089844 677.597656 759.710938 677.875 758.3125 C 678.152344 756.917969 678.359375 755.511719 678.5 754.09375 C 678.636719 752.675781 678.707031 751.257812 678.707031 749.832031 C 678.707031 748.410156 678.636719 746.988281 678.5 745.570312 C 678.359375 744.15625 678.152344 742.746094 677.875 741.351562 C 677.597656 739.953125 677.253906 738.574219 676.839844 737.210938 C 676.429688 735.851562 675.953125 734.511719 675.410156 733.195312 C 674.867188 731.878906 674.257812 730.59375 673.589844 729.335938 C 672.921875 728.078125 672.191406 726.859375 671.402344 725.671875 C 670.613281 724.488281 669.769531 723.34375 668.871094 722.242188 C 667.96875 721.140625 667.015625 720.085938 666.011719 719.074219 " fill-opacity="1" fill-rule="nonzero"/></svg>