<svg xmlns="http://www.w3.org/2000/svg" xmlns:xlink="http://www.w3.org/1999/xlink" width="2000" zoomAndPan="magnify" viewBox="0 0 1500 1499.999933" height="2000" preserveAspectRatio="xMidYMid meet" version="1.0"><defs><clipPath id="f6b5579f69"><path d="M 173.355469 173.355469 L 1326.855469 173.355469 L 1326.855469 1326.855469 L 173.355469 1326.855469 Z M 173.355469 173.355469 " clip-rule="nonzero"/></clipPath><clipPath id="b4746e2171"><path d="M 173.355469 248.355469 L 173.355469 1251.644531 C 173.355469 1293.066406 206.933594 1326.644531 248.355469 1326.644531 L 1251.644531 1326.644531 C 1293.066406 1326.644531 1326.644531 1293.066406 1326.644531 1251.644531 L 1326.644531 248.355469 C 1326.644531 206.933594 1293.066406 173.355469 1251.644531 173.355469 L 248.355469 173.355469 C 206.933594 173.355469 173.355469 206.933594 173.355469 248.355469 Z M 173.355469 248.355469 " clip-rule="nonzero"/></clipPath></defs><g clip-path="url(#f6b5579f69)"><g clip-path="url(#b4746e2171)"><path fill="#eee400" d="M 1057.398438 1236.417969 C 956.765625 1236.417969 891.683594 1188.433594 859.964844 1125.683594 L 948.207031 1074.558594 C 971.460938 1112.535156 1001.613281 1140.378906 1055.066406 1140.378906 C 1099.9375 1140.378906 1128.589844 1117.929688 1128.589844 1086.949219 C 1128.589844 1040.371094 1066.417969 1022.121094 1022.539062 1003.339844 C 944.332031 970.050781 892.421875 928.226562 892.421875 839.9375 C 892.421875 758.660156 954.367188 696.742188 1051.214844 696.742188 C 1120.078125 696.742188 1169.679688 720.734375 1205.253906 783.414062 L 1120.863281 837.628906 C 1102.289062 804.339844 1082.171875 791.191406 1051.191406 791.191406 C 1019.421875 791.191406 999.28125 811.332031 999.28125 837.628906 C 999.28125 870.160156 1019.398438 883.308594 1065.886719 903.449219 C 1163.289062 945.179688 1236.996094 978.011719 1236.996094 1085.402344 C 1237.042969 1183.011719 1160.402344 1236.417969 1057.398438 1236.417969 Z M 807.777344 1073.039062 C 807.777344 1185.320312 738.617188 1244.679688 642.597656 1244.679688 C 555.855469 1244.679688 503.902344 1211.503906 478.339844 1153.828125 L 476.839844 1153.828125 L 565.011719 1092.1875 C 582.039062 1122.339844 597.382812 1143.746094 634.523438 1143.746094 C 670.167969 1143.746094 692.429688 1125.707031 692.429688 1071.539062 L 692.429688 692.429688 L 807.777344 692.429688 Z M 173.355469 1326.855469 L 1326.855469 1326.855469 L 1326.855469 173.355469 L 173.355469 173.355469 Z M 173.355469 1326.855469 " fill-opacity="1" fill-rule="evenodd"/></g></g></svg>