<svg xmlns="http://www.w3.org/2000/svg" xmlns:xlink="http://www.w3.org/1999/xlink" width="2000" zoomAndPan="magnify" viewBox="0 0 1500 1499.999933" height="2000" preserveAspectRatio="xMidYMid meet" version="1.0"><defs><clipPath id="02252cbfc6"><path d="M 736 703 L 1250.53125 703 L 1250.53125 1275 L 736 1275 Z M 736 703 " clip-rule="nonzero"/></clipPath><clipPath id="481ada215b"><path d="M 249.28125 703 L 764 703 L 764 1275 L 249.28125 1275 Z M 249.28125 703 " clip-rule="nonzero"/></clipPath></defs><path fill="#c2a737" d="M 777.078125 843.898438 L 750 843.898438 C 742.792969 843.898438 736.898438 838.003906 736.898438 830.796875 C 736.898438 823.589844 742.792969 817.695312 750 817.695312 L 777.078125 817.695312 C 789.960938 817.695312 800.441406 807.210938 800.441406 794.328125 L 800.441406 783.191406 C 800.441406 775.984375 806.339844 770.089844 813.546875 770.089844 C 820.75 770.089844 826.648438 775.984375 826.648438 783.191406 L 826.648438 794.328125 C 826.648438 821.625 804.375 843.898438 777.078125 843.898438 Z M 777.078125 843.898438 " fill-opacity="1" fill-rule="nonzero"/><path fill="#c2a737" d="M 817.695312 780.789062 L 750 780.789062 C 742.792969 780.789062 736.898438 774.894531 736.898438 767.6875 C 736.898438 760.480469 742.792969 754.585938 750 754.585938 L 817.695312 754.585938 C 821.1875 754.585938 824.027344 751.746094 824.027344 748.253906 L 824.027344 730.566406 C 824.027344 727.070312 821.1875 724.234375 817.695312 724.234375 L 750 724.234375 C 742.792969 724.234375 736.898438 718.335938 736.898438 711.128906 C 736.898438 703.925781 742.792969 698.027344 750 698.027344 L 817.695312 698.027344 C 835.601562 698.027344 850.230469 712.660156 850.230469 730.566406 L 850.230469 748.253906 C 850.230469 766.378906 835.601562 780.789062 817.695312 780.789062 Z M 817.695312 780.789062 " fill-opacity="1" fill-rule="nonzero"/><path fill="#c2a737" d="M 825.554688 724.234375 C 818.347656 724.234375 812.453125 718.335938 812.453125 711.128906 L 812.453125 679.46875 C 812.453125 655.007812 822.714844 631.425781 840.839844 614.613281 C 867.917969 589.5 883.421875 553.90625 883.421875 517 C 883.421875 443.410156 823.589844 383.578125 750 383.578125 C 742.792969 383.578125 736.898438 377.683594 736.898438 370.476562 C 736.898438 363.269531 742.792969 357.375 750 357.375 C 838.003906 357.375 909.628906 429 909.628906 517 C 909.628906 561.109375 891.066406 603.691406 858.746094 633.828125 C 846.082031 645.621094 838.875 662.214844 838.875 679.46875 L 838.875 711.128906 C 838.65625 718.335938 832.761719 724.234375 825.554688 724.234375 Z M 825.554688 724.234375 " fill-opacity="1" fill-rule="nonzero"/><path fill="#c2a737" d="M 772.929688 724.234375 C 765.722656 724.234375 759.828125 718.335938 759.828125 711.128906 L 759.828125 582.511719 L 750 582.511719 C 742.792969 582.511719 736.898438 576.617188 736.898438 569.410156 C 736.898438 562.203125 742.792969 556.308594 750 556.308594 L 759.828125 556.308594 L 759.828125 546.480469 C 759.828125 527.265625 775.332031 511.761719 794.546875 511.761719 C 813.761719 511.761719 829.269531 527.265625 829.269531 546.480469 L 829.269531 547.789062 C 829.269531 567.007812 813.761719 582.511719 794.546875 582.511719 L 786.03125 582.511719 L 786.03125 711.128906 C 786.03125 718.335938 780.136719 724.234375 772.929688 724.234375 Z M 786.03125 556.308594 L 794.546875 556.308594 C 799.132812 556.308594 803.0625 552.59375 803.0625 547.789062 L 803.0625 546.480469 C 803.0625 541.894531 799.351562 537.964844 794.546875 537.964844 C 789.742188 537.964844 786.03125 541.675781 786.03125 546.480469 Z M 786.03125 556.308594 " fill-opacity="1" fill-rule="nonzero"/><path fill="#c2a737" d="M 750 1217.527344 C 748.253906 1217.527344 746.289062 1217.089844 744.539062 1216.433594 C 739.953125 1214.25 736.898438 1209.664062 736.898438 1204.425781 L 736.898438 898.054688 C 736.898438 890.847656 742.792969 884.953125 750 884.953125 C 757.207031 884.953125 763.101562 890.847656 763.101562 898.054688 L 763.101562 1176.691406 C 794.328125 1152.890625 828.394531 1134.109375 864.207031 1121.007812 C 955.484375 1087.378906 1036.28125 1097.425781 1084.757812 1103.539062 C 1112.054688 1107.03125 1139.351562 1112.273438 1165.773438 1119.480469 L 1165.773438 665.273438 C 1108.5625 652.609375 1050.910156 650.859375 993.917969 660.25 C 959.632812 665.929688 925.785156 675.535156 893.46875 689.074219 C 886.699219 691.914062 879.054688 688.636719 876.21875 682.085938 C 873.378906 675.316406 876.652344 667.675781 883.203125 664.835938 C 917.488281 650.425781 953.082031 640.160156 989.332031 634.265625 C 1052.878906 623.78125 1117.730469 626.402344 1181.496094 641.90625 C 1187.390625 643.4375 1191.539062 648.675781 1191.539062 654.574219 L 1191.539062 1136.511719 C 1191.539062 1140.660156 1189.574219 1144.589844 1186.300781 1146.992188 C 1183.023438 1149.394531 1178.65625 1150.269531 1174.726562 1148.957031 C 1144.375 1139.570312 1112.710938 1132.800781 1081.046875 1128.867188 C 1034.972656 1123.191406 958.105469 1113.582031 872.722656 1145.027344 C 831.453125 1160.3125 792.800781 1183.242188 758.078125 1213.597656 C 756.113281 1216.433594 753.058594 1217.527344 750 1217.527344 Z M 750 1217.527344 " fill-opacity="1" fill-rule="nonzero"/><g clip-path="url(#02252cbfc6)"><path fill="#c2a737" d="M 791.273438 1274.738281 L 750 1274.738281 C 742.792969 1274.738281 736.898438 1268.84375 736.898438 1261.636719 C 736.898438 1254.429688 742.792969 1248.535156 750 1248.535156 L 791.273438 1248.535156 C 804.808594 1248.535156 815.945312 1237.617188 815.945312 1223.859375 L 815.945312 1217.308594 L 750 1217.308594 C 742.792969 1217.308594 736.898438 1211.414062 736.898438 1204.207031 C 736.898438 1197 742.792969 1191.105469 750 1191.105469 L 1224.515625 1191.105469 L 1224.515625 729.472656 L 1179.09375 729.472656 C 1171.886719 729.472656 1165.992188 723.578125 1165.992188 716.371094 C 1165.992188 709.164062 1171.886719 703.269531 1179.09375 703.269531 L 1237.617188 703.269531 C 1244.824219 703.269531 1250.71875 709.164062 1250.71875 716.371094 L 1250.71875 1204.207031 C 1250.71875 1211.414062 1244.824219 1217.308594 1237.617188 1217.308594 L 842.152344 1217.308594 L 842.152344 1223.859375 C 842.152344 1252.027344 819.441406 1274.738281 791.273438 1274.738281 Z M 791.273438 1274.738281 " fill-opacity="1" fill-rule="nonzero"/></g><path fill="#c2a737" d="M 956.792969 466.121094 C 951.335938 466.121094 946.3125 462.84375 944.347656 457.386719 C 941.945312 450.617188 945.441406 442.972656 952.425781 440.570312 L 1013.351562 418.953125 C 1020.121094 416.550781 1027.765625 420.046875 1030.167969 427.03125 C 1032.570312 433.800781 1029.074219 441.445312 1022.085938 443.847656 L 961.164062 465.464844 C 959.851562 465.902344 958.324219 466.121094 956.792969 466.121094 Z M 956.792969 466.121094 " fill-opacity="1" fill-rule="nonzero"/><path fill="#c2a737" d="M 877.964844 361.960938 C 875.125 361.960938 872.285156 361.085938 869.882812 359.121094 C 864.207031 354.535156 863.332031 346.457031 867.699219 340.777344 L 907.007812 291.207031 C 911.59375 285.53125 919.671875 284.65625 925.351562 289.023438 C 931.027344 293.609375 931.902344 301.691406 927.535156 307.367188 L 888.226562 356.9375 C 885.605469 360.210938 881.894531 361.960938 877.964844 361.960938 Z M 877.964844 361.960938 " fill-opacity="1" fill-rule="nonzero"/><path fill="#c2a737" d="M 750 318.722656 C 742.792969 318.722656 736.898438 312.828125 736.898438 305.621094 L 736.898438 238.363281 C 736.898438 231.15625 742.792969 225.261719 750 225.261719 C 757.207031 225.261719 763.101562 231.15625 763.101562 238.363281 L 763.101562 305.839844 C 763.101562 312.828125 757.207031 318.722656 750 318.722656 Z M 750 318.722656 " fill-opacity="1" fill-rule="nonzero"/><path fill="#c2a737" d="M 750 843.898438 L 722.921875 843.898438 C 695.625 843.898438 673.351562 821.625 673.351562 794.328125 L 673.351562 783.191406 C 673.351562 775.984375 679.25 770.089844 686.453125 770.089844 C 693.660156 770.089844 699.558594 775.984375 699.558594 783.191406 L 699.558594 794.328125 C 699.558594 807.210938 710.039062 817.695312 722.921875 817.695312 L 750 817.695312 C 757.207031 817.695312 763.101562 823.589844 763.101562 830.796875 C 763.101562 838.003906 757.207031 843.898438 750 843.898438 Z M 750 843.898438 " fill-opacity="1" fill-rule="nonzero"/><path fill="#c2a737" d="M 750 780.789062 L 682.304688 780.789062 C 664.398438 780.789062 649.769531 766.160156 649.769531 748.253906 L 649.769531 730.566406 C 649.769531 712.660156 664.398438 698.027344 682.304688 698.027344 L 750 698.027344 C 757.207031 698.027344 763.101562 703.925781 763.101562 711.128906 C 763.101562 718.335938 757.207031 724.234375 750 724.234375 L 682.304688 724.234375 C 678.8125 724.234375 675.972656 727.070312 675.972656 730.566406 L 675.972656 748.253906 C 675.972656 751.746094 678.8125 754.585938 682.304688 754.585938 L 750 754.585938 C 757.207031 754.585938 763.101562 760.480469 763.101562 767.6875 C 763.101562 774.894531 757.207031 780.789062 750 780.789062 Z M 750 780.789062 " fill-opacity="1" fill-rule="nonzero"/><path fill="#c2a737" d="M 674.445312 724.234375 C 667.238281 724.234375 661.34375 718.335938 661.34375 711.128906 L 661.34375 679.46875 C 661.34375 662.214844 654.136719 645.621094 641.472656 633.828125 C 609.152344 603.691406 590.589844 561.109375 590.589844 517 C 590.589844 429 662.214844 357.375 750.21875 357.375 C 757.425781 357.375 763.320312 363.269531 763.320312 370.476562 C 763.320312 377.683594 757.425781 383.578125 750.21875 383.578125 C 676.628906 383.578125 616.796875 443.410156 616.796875 517 C 616.796875 553.90625 632.300781 589.5 659.378906 614.613281 C 677.285156 631.425781 687.765625 655.007812 687.765625 679.46875 L 687.765625 711.128906 C 687.546875 718.335938 681.652344 724.234375 674.445312 724.234375 Z M 674.445312 724.234375 " fill-opacity="1" fill-rule="nonzero"/><path fill="#c2a737" d="M 727.070312 724.234375 C 719.863281 724.234375 713.96875 718.335938 713.96875 711.128906 L 713.96875 582.511719 L 705.453125 582.511719 C 686.238281 582.511719 670.730469 567.007812 670.730469 547.789062 L 670.730469 546.480469 C 670.730469 527.265625 686.238281 511.761719 705.453125 511.761719 C 724.667969 511.761719 740.171875 527.265625 740.171875 546.480469 L 740.171875 556.308594 L 750 556.308594 C 757.207031 556.308594 763.101562 562.203125 763.101562 569.410156 C 763.101562 576.617188 757.207031 582.511719 750 582.511719 L 740.171875 582.511719 L 740.171875 711.128906 C 740.171875 718.335938 734.277344 724.234375 727.070312 724.234375 Z M 705.453125 538.183594 C 700.867188 538.183594 696.9375 541.894531 696.9375 546.699219 L 696.9375 548.007812 C 696.9375 552.59375 700.648438 556.527344 705.453125 556.527344 L 713.96875 556.527344 L 713.96875 546.699219 C 713.96875 541.894531 710.257812 538.183594 705.453125 538.183594 Z M 705.453125 538.183594 " fill-opacity="1" fill-rule="nonzero"/><path fill="#c2a737" d="M 750 1217.527344 C 746.941406 1217.527344 743.886719 1216.433594 741.484375 1214.25 C 706.761719 1183.898438 668.113281 1160.75 626.839844 1145.683594 C 541.457031 1114.238281 464.59375 1123.847656 418.515625 1129.523438 C 386.851562 1133.453125 355.410156 1140.222656 324.835938 1149.613281 C 320.90625 1150.925781 316.539062 1150.050781 313.261719 1147.648438 C 309.988281 1145.246094 308.023438 1141.316406 308.023438 1137.167969 L 308.023438 655.007812 C 308.023438 648.894531 312.171875 643.65625 318.066406 642.34375 C 382.050781 626.839844 446.6875 624.21875 510.230469 634.703125 C 546.480469 640.597656 582.292969 651.078125 616.359375 665.273438 C 623.128906 668.113281 626.183594 675.753906 623.347656 682.523438 C 620.507812 689.292969 612.863281 692.351562 606.09375 689.511719 C 573.777344 675.972656 539.929688 666.144531 505.644531 660.6875 C 448.871094 651.296875 391.003906 653.042969 333.789062 665.710938 L 333.789062 1119.914062 C 360.429688 1112.710938 387.507812 1107.25 414.804688 1103.976562 C 463.0625 1097.859375 544.078125 1087.816406 635.355469 1121.445312 C 671.167969 1134.546875 705.234375 1153.328125 736.460938 1177.128906 L 736.460938 898.054688 C 736.460938 890.847656 742.355469 884.953125 749.5625 884.953125 C 756.769531 884.953125 762.664062 890.847656 762.664062 898.054688 L 762.664062 1204.425781 C 762.664062 1209.664062 759.609375 1214.25 755.023438 1216.433594 C 753.710938 1217.089844 751.746094 1217.527344 750 1217.527344 Z M 750 1217.527344 " fill-opacity="1" fill-rule="nonzero"/><g clip-path="url(#481ada215b)"><path fill="#c2a737" d="M 750 1274.738281 L 708.726562 1274.738281 C 680.777344 1274.738281 657.847656 1252.027344 657.847656 1223.859375 L 657.847656 1217.308594 L 262.382812 1217.308594 C 255.175781 1217.308594 249.28125 1211.414062 249.28125 1204.207031 L 249.28125 716.371094 C 249.28125 709.164062 255.175781 703.269531 262.382812 703.269531 L 320.90625 703.269531 C 328.113281 703.269531 334.007812 709.164062 334.007812 716.371094 C 334.007812 723.578125 328.113281 729.472656 320.90625 729.472656 L 275.484375 729.472656 L 275.484375 1191.105469 L 750 1191.105469 C 757.207031 1191.105469 763.101562 1197 763.101562 1204.207031 C 763.101562 1211.414062 757.207031 1217.308594 750 1217.308594 L 684.050781 1217.308594 L 684.050781 1223.859375 C 684.050781 1237.398438 694.972656 1248.535156 708.726562 1248.535156 L 750 1248.535156 C 757.207031 1248.535156 763.101562 1254.429688 763.101562 1261.636719 C 763.101562 1268.84375 757.207031 1274.738281 750 1274.738281 Z M 750 1274.738281 " fill-opacity="1" fill-rule="nonzero"/></g><path fill="#c2a737" d="M 543.207031 466.121094 C 541.675781 466.121094 540.367188 465.902344 538.835938 465.464844 L 477.914062 443.847656 C 471.144531 441.445312 467.429688 434.019531 469.832031 427.03125 C 472.234375 420.261719 479.660156 416.550781 486.648438 418.953125 L 547.574219 440.570312 C 554.34375 442.972656 558.054688 450.398438 555.652344 457.386719 C 553.6875 462.84375 548.664062 466.121094 543.207031 466.121094 Z M 543.207031 466.121094 " fill-opacity="1" fill-rule="nonzero"/><path fill="#c2a737" d="M 622.035156 361.960938 C 618.105469 361.960938 614.394531 360.210938 611.773438 356.9375 L 572.464844 307.367188 C 567.878906 301.691406 568.972656 293.390625 574.648438 289.023438 C 580.328125 284.4375 588.625 285.53125 592.992188 291.207031 L 632.300781 340.777344 C 636.886719 346.457031 635.792969 354.753906 630.117188 359.121094 C 627.714844 361.085938 624.875 361.960938 622.035156 361.960938 Z M 622.035156 361.960938 " fill-opacity="1" fill-rule="nonzero"/><path fill="#c2a737" d="M 750 318.722656 C 742.792969 318.722656 736.898438 312.828125 736.898438 305.621094 L 736.898438 238.363281 C 736.898438 231.15625 742.792969 225.261719 750 225.261719 C 757.207031 225.261719 763.101562 231.15625 763.101562 238.363281 L 763.101562 305.839844 C 763.101562 312.828125 757.207031 318.722656 750 318.722656 Z M 750 318.722656 " fill-opacity="1" fill-rule="nonzero"/></svg>