<svg xmlns="http://www.w3.org/2000/svg" xmlns:xlink="http://www.w3.org/1999/xlink" width="2000" zoomAndPan="magnify" viewBox="0 0 1500 1499.999933" height="2000" preserveAspectRatio="xMidYMid meet" version="1.0"><path fill="#8cc84b" d="M 701.933594 192.632812 C 730.464844 176.472656 766.847656 176.398438 794.667969 192.632812 L 1220.671875 432.851562 C 1247.316406 447.835938 1265.148438 477.554688 1264.898438 508.273438 L 1264.898438 989.917969 C 1265.078125 1021.921875 1245.496094 1052.285156 1217.390625 1066.984375 L 793.667969 1306.09375 C 791.867188 1307.089844 790.035156 1308.023438 788.171875 1308.898438 C 786.308594 1309.773438 784.417969 1310.582031 782.5 1311.332031 C 780.582031 1312.078125 778.640625 1312.761719 776.675781 1313.378906 C 774.714844 1314 772.730469 1314.550781 770.730469 1315.039062 C 768.730469 1315.523438 766.71875 1315.945312 764.691406 1316.296875 C 762.660156 1316.648438 760.625 1316.933594 758.578125 1317.152344 C 756.53125 1317.367188 754.480469 1317.515625 752.421875 1317.597656 C 750.367188 1317.675781 748.308594 1317.6875 746.25 1317.632812 C 744.195312 1317.574219 742.140625 1317.449219 740.089844 1317.253906 C 738.042969 1317.0625 736 1316.800781 733.96875 1316.46875 C 731.9375 1316.140625 729.917969 1315.742188 727.914062 1315.28125 C 725.910156 1314.816406 723.921875 1314.285156 721.949219 1313.6875 C 719.980469 1313.09375 718.03125 1312.429688 716.105469 1311.703125 C 714.179688 1310.980469 712.28125 1310.1875 710.40625 1309.335938 C 708.535156 1308.484375 706.691406 1307.570312 704.878906 1306.59375 C 703.066406 1305.617188 701.289062 1304.582031 699.542969 1303.488281 L 572.390625 1229.992188 C 563.722656 1224.820312 553.988281 1220.71875 547.851562 1212.332031 C 553.273438 1205.054688 562.902344 1204.128906 570.75 1200.917969 C 588.441406 1195.28125 604.632812 1186.644531 620.898438 1177.511719 C 625 1174.660156 630.027344 1175.730469 633.953125 1178.296875 L 742.378906 1241.019531 C 750.121094 1245.476562 757.964844 1239.589844 764.601562 1235.84375 L 1180.652344 1000.980469 C 1185.789062 998.480469 1188.644531 993.058594 1188.214844 987.421875 L 1188.214844 510.414062 C 1188.785156 503.992188 1185.113281 498.140625 1179.300781 495.535156 L 756.644531 257.460938 C 756.039062 257.039062 755.40625 256.667969 754.746094 256.347656 C 754.085938 256.023438 753.402344 255.75 752.699219 255.53125 C 751.996094 255.3125 751.28125 255.144531 750.554688 255.03125 C 749.828125 254.921875 749.09375 254.863281 748.359375 254.863281 C 747.625 254.859375 746.890625 254.914062 746.164062 255.023438 C 745.433594 255.132812 744.71875 255.296875 744.015625 255.511719 C 743.3125 255.730469 742.628906 256 741.964844 256.320312 C 741.304688 256.640625 740.667969 257.007812 740.0625 257.421875 L 318.015625 496 C 312.308594 498.605469 308.382812 504.382812 309.097656 510.804688 L 309.097656 987.816406 C 308.597656 993.453125 311.59375 998.769531 316.765625 1001.195312 L 429.546875 1064.878906 C 450.730469 1076.296875 476.734375 1082.71875 500.058594 1074.332031 C 501.324219 1073.855469 502.570312 1073.332031 503.800781 1072.757812 C 505.027344 1072.1875 506.230469 1071.566406 507.410156 1070.90625 C 508.589844 1070.242188 509.742188 1069.535156 510.867188 1068.78125 C 511.996094 1068.03125 513.089844 1067.238281 514.15625 1066.402344 C 515.222656 1065.570312 516.257812 1064.695312 517.257812 1063.78125 C 518.257812 1062.871094 519.222656 1061.921875 520.148438 1060.933594 C 521.078125 1059.949219 521.964844 1058.929688 522.816406 1057.875 C 523.667969 1056.820312 524.476562 1055.738281 525.242188 1054.621094 C 526.011719 1053.507812 526.738281 1052.363281 527.417969 1051.195312 C 528.101562 1050.023438 528.734375 1048.832031 529.328125 1047.613281 C 529.917969 1046.394531 530.460938 1045.15625 530.957031 1043.894531 C 531.457031 1042.636719 531.902344 1041.359375 532.304688 1040.066406 C 532.703125 1038.773438 533.054688 1037.464844 533.355469 1036.144531 C 533.65625 1034.824219 533.90625 1033.496094 534.105469 1032.15625 C 534.304688 1030.816406 534.453125 1029.472656 534.550781 1028.121094 C 534.648438 1026.769531 534.695312 1025.417969 534.691406 1024.0625 L 534.796875 549.910156 C 534.296875 542.878906 540.933594 537.0625 547.746094 537.777344 L 601.957031 537.777344 C 609.09375 537.597656 614.691406 545.164062 613.730469 552.226562 L 613.621094 1029.378906 C 613.65625 1071.765625 596.253906 1117.859375 557.054688 1138.660156 C 508.761719 1163.632812 449.054688 1158.390625 401.332031 1134.378906 L 280.066406 1067.304688 C 251.53125 1053.035156 232.378906 1022.207031 232.558594 990.242188 L 232.558594 508.59375 C 232.570312 506.648438 232.652344 504.703125 232.796875 502.761719 C 232.9375 500.824219 233.148438 498.890625 233.417969 496.960938 C 233.691406 495.035156 234.027344 493.121094 234.429688 491.214844 C 234.828125 489.3125 235.292969 487.421875 235.816406 485.546875 C 236.34375 483.675781 236.929688 481.820312 237.578125 479.984375 C 238.226562 478.152344 238.9375 476.339844 239.707031 474.554688 C 240.476562 472.765625 241.304688 471.003906 242.1875 469.273438 C 243.074219 467.542969 244.019531 465.839844 245.019531 464.171875 C 246.015625 462.5 247.070312 460.867188 248.179688 459.265625 C 249.289062 457.667969 250.445312 456.105469 251.660156 454.585938 C 252.871094 453.0625 254.132812 451.582031 255.441406 450.144531 C 256.753906 448.703125 258.109375 447.3125 259.511719 445.964844 C 260.914062 444.617188 262.363281 443.316406 263.851562 442.0625 C 265.339844 440.8125 266.871094 439.609375 268.4375 438.460938 C 270.007812 437.308594 271.613281 436.214844 273.257812 435.171875 C 274.898438 434.128906 276.574219 433.140625 278.28125 432.207031 Z M 824.769531 526.503906 C 886.367188 522.9375 952.316406 524.148438 1007.742188 554.511719 C 1050.648438 577.773438 1074.4375 626.578125 1075.222656 674.316406 C 1074.011719 680.738281 1067.304688 684.304688 1061.171875 683.84375 C 1043.335938 683.804688 1025.433594 684.089844 1007.527344 683.734375 C 999.929688 684.019531 995.542969 677.027344 994.582031 670.320312 C 989.445312 647.488281 976.996094 624.902344 955.523438 613.878906 C 922.570312 597.359375 884.332031 598.179688 848.382812 598.535156 C 822.128906 599.964844 793.917969 602.210938 771.699219 617.625 C 754.578125 629.328125 749.441406 653.300781 755.539062 671.925781 C 761.246094 685.589844 777.046875 689.976562 789.921875 694.046875 C 864.183594 713.453125 942.828125 711.882812 1015.695312 737.109375 C 1045.832031 747.527344 1075.332031 767.792969 1085.671875 799.367188 C 1099.15625 841.679688 1093.269531 892.269531 1063.203125 926.234375 C 1038.808594 954.207031 1003.28125 969.046875 967.792969 977.683594 C 920.605469 988.207031 871.671875 988.457031 823.773438 983.746094 C 778.722656 978.609375 731.859375 966.765625 697.082031 936.082031 C 667.335938 910.25 652.855469 870.007812 654.28125 831.191406 C 654.640625 824.625 661.167969 820.058594 667.480469 820.59375 L 720.980469 820.59375 C 728.183594 820.09375 733.464844 826.300781 733.820312 833.082031 C 737.136719 854.488281 745.304688 877.679688 764.277344 890.164062 C 800.875 913.785156 846.777344 912.140625 888.648438 912.820312 C 923.351562 911.285156 962.300781 910.824219 990.65625 887.847656 C 1005.636719 874.753906 1010.023438 852.882812 1005.992188 834.042969 C 1001.605469 818.132812 984.59375 810.746094 970.328125 805.503906 C 897.03125 782.3125 817.492188 790.730469 744.910156 764.472656 C 715.449219 754.054688 686.953125 734.359375 675.648438 704.070312 C 659.847656 661.257812 667.085938 608.207031 700.363281 575.382812 C 732.464844 542.738281 779.542969 530.144531 824.128906 525.648438 Z M 824.769531 526.503906 " fill-opacity="1" fill-rule="nonzero"/></svg>