<svg xmlns="http://www.w3.org/2000/svg" xmlns:xlink="http://www.w3.org/1999/xlink" width="2000" zoomAndPan="magnify" viewBox="0 0 1500 1499.999933" height="2000" preserveAspectRatio="xMidYMid meet" version="1.0"><defs><clipPath id="be828abf28"><path d="M 69 434.285156 L 1431 434.285156 L 1431 1001.285156 L 69 1001.285156 Z M 69 434.285156 " clip-rule="nonzero"/></clipPath><clipPath id="a5f847f85c"><path d="M 457 434.285156 L 543 434.285156 L 543 948 L 457 948 Z M 457 434.285156 " clip-rule="nonzero"/></clipPath><clipPath id="beed20cc8e"><path d="M 846 434.285156 L 932 434.285156 L 932 948 L 846 948 Z M 846 434.285156 " clip-rule="nonzero"/></clipPath></defs><g clip-path="url(#be828abf28)"><path fill="#f03c2e" d="M 722.265625 1001.402344 L 500.351562 1001.402344 C 476.875 1001.402344 457.820312 982.347656 457.820312 958.867188 L 457.820312 947.867188 L 111.992188 947.867188 C 88.511719 947.867188 69.457031 928.8125 69.457031 905.332031 L 69.457031 476.816406 C 69.457031 453.339844 88.511719 434.285156 111.992188 434.285156 L 1388.003906 434.285156 C 1411.484375 434.285156 1430.539062 453.339844 1430.539062 476.816406 L 1430.539062 905.332031 C 1430.539062 928.8125 1411.484375 947.867188 1388.003906 947.867188 L 764.800781 947.867188 L 764.800781 958.867188 C 764.800781 982.347656 745.746094 1001.402344 722.265625 1001.402344 Z M 542.886719 916.335938 L 679.730469 916.335938 L 679.730469 905.332031 C 679.730469 881.851562 698.789062 862.796875 722.265625 862.796875 L 1345.472656 862.796875 L 1345.472656 519.351562 L 154.523438 519.351562 L 154.523438 862.796875 L 500.351562 862.796875 C 523.832031 862.796875 542.886719 881.851562 542.886719 905.332031 Z M 542.886719 916.335938 " fill-opacity="1" fill-rule="nonzero"/></g><g clip-path="url(#a5f847f85c)"><path fill="#f03c2e" d="M 500.351562 947.867188 C 476.875 947.867188 457.820312 928.8125 457.820312 905.332031 L 457.820312 476.816406 C 457.820312 453.339844 476.875 434.285156 500.351562 434.285156 C 523.832031 434.285156 542.886719 453.339844 542.886719 476.816406 L 542.886719 905.332031 C 542.886719 928.8125 523.832031 947.867188 500.351562 947.867188 Z M 500.351562 947.867188 " fill-opacity="1" fill-rule="nonzero"/></g><g clip-path="url(#beed20cc8e)"><path fill="#f03c2e" d="M 888.714844 947.867188 C 865.238281 947.867188 846.179688 928.8125 846.179688 905.332031 L 846.179688 476.816406 C 846.179688 453.339844 865.238281 434.285156 888.714844 434.285156 C 912.195312 434.285156 931.25 453.339844 931.25 476.816406 L 931.25 905.332031 C 931.25 928.8125 912.195312 947.867188 888.714844 947.867188 Z M 888.714844 947.867188 " fill-opacity="1" fill-rule="nonzero"/></g><path fill="#f03c2e" d="M 1055.105469 947.867188 C 1031.628906 947.867188 1012.574219 928.8125 1012.574219 905.332031 L 1012.574219 637.484375 C 1012.574219 614.003906 1031.628906 594.949219 1055.105469 594.949219 C 1078.585938 594.949219 1097.640625 614.003906 1097.640625 637.484375 L 1097.640625 905.332031 C 1097.640625 928.8125 1078.585938 947.867188 1055.105469 947.867188 Z M 1055.105469 947.867188 " fill-opacity="1" fill-rule="nonzero"/><path fill="#f03c2e" d="M 333.90625 947.867188 C 310.425781 947.867188 291.371094 928.8125 291.371094 905.332031 L 291.371094 637.484375 C 291.371094 614.003906 310.425781 594.949219 333.90625 594.949219 C 357.382812 594.949219 376.4375 614.003906 376.4375 637.484375 L 376.4375 905.332031 C 376.4375 928.8125 357.382812 947.867188 333.90625 947.867188 Z M 333.90625 947.867188 " fill-opacity="1" fill-rule="nonzero"/><path fill="#f03c2e" d="M 1221.554688 947.867188 C 1198.078125 947.867188 1179.023438 928.8125 1179.023438 905.332031 L 1179.023438 637.484375 C 1179.023438 614.003906 1198.078125 594.949219 1221.554688 594.949219 C 1245.035156 594.949219 1264.089844 614.003906 1264.089844 637.484375 L 1264.089844 905.332031 C 1264.089844 928.8125 1245.035156 947.867188 1221.554688 947.867188 Z M 1221.554688 947.867188 " fill-opacity="1" fill-rule="nonzero"/><path fill="#f03c2e" d="M 722.265625 787.203125 C 698.789062 787.203125 679.730469 768.144531 679.730469 744.667969 L 679.730469 637.484375 C 679.730469 614.003906 698.789062 594.949219 722.265625 594.949219 C 745.746094 594.949219 764.800781 614.003906 764.800781 637.484375 L 764.800781 744.667969 C 764.800781 768.144531 745.746094 787.203125 722.265625 787.203125 Z M 722.265625 787.203125 " fill-opacity="1" fill-rule="nonzero"/></svg>