<svg xmlns="http://www.w3.org/2000/svg" xmlns:xlink="http://www.w3.org/1999/xlink" width="2000" zoomAndPan="magnify" viewBox="0 0 1500 1499.999933" height="2000" preserveAspectRatio="xMidYMid meet" version="1.0"><defs><clipPath id="9e23e9623f"><path d="M 221.917969 275 L 1277.917969 275 L 1277.917969 1225 L 221.917969 1225 Z M 221.917969 275 " clip-rule="nonzero"/></clipPath></defs><path fill="#231f20" d="M 967.046875 769.484375 C 966.4375 769.484375 965.832031 769.515625 965.230469 769.574219 C 964.625 769.632812 964.027344 769.722656 963.429688 769.84375 C 962.835938 769.964844 962.25 770.113281 961.667969 770.289062 C 961.085938 770.46875 960.515625 770.671875 959.957031 770.90625 C 959.398438 771.140625 958.851562 771.402344 958.316406 771.691406 C 957.78125 771.980469 957.265625 772.296875 956.761719 772.636719 C 956.257812 772.976562 955.773438 773.339844 955.308594 773.730469 C 954.839844 774.117188 954.394531 774.527344 953.96875 774.960938 C 953.542969 775.390625 953.136719 775.84375 952.757812 776.316406 C 952.375 776.789062 952.019531 777.28125 951.6875 777.789062 C 951.355469 778.296875 951.046875 778.820312 950.769531 779.359375 C 950.488281 779.898438 950.234375 780.449219 950.007812 781.011719 C 949.78125 781.574219 949.585938 782.148438 949.417969 782.730469 C 949.246094 783.3125 949.109375 783.90625 948.996094 784.5 C 948.886719 785.097656 948.804688 785.699219 948.753906 786.304688 C 948.703125 786.910156 948.683594 787.515625 948.695312 788.121094 L 948.695312 1045.101562 C 948.613281 1045.757812 948.566406 1046.414062 948.554688 1047.070312 C 948.542969 1047.730469 948.566406 1048.386719 948.625 1049.042969 C 948.683594 1049.699219 948.777344 1050.347656 948.902344 1050.996094 C 949.03125 1051.640625 949.191406 1052.277344 949.386719 1052.90625 C 949.582031 1053.535156 949.808594 1054.152344 950.070312 1054.757812 C 950.328125 1055.363281 950.621094 1055.953125 950.941406 1056.527344 C 951.265625 1057.097656 951.617188 1057.65625 952 1058.191406 C 952.378906 1058.726562 952.789062 1059.242188 953.222656 1059.734375 C 953.660156 1060.230469 954.121094 1060.699219 954.605469 1061.144531 C 955.09375 1061.585938 955.601562 1062.003906 956.128906 1062.394531 C 956.660156 1062.785156 957.207031 1063.148438 957.777344 1063.480469 C 958.34375 1063.8125 958.929688 1064.113281 959.53125 1064.386719 C 960.128906 1064.65625 960.742188 1064.894531 961.367188 1065.097656 C 961.992188 1065.304688 962.628906 1065.476562 963.269531 1065.617188 C 963.914062 1065.753906 964.5625 1065.859375 965.21875 1065.925781 C 965.871094 1065.996094 966.53125 1066.03125 967.1875 1066.03125 C 967.847656 1066.03125 968.503906 1065.996094 969.15625 1065.925781 C 969.8125 1065.859375 970.460938 1065.753906 971.105469 1065.617188 C 971.746094 1065.476562 972.382812 1065.304688 973.007812 1065.097656 C 973.632812 1064.894531 974.246094 1064.65625 974.847656 1064.386719 C 975.445312 1064.113281 976.03125 1063.8125 976.597656 1063.480469 C 977.167969 1063.148438 977.714844 1062.785156 978.246094 1062.394531 C 978.773438 1062.003906 979.28125 1061.585938 979.769531 1061.144531 C 980.253906 1060.699219 980.714844 1060.230469 981.152344 1059.734375 C 981.585938 1059.242188 981.996094 1058.726562 982.375 1058.191406 C 982.757812 1057.65625 983.109375 1057.097656 983.433594 1056.527344 C 983.753906 1055.953125 984.046875 1055.363281 984.304688 1054.757812 C 984.566406 1054.152344 984.792969 1053.535156 984.988281 1052.90625 C 985.183594 1052.277344 985.34375 1051.640625 985.472656 1050.996094 C 985.597656 1050.347656 985.691406 1049.699219 985.75 1049.042969 C 985.808594 1048.386719 985.832031 1047.730469 985.820312 1047.070312 C 985.808594 1046.414062 985.761719 1045.757812 985.683594 1045.101562 L 985.683594 788.121094 C 985.691406 787.507812 985.671875 786.898438 985.617188 786.285156 C 985.566406 785.675781 985.484375 785.070312 985.371094 784.464844 C 985.257812 783.863281 985.117188 783.269531 984.945312 782.679688 C 984.773438 782.089844 984.570312 781.511719 984.339844 780.945312 C 984.109375 780.375 983.851562 779.820312 983.566406 779.277344 C 983.28125 778.738281 982.96875 778.210938 982.628906 777.699219 C 982.292969 777.1875 981.929688 776.695312 981.539062 776.21875 C 981.152344 775.746094 980.742188 775.292969 980.308594 774.859375 C 979.875 774.425781 979.421875 774.015625 978.945312 773.625 C 978.472656 773.238281 977.980469 772.875 977.46875 772.535156 C 976.957031 772.199219 976.429688 771.886719 975.886719 771.597656 C 975.347656 771.3125 974.789062 771.054688 974.222656 770.824219 C 973.65625 770.59375 973.078125 770.394531 972.488281 770.222656 C 971.898438 770.050781 971.304688 769.90625 970.703125 769.792969 C 970.097656 769.679688 969.492188 769.597656 968.882812 769.546875 C 968.269531 769.496094 967.660156 769.472656 967.046875 769.484375 Z M 967.046875 769.484375 " fill-opacity="1" fill-rule="nonzero"/><g clip-path="url(#9e23e9623f)"><path fill="#231f20" d="M 1198.292969 275.570312 L 443.28125 275.570312 C 441.988281 275.570312 440.699219 275.605469 439.40625 275.667969 C 438.117188 275.730469 436.828125 275.828125 435.542969 275.953125 C 434.257812 276.082031 432.976562 276.238281 431.695312 276.429688 C 430.417969 276.617188 429.144531 276.839844 427.878906 277.09375 C 426.613281 277.34375 425.351562 277.628906 424.097656 277.945312 C 422.84375 278.257812 421.601562 278.605469 420.363281 278.980469 C 419.128906 279.355469 417.902344 279.761719 416.683594 280.199219 C 415.46875 280.636719 414.261719 281.101562 413.070312 281.597656 C 411.875 282.09375 410.695312 282.617188 409.527344 283.171875 C 408.359375 283.722656 407.207031 284.304688 406.070312 284.917969 C 404.929688 285.527344 403.808594 286.164062 402.699219 286.832031 C 401.589844 287.496094 400.5 288.191406 399.425781 288.910156 C 398.355469 289.628906 397.300781 290.375 396.261719 291.144531 C 395.226562 291.917969 394.207031 292.714844 393.210938 293.535156 C 392.214844 294.355469 391.238281 295.203125 390.28125 296.070312 C 389.324219 296.941406 388.390625 297.832031 387.476562 298.75 C 386.566406 299.664062 385.675781 300.601562 384.8125 301.5625 C 383.945312 302.519531 383.105469 303.5 382.285156 304.5 C 381.46875 305.5 380.675781 306.519531 379.90625 307.5625 C 379.140625 308.601562 378.398438 309.660156 377.683594 310.734375 C 376.96875 311.8125 376.277344 312.902344 375.617188 314.015625 C 374.957031 315.125 374.320312 316.25 373.714844 317.390625 C 373.109375 318.53125 372.53125 319.6875 371.980469 320.859375 C 371.433594 322.027344 370.910156 323.210938 370.421875 324.40625 C 369.929688 325.601562 369.46875 326.808594 369.035156 328.027344 C 368.605469 329.242188 368.203125 330.472656 367.832031 331.710938 C 367.460938 332.945312 367.117188 334.191406 366.808594 335.449219 C 366.496094 336.703125 366.21875 337.964844 365.972656 339.230469 C 365.722656 340.5 365.503906 341.773438 365.320312 343.054688 C 365.136719 344.332031 364.980469 345.613281 364.859375 346.902344 C 364.738281 348.1875 364.644531 349.476562 364.585938 350.769531 C 364.527344 352.058594 364.5 353.351562 364.503906 354.644531 L 364.503906 493.582031 L 300.976562 493.582031 C 299.683594 493.582031 298.390625 493.613281 297.097656 493.679688 C 295.804688 493.742188 294.515625 493.835938 293.226562 493.964844 C 291.9375 494.089844 290.65625 494.25 289.375 494.4375 C 288.097656 494.628906 286.820312 494.847656 285.550781 495.101562 C 284.285156 495.355469 283.019531 495.636719 281.765625 495.953125 C 280.511719 496.265625 279.265625 496.613281 278.027344 496.988281 C 276.789062 497.363281 275.558594 497.769531 274.34375 498.203125 C 273.125 498.640625 271.917969 499.105469 270.722656 499.601562 C 269.527344 500.097656 268.34375 500.621094 267.175781 501.175781 C 266.003906 501.726562 264.847656 502.308594 263.707031 502.917969 C 262.566406 503.527344 261.441406 504.167969 260.332031 504.832031 C 259.222656 505.496094 258.128906 506.1875 257.054688 506.910156 C 255.976562 507.628906 254.917969 508.371094 253.878906 509.144531 C 252.839844 509.914062 251.820312 510.710938 250.820312 511.53125 C 249.820312 512.351562 248.84375 513.195312 247.882812 514.066406 C 246.925781 514.933594 245.988281 515.828125 245.074219 516.742188 C 244.15625 517.65625 243.265625 518.59375 242.398438 519.550781 C 241.527344 520.511719 240.683594 521.492188 239.863281 522.492188 C 239.042969 523.492188 238.246094 524.511719 237.476562 525.550781 C 236.703125 526.589844 235.960938 527.648438 235.242188 528.722656 C 234.523438 529.800781 233.832031 530.894531 233.164062 532.003906 C 232.5 533.113281 231.863281 534.238281 231.253906 535.378906 C 230.640625 536.519531 230.0625 537.675781 229.507812 538.847656 C 228.953125 540.015625 228.429688 541.199219 227.933594 542.394531 C 227.441406 543.589844 226.972656 544.796875 226.539062 546.015625 C 226.101562 547.234375 225.695312 548.460938 225.320312 549.699219 C 224.945312 550.9375 224.601562 552.1875 224.285156 553.441406 C 223.972656 554.695312 223.6875 555.957031 223.4375 557.226562 C 223.183594 558.496094 222.960938 559.769531 222.773438 561.050781 C 222.582031 562.332031 222.425781 563.617188 222.296875 564.902344 C 222.171875 566.191406 222.074219 567.480469 222.011719 568.773438 C 221.949219 570.066406 221.917969 571.359375 221.917969 572.652344 L 221.917969 1145.636719 C 221.917969 1146.929688 221.949219 1148.21875 222.011719 1149.511719 C 222.074219 1150.800781 222.171875 1152.089844 222.296875 1153.375 C 222.425781 1154.664062 222.582031 1155.945312 222.773438 1157.222656 C 222.964844 1158.5 223.183594 1159.773438 223.4375 1161.042969 C 223.691406 1162.308594 223.972656 1163.570312 224.289062 1164.824219 C 224.601562 1166.078125 224.949219 1167.320312 225.324219 1168.558594 C 225.699219 1169.796875 226.105469 1171.019531 226.542969 1172.238281 C 226.980469 1173.453125 227.445312 1174.660156 227.941406 1175.851562 C 228.4375 1177.046875 228.960938 1178.226562 229.515625 1179.394531 C 230.066406 1180.5625 230.648438 1181.714844 231.261719 1182.855469 C 231.871094 1183.996094 232.507812 1185.117188 233.175781 1186.226562 C 233.839844 1187.332031 234.53125 1188.421875 235.253906 1189.496094 C 235.972656 1190.570312 236.714844 1191.625 237.488281 1192.664062 C 238.257812 1193.699219 239.054688 1194.71875 239.875 1195.714844 C 240.699219 1196.714844 241.542969 1197.691406 242.414062 1198.644531 C 243.28125 1199.601562 244.175781 1200.535156 245.089844 1201.449219 C 246.003906 1202.359375 246.941406 1203.25 247.902344 1204.117188 C 248.859375 1204.980469 249.839844 1205.824219 250.839844 1206.640625 C 251.839844 1207.460938 252.863281 1208.253906 253.902344 1209.019531 C 254.941406 1209.789062 256 1210.53125 257.074219 1211.246094 C 258.152344 1211.960938 259.242188 1212.648438 260.351562 1213.3125 C 261.464844 1213.972656 262.589844 1214.605469 263.730469 1215.214844 C 264.871094 1215.820312 266.027344 1216.398438 267.195312 1216.949219 C 268.367188 1217.496094 269.546875 1218.019531 270.742188 1218.507812 C 271.9375 1219 273.144531 1219.460938 274.363281 1219.894531 C 275.582031 1220.324219 276.808594 1220.726562 278.046875 1221.097656 C 279.28125 1221.472656 280.527344 1221.8125 281.785156 1222.121094 C 283.039062 1222.433594 284.300781 1222.710938 285.566406 1222.960938 C 286.835938 1223.207031 288.109375 1223.425781 289.386719 1223.609375 C 290.667969 1223.796875 291.949219 1223.949219 293.234375 1224.070312 C 294.523438 1224.195312 295.8125 1224.285156 297.101562 1224.34375 C 298.390625 1224.402344 299.683594 1224.429688 300.976562 1224.425781 L 1055.988281 1224.425781 C 1057.277344 1224.425781 1058.566406 1224.394531 1059.851562 1224.332031 C 1061.140625 1224.265625 1062.425781 1224.171875 1063.710938 1224.046875 C 1064.992188 1223.917969 1066.269531 1223.761719 1067.546875 1223.574219 C 1068.820312 1223.382812 1070.089844 1223.164062 1071.355469 1222.910156 C 1072.621094 1222.660156 1073.878906 1222.378906 1075.128906 1222.0625 C 1076.378906 1221.75 1077.621094 1221.40625 1078.855469 1221.03125 C 1080.089844 1220.660156 1081.3125 1220.253906 1082.527344 1219.820312 C 1083.742188 1219.386719 1084.941406 1218.921875 1086.132812 1218.429688 C 1087.324219 1217.933594 1088.503906 1217.410156 1089.667969 1216.859375 C 1090.835938 1216.308594 1091.984375 1215.730469 1093.121094 1215.121094 C 1094.257812 1214.515625 1095.382812 1213.878906 1096.488281 1213.214844 C 1097.59375 1212.554688 1098.679688 1211.863281 1099.753906 1211.148438 C 1100.824219 1210.429688 1101.878906 1209.6875 1102.914062 1208.921875 C 1103.949219 1208.152344 1104.964844 1207.359375 1105.964844 1206.539062 C 1106.960938 1205.722656 1107.933594 1204.882812 1108.890625 1204.015625 C 1109.847656 1203.148438 1110.78125 1202.261719 1111.691406 1201.347656 C 1112.601562 1200.4375 1113.492188 1199.503906 1114.355469 1198.546875 C 1115.222656 1197.59375 1116.066406 1196.617188 1116.882812 1195.621094 C 1117.699219 1194.621094 1118.492188 1193.605469 1119.261719 1192.570312 C 1120.03125 1191.535156 1120.773438 1190.480469 1121.488281 1189.410156 C 1122.203125 1188.335938 1122.894531 1187.25 1123.554688 1186.140625 C 1124.21875 1185.035156 1124.855469 1183.914062 1125.460938 1182.777344 C 1126.070312 1181.640625 1126.648438 1180.488281 1127.199219 1179.324219 C 1127.753906 1178.15625 1128.273438 1176.980469 1128.769531 1175.789062 C 1129.261719 1174.597656 1129.726562 1173.394531 1130.160156 1172.179688 C 1130.59375 1170.964844 1130.996094 1169.742188 1131.371094 1168.507812 C 1131.746094 1167.273438 1132.089844 1166.03125 1132.402344 1164.78125 C 1132.714844 1163.53125 1133 1162.273438 1133.25 1161.007812 C 1133.5 1159.742188 1133.722656 1158.472656 1133.910156 1157.195312 C 1134.101562 1155.921875 1134.257812 1154.640625 1134.382812 1153.359375 C 1134.511719 1152.074219 1134.605469 1150.789062 1134.667969 1149.503906 C 1134.730469 1148.214844 1134.765625 1146.925781 1134.765625 1145.636719 L 1134.765625 1006.414062 L 1198.292969 1006.414062 C 1199.585938 1006.414062 1200.878906 1006.382812 1202.171875 1006.320312 C 1203.464844 1006.257812 1204.753906 1006.160156 1206.042969 1006.035156 C 1207.332031 1005.90625 1208.613281 1005.75 1209.894531 1005.558594 C 1211.171875 1005.371094 1212.449219 1005.148438 1213.71875 1004.894531 C 1214.984375 1004.644531 1216.25 1004.359375 1217.503906 1004.046875 C 1218.757812 1003.730469 1220.003906 1003.386719 1221.242188 1003.011719 C 1222.480469 1002.632812 1223.710938 1002.230469 1224.925781 1001.792969 C 1226.144531 1001.355469 1227.351562 1000.890625 1228.546875 1000.394531 C 1229.742188 999.902344 1230.925781 999.375 1232.09375 998.824219 C 1233.265625 998.269531 1234.421875 997.6875 1235.5625 997.078125 C 1236.703125 996.46875 1237.828125 995.832031 1238.9375 995.164062 C 1240.046875 994.5 1241.140625 993.808594 1242.214844 993.089844 C 1243.292969 992.371094 1244.351562 991.625 1245.390625 990.855469 C 1246.429688 990.082031 1247.449219 989.289062 1248.449219 988.464844 C 1249.449219 987.644531 1250.425781 986.800781 1251.386719 985.933594 C 1252.34375 985.0625 1253.28125 984.171875 1254.195312 983.253906 C 1255.113281 982.339844 1256.003906 981.402344 1256.871094 980.445312 C 1257.742188 979.484375 1258.585938 978.507812 1259.40625 977.507812 C 1260.226562 976.503906 1261.023438 975.484375 1261.792969 974.445312 C 1262.566406 973.40625 1263.308594 972.347656 1264.027344 971.273438 C 1264.746094 970.199219 1265.4375 969.105469 1266.105469 967.996094 C 1266.769531 966.882812 1267.40625 965.757812 1268.015625 964.617188 C 1268.628906 963.476562 1269.207031 962.320312 1269.761719 961.152344 C 1270.316406 959.980469 1270.839844 958.796875 1271.335938 957.601562 C 1271.828125 956.40625 1272.296875 955.199219 1272.730469 953.980469 C 1273.167969 952.765625 1273.574219 951.535156 1273.949219 950.296875 C 1274.324219 949.058594 1274.667969 947.8125 1274.984375 946.554688 C 1275.296875 945.300781 1275.582031 944.039062 1275.832031 942.769531 C 1276.085938 941.5 1276.304688 940.226562 1276.496094 938.945312 C 1276.6875 937.667969 1276.84375 936.382812 1276.972656 935.09375 C 1277.097656 933.804688 1277.195312 932.515625 1277.257812 931.222656 C 1277.320312 929.929688 1277.351562 928.636719 1277.351562 927.34375 L 1277.351562 354.644531 C 1277.351562 353.347656 1277.320312 352.054688 1277.257812 350.761719 C 1277.195312 349.472656 1277.097656 348.179688 1276.972656 346.894531 C 1276.84375 345.605469 1276.6875 344.320312 1276.496094 343.042969 C 1276.308594 341.761719 1276.085938 340.488281 1275.832031 339.21875 C 1275.582031 337.949219 1275.296875 336.6875 1274.984375 335.429688 C 1274.667969 334.175781 1274.324219 332.929688 1273.949219 331.691406 C 1273.574219 330.453125 1273.167969 329.222656 1272.730469 328.003906 C 1272.292969 326.785156 1271.828125 325.578125 1271.335938 324.382812 C 1270.839844 323.1875 1270.316406 322.003906 1269.761719 320.835938 C 1269.207031 319.667969 1268.628906 318.511719 1268.015625 317.371094 C 1267.40625 316.226562 1266.769531 315.101562 1266.105469 313.992188 C 1265.4375 312.882812 1264.746094 311.789062 1264.027344 310.714844 C 1263.308594 309.636719 1262.566406 308.582031 1261.792969 307.539062 C 1261.023438 306.5 1260.226562 305.480469 1259.40625 304.480469 C 1258.585938 303.480469 1257.742188 302.5 1256.871094 301.542969 C 1256.003906 300.582031 1255.113281 299.648438 1254.195312 298.730469 C 1253.28125 297.816406 1252.34375 296.925781 1251.386719 296.054688 C 1250.425781 295.1875 1249.449219 294.339844 1248.449219 293.519531 C 1247.449219 292.699219 1246.429688 291.902344 1245.390625 291.132812 C 1244.347656 290.363281 1243.292969 289.617188 1242.214844 288.898438 C 1241.140625 288.179688 1240.046875 287.488281 1238.9375 286.820312 C 1237.828125 286.15625 1236.703125 285.519531 1235.5625 284.910156 C 1234.421875 284.296875 1233.265625 283.71875 1232.09375 283.164062 C 1230.925781 282.609375 1229.742188 282.085938 1228.546875 281.589844 C 1227.351562 281.097656 1226.144531 280.628906 1224.925781 280.195312 C 1223.710938 279.757812 1222.480469 279.351562 1221.242188 278.976562 C 1220.003906 278.601562 1218.757812 278.257812 1217.503906 277.941406 C 1216.25 277.628906 1214.984375 277.34375 1213.71875 277.089844 C 1212.449219 276.839844 1211.171875 276.617188 1209.894531 276.429688 C 1208.613281 276.238281 1207.332031 276.078125 1206.042969 275.953125 C 1204.753906 275.824219 1203.464844 275.730469 1202.171875 275.667969 C 1200.878906 275.605469 1199.585938 275.570312 1198.292969 275.570312 Z M 1057.117188 1187.429688 L 300.976562 1187.429688 C 299.605469 1187.429688 298.242188 1187.363281 296.878906 1187.230469 C 295.519531 1187.097656 294.164062 1186.894531 292.824219 1186.628906 C 291.480469 1186.359375 290.15625 1186.027344 288.84375 1185.632812 C 287.535156 1185.234375 286.25 1184.773438 284.984375 1184.25 C 283.71875 1183.726562 282.484375 1183.140625 281.277344 1182.496094 C 280.070312 1181.851562 278.898438 1181.148438 277.757812 1180.386719 C 276.621094 1179.628906 275.523438 1178.8125 274.464844 1177.945312 C 273.40625 1177.074219 272.394531 1176.15625 271.425781 1175.191406 C 270.460938 1174.222656 269.542969 1173.210938 268.671875 1172.152344 C 267.804688 1171.09375 266.992188 1169.996094 266.230469 1168.855469 C 265.46875 1167.71875 264.765625 1166.546875 264.121094 1165.339844 C 263.476562 1164.132812 262.890625 1162.894531 262.367188 1161.628906 C 261.84375 1160.367188 261.382812 1159.078125 260.988281 1157.769531 C 260.589844 1156.460938 260.257812 1155.132812 259.992188 1153.789062 C 259.722656 1152.449219 259.523438 1151.09375 259.390625 1149.734375 C 259.253906 1148.371094 259.1875 1147.003906 259.1875 1145.636719 L 259.1875 572.652344 C 259.148438 571.261719 259.183594 569.871094 259.285156 568.480469 C 259.382812 567.09375 259.554688 565.710938 259.792969 564.339844 C 260.035156 562.96875 260.339844 561.613281 260.714844 560.269531 C 261.089844 558.929688 261.53125 557.609375 262.039062 556.3125 C 262.546875 555.015625 263.117188 553.746094 263.75 552.507812 C 264.382812 551.265625 265.078125 550.058594 265.832031 548.890625 C 266.585938 547.71875 267.394531 546.589844 268.261719 545.5 C 269.128906 544.410156 270.050781 543.363281 271.019531 542.367188 C 271.992188 541.371094 273.011719 540.421875 274.078125 539.527344 C 275.144531 538.628906 276.25 537.789062 277.402344 537.003906 C 278.550781 536.21875 279.738281 535.492188 280.960938 534.828125 C 282.183594 534.160156 283.4375 533.554688 284.71875 533.015625 C 286.003906 532.472656 287.308594 531.996094 288.640625 531.585938 C 289.96875 531.175781 291.316406 530.832031 292.683594 530.558594 C 294.046875 530.28125 295.421875 530.074219 296.808594 529.9375 C 298.195312 529.796875 299.582031 529.730469 300.976562 529.730469 L 1055.988281 529.730469 C 1057.367188 529.746094 1058.746094 529.832031 1060.117188 529.988281 C 1061.488281 530.144531 1062.851562 530.363281 1064.199219 530.65625 C 1065.550781 530.945312 1066.882812 531.300781 1068.199219 531.722656 C 1069.511719 532.144531 1070.804688 532.628906 1072.070312 533.179688 C 1073.335938 533.726562 1074.574219 534.339844 1075.78125 535.011719 C 1076.984375 535.683594 1078.15625 536.414062 1079.289062 537.203125 C 1080.421875 537.992188 1081.515625 538.832031 1082.566406 539.730469 C 1083.617188 540.625 1084.621094 541.570312 1085.574219 542.566406 C 1086.53125 543.5625 1087.4375 544.605469 1088.289062 545.691406 C 1089.144531 546.777344 1089.941406 547.902344 1090.683594 549.066406 C 1091.425781 550.230469 1092.109375 551.429688 1092.730469 552.664062 C 1093.355469 553.894531 1093.914062 555.15625 1094.414062 556.441406 C 1094.910156 557.730469 1095.34375 559.039062 1095.710938 560.371094 C 1096.082031 561.703125 1096.382812 563.046875 1096.617188 564.410156 C 1096.851562 565.769531 1097.019531 567.140625 1097.117188 568.515625 C 1097.21875 569.894531 1097.25 571.273438 1097.210938 572.652344 L 1097.210938 584.515625 L 596.035156 584.515625 C 594.824219 584.488281 593.625 584.585938 592.4375 584.808594 C 591.25 585.03125 590.097656 585.375 588.980469 585.835938 C 587.859375 586.296875 586.800781 586.871094 585.804688 587.550781 C 584.804688 588.230469 583.886719 589.007812 583.046875 589.878906 L 554.8125 618.121094 L 385.398438 618.121094 C 384.789062 618.121094 384.179688 618.148438 383.574219 618.210938 C 382.964844 618.269531 382.363281 618.359375 381.765625 618.476562 C 381.164062 618.597656 380.574219 618.746094 379.988281 618.921875 C 379.40625 619.097656 378.832031 619.304688 378.269531 619.539062 C 377.703125 619.773438 377.152344 620.03125 376.613281 620.320312 C 376.078125 620.609375 375.554688 620.921875 375.046875 621.261719 C 374.539062 621.601562 374.050781 621.960938 373.578125 622.351562 C 373.105469 622.738281 372.652344 623.148438 372.222656 623.578125 C 371.789062 624.011719 371.382812 624.460938 370.996094 624.933594 C 370.605469 625.40625 370.242188 625.894531 369.90625 626.402344 C 369.566406 626.910156 369.253906 627.433594 368.964844 627.972656 C 368.675781 628.511719 368.417969 629.0625 368.183594 629.625 C 367.949219 630.1875 367.742188 630.761719 367.566406 631.347656 C 367.390625 631.929688 367.242188 632.523438 367.121094 633.121094 C 367.003906 633.71875 366.914062 634.324219 366.855469 634.929688 C 366.792969 635.539062 366.765625 636.148438 366.765625 636.757812 C 366.765625 637.367188 366.792969 637.976562 366.855469 638.585938 C 366.914062 639.191406 367.003906 639.796875 367.121094 640.394531 C 367.242188 640.992188 367.390625 641.582031 367.566406 642.167969 C 367.742188 642.753906 367.949219 643.328125 368.183594 643.890625 C 368.417969 644.453125 368.675781 645.003906 368.964844 645.542969 C 369.253906 646.082031 369.566406 646.605469 369.90625 647.113281 C 370.242188 647.621094 370.605469 648.109375 370.996094 648.582031 C 371.382812 649.054688 371.789062 649.503906 372.222656 649.9375 C 372.652344 650.367188 373.105469 650.777344 373.578125 651.164062 C 374.050781 651.550781 374.539062 651.914062 375.046875 652.253906 C 375.554688 652.59375 376.078125 652.90625 376.613281 653.195312 C 377.152344 653.484375 377.703125 653.742188 378.269531 653.976562 C 378.832031 654.210938 379.40625 654.417969 379.988281 654.59375 C 380.574219 654.769531 381.164062 654.917969 381.765625 655.039062 C 382.363281 655.15625 382.964844 655.246094 383.574219 655.304688 C 384.179688 655.367188 384.789062 655.394531 385.398438 655.394531 L 560.742188 655.394531 C 563.171875 655.382812 565.511719 654.914062 567.761719 653.984375 C 570.007812 653.054688 571.996094 651.738281 573.730469 650.03125 L 601.964844 621.789062 L 1097.210938 621.789062 L 1097.210938 1145.636719 C 1097.203125 1146.992188 1097.128906 1148.34375 1096.988281 1149.691406 C 1096.847656 1151.039062 1096.644531 1152.375 1096.378906 1153.703125 C 1096.109375 1155.03125 1095.777344 1156.34375 1095.382812 1157.636719 C 1094.988281 1158.933594 1094.53125 1160.207031 1094.011719 1161.460938 C 1093.492188 1162.710938 1092.917969 1163.933594 1092.28125 1165.128906 C 1091.644531 1166.328125 1090.953125 1167.488281 1090.203125 1168.617188 C 1089.453125 1169.746094 1088.652344 1170.835938 1087.800781 1171.886719 C 1086.945312 1172.941406 1086.042969 1173.949219 1085.089844 1174.914062 C 1084.140625 1175.878906 1083.144531 1176.792969 1082.105469 1177.660156 C 1081.066406 1178.53125 1079.984375 1179.347656 1078.867188 1180.109375 C 1077.75 1180.875 1076.597656 1181.582031 1075.410156 1182.234375 C 1074.222656 1182.886719 1073.007812 1183.480469 1071.761719 1184.015625 C 1070.519531 1184.550781 1069.25 1185.027344 1067.960938 1185.4375 C 1066.671875 1185.851562 1065.363281 1186.203125 1064.039062 1186.488281 C 1062.714844 1186.773438 1061.382812 1186.996094 1060.035156 1187.152344 C 1058.691406 1187.3125 1057.339844 1187.402344 1055.988281 1187.429688 Z M 1240.082031 366.222656 L 738.621094 366.222656 C 737.40625 366.222656 736.199219 366.347656 735.007812 366.59375 C 733.816406 366.84375 732.660156 367.210938 731.542969 367.695312 C 730.425781 368.183594 729.371094 368.777344 728.375 369.480469 C 727.378906 370.183594 726.464844 370.980469 725.632812 371.871094 L 697.398438 400.109375 L 527.988281 400.109375 C 527.378906 400.109375 526.769531 400.140625 526.160156 400.199219 C 525.554688 400.257812 524.949219 400.347656 524.351562 400.46875 C 523.753906 400.585938 523.164062 400.734375 522.578125 400.910156 C 521.992188 401.089844 521.421875 401.292969 520.855469 401.527344 C 520.292969 401.761719 519.742188 402.023438 519.203125 402.308594 C 518.664062 402.597656 518.140625 402.910156 517.632812 403.25 C 517.128906 403.589844 516.636719 403.953125 516.164062 404.339844 C 515.695312 404.726562 515.242188 405.136719 514.808594 405.566406 C 514.378906 406 513.96875 406.453125 513.582031 406.921875 C 513.195312 407.394531 512.832031 407.886719 512.492188 408.390625 C 512.152344 408.898438 511.839844 409.421875 511.554688 409.960938 C 511.265625 410.5 511.003906 411.050781 510.769531 411.613281 C 510.539062 412.179688 510.332031 412.753906 510.15625 413.335938 C 509.976562 413.921875 509.828125 414.511719 509.710938 415.109375 C 509.589844 415.710938 509.5 416.3125 509.441406 416.921875 C 509.382812 417.527344 509.351562 418.136719 509.351562 418.746094 C 509.351562 419.359375 509.382812 419.964844 509.441406 420.574219 C 509.5 421.183594 509.589844 421.785156 509.710938 422.382812 C 509.828125 422.980469 509.976562 423.574219 510.15625 424.15625 C 510.332031 424.742188 510.539062 425.316406 510.769531 425.878906 C 511.003906 426.445312 511.265625 426.996094 511.554688 427.535156 C 511.839844 428.070312 512.152344 428.59375 512.492188 429.101562 C 512.832031 429.609375 513.195312 430.097656 513.582031 430.570312 C 513.96875 431.042969 514.378906 431.496094 514.808594 431.925781 C 515.242188 432.359375 515.695312 432.769531 516.164062 433.15625 C 516.636719 433.542969 517.128906 433.90625 517.632812 434.246094 C 518.140625 434.582031 518.664062 434.898438 519.203125 435.183594 C 519.742188 435.472656 520.292969 435.734375 520.855469 435.964844 C 521.421875 436.199219 521.992188 436.40625 522.578125 436.582031 C 523.164062 436.761719 523.753906 436.910156 524.351562 437.027344 C 524.949219 437.144531 525.554688 437.234375 526.160156 437.296875 C 526.769531 437.355469 527.378906 437.386719 527.988281 437.386719 L 706.152344 437.386719 C 708.628906 437.394531 711.015625 436.933594 713.316406 436.007812 C 715.613281 435.078125 717.648438 433.75 719.421875 432.019531 L 747.65625 403.78125 L 1240.082031 403.78125 L 1240.082031 927.34375 C 1240.082031 928.714844 1240.015625 930.085938 1239.882812 931.449219 C 1239.746094 932.816406 1239.546875 934.171875 1239.28125 935.519531 C 1239.015625 936.863281 1238.683594 938.195312 1238.285156 939.507812 C 1237.890625 940.820312 1237.429688 942.113281 1236.90625 943.382812 C 1236.382812 944.648438 1235.800781 945.890625 1235.15625 947.101562 C 1234.511719 948.3125 1233.808594 949.488281 1233.050781 950.632812 C 1232.292969 951.777344 1231.476562 952.878906 1230.609375 953.941406 C 1229.742188 955.003906 1228.828125 956.023438 1227.859375 956.996094 C 1226.894531 957.972656 1225.878906 958.894531 1224.824219 959.769531 C 1223.765625 960.644531 1222.667969 961.464844 1221.53125 962.230469 C 1220.394531 963 1219.222656 963.710938 1218.015625 964.363281 C 1216.808594 965.015625 1215.570312 965.605469 1214.304688 966.136719 C 1213.042969 966.667969 1211.753906 967.136719 1210.441406 967.542969 C 1209.132812 967.949219 1207.804688 968.289062 1206.460938 968.566406 C 1205.117188 968.839844 1203.761719 969.050781 1202.398438 969.191406 C 1201.035156 969.335938 1199.664062 969.410156 1198.292969 969.421875 L 1134.765625 969.421875 L 1134.765625 574.066406 C 1134.765625 572.773438 1134.734375 571.484375 1134.667969 570.195312 C 1134.605469 568.90625 1134.511719 567.617188 1134.386719 566.332031 C 1134.257812 565.046875 1134.101562 563.765625 1133.914062 562.488281 C 1133.722656 561.210938 1133.503906 559.941406 1133.25 558.675781 C 1133 557.40625 1132.71875 556.148438 1132.40625 554.894531 C 1132.09375 553.644531 1131.75 552.398438 1131.375 551.164062 C 1131 549.925781 1130.597656 548.703125 1130.164062 547.484375 C 1129.730469 546.269531 1129.265625 545.066406 1128.773438 543.871094 C 1128.28125 542.679688 1127.757812 541.496094 1127.207031 540.328125 C 1126.65625 539.164062 1126.078125 538.007812 1125.46875 536.871094 C 1124.863281 535.730469 1124.230469 534.605469 1123.566406 533.496094 C 1122.902344 532.390625 1122.214844 531.296875 1121.5 530.222656 C 1120.785156 529.148438 1120.042969 528.09375 1119.273438 527.054688 C 1118.507812 526.015625 1117.714844 524.996094 1116.898438 524 C 1116.078125 523 1115.238281 522.019531 1114.371094 521.0625 C 1113.507812 520.105469 1112.621094 519.167969 1111.707031 518.253906 C 1110.796875 517.339844 1109.863281 516.445312 1108.910156 515.578125 C 1107.953125 514.710938 1106.980469 513.863281 1105.984375 513.042969 C 1104.984375 512.222656 1103.96875 511.425781 1102.933594 510.65625 C 1101.898438 509.882812 1100.847656 509.136719 1099.773438 508.417969 C 1098.703125 507.699219 1097.613281 507.003906 1096.507812 506.339844 C 1095.402344 505.671875 1094.28125 505.035156 1093.144531 504.421875 C 1092.007812 503.8125 1090.855469 503.226562 1089.691406 502.671875 C 1088.523438 502.117188 1087.347656 501.589844 1086.15625 501.09375 C 1084.964844 500.597656 1083.761719 500.128906 1082.546875 499.691406 C 1081.332031 499.253906 1080.109375 498.84375 1078.875 498.464844 C 1077.640625 498.085938 1076.398438 497.738281 1075.144531 497.421875 C 1073.894531 497.105469 1072.636719 496.816406 1071.371094 496.5625 C 1070.105469 496.304688 1068.835938 496.082031 1067.558594 495.886719 C 1066.28125 495.695312 1065.003906 495.53125 1063.71875 495.402344 C 1062.433594 495.269531 1061.148438 495.171875 1059.859375 495.101562 C 1058.570312 495.035156 1057.277344 495 1055.988281 494.996094 L 401.492188 494.996094 L 401.492188 354.644531 C 401.492188 353.273438 401.5625 351.910156 401.695312 350.546875 C 401.828125 349.183594 402.03125 347.832031 402.296875 346.488281 C 402.5625 345.148438 402.894531 343.820312 403.292969 342.511719 C 403.691406 341.199219 404.152344 339.914062 404.675781 338.648438 C 405.199219 337.382812 405.78125 336.148438 406.429688 334.941406 C 407.074219 333.734375 407.777344 332.5625 408.535156 331.421875 C 409.296875 330.285156 410.109375 329.1875 410.980469 328.128906 C 411.847656 327.070312 412.765625 326.058594 413.734375 325.089844 C 414.699219 324.121094 415.714844 323.203125 416.773438 322.335938 C 417.828125 321.46875 418.925781 320.652344 420.066406 319.890625 C 421.203125 319.132812 422.375 318.429688 423.582031 317.785156 C 424.789062 317.136719 426.027344 316.554688 427.289062 316.03125 C 428.554688 315.507812 429.839844 315.046875 431.152344 314.648438 C 432.460938 314.25 433.785156 313.917969 435.128906 313.652344 C 436.472656 313.382812 437.824219 313.183594 439.1875 313.050781 C 440.546875 312.914062 441.914062 312.847656 443.28125 312.847656 L 1198.292969 312.847656 C 1199.664062 312.847656 1201.027344 312.914062 1202.390625 313.050781 C 1203.75 313.183594 1205.105469 313.382812 1206.445312 313.652344 C 1207.789062 313.917969 1209.113281 314.25 1210.425781 314.648438 C 1211.734375 315.046875 1213.019531 315.507812 1214.285156 316.03125 C 1215.550781 316.554688 1216.785156 317.136719 1217.992188 317.785156 C 1219.199219 318.429688 1220.371094 319.132812 1221.507812 319.890625 C 1222.648438 320.652344 1223.746094 321.46875 1224.804688 322.335938 C 1225.863281 323.203125 1226.875 324.121094 1227.84375 325.089844 C 1228.808594 326.058594 1229.726562 327.070312 1230.597656 328.128906 C 1231.464844 329.1875 1232.277344 330.285156 1233.039062 331.421875 C 1233.800781 332.5625 1234.503906 333.734375 1235.148438 334.941406 C 1235.792969 336.148438 1236.375 337.382812 1236.902344 338.648438 C 1237.425781 339.914062 1237.886719 341.199219 1238.28125 342.511719 C 1238.679688 343.820312 1239.011719 345.148438 1239.277344 346.488281 C 1239.546875 347.832031 1239.746094 349.183594 1239.878906 350.546875 C 1240.015625 351.910156 1240.082031 353.273438 1240.082031 354.644531 Z M 1240.082031 366.222656 " fill-opacity="1" fill-rule="nonzero"/></g><path fill="#231f20" d="M 881.492188 769.484375 L 697.398438 769.484375 C 696.792969 769.484375 696.1875 769.515625 695.582031 769.574219 C 694.980469 769.632812 694.378906 769.722656 693.785156 769.84375 C 693.1875 769.964844 692.601562 770.113281 692.019531 770.289062 C 691.441406 770.46875 690.871094 770.671875 690.308594 770.90625 C 689.75 771.140625 689.203125 771.402344 688.667969 771.691406 C 688.136719 771.980469 687.617188 772.296875 687.113281 772.636719 C 686.609375 772.976562 686.125 773.339844 685.660156 773.730469 C 685.191406 774.117188 684.746094 774.527344 684.320312 774.960938 C 683.894531 775.390625 683.492188 775.84375 683.109375 776.316406 C 682.730469 776.789062 682.371094 777.28125 682.039062 777.789062 C 681.707031 778.296875 681.402344 778.820312 681.121094 779.359375 C 680.839844 779.898438 680.585938 780.449219 680.363281 781.011719 C 680.136719 781.574219 679.9375 782.148438 679.769531 782.730469 C 679.601562 783.3125 679.460938 783.90625 679.351562 784.5 C 679.238281 785.097656 679.160156 785.699219 679.109375 786.304688 C 679.058594 786.910156 679.039062 787.515625 679.046875 788.121094 L 679.046875 1045.101562 C 678.964844 1045.757812 678.917969 1046.414062 678.90625 1047.070312 C 678.898438 1047.730469 678.921875 1048.386719 678.976562 1049.042969 C 679.035156 1049.699219 679.128906 1050.347656 679.257812 1050.996094 C 679.382812 1051.640625 679.542969 1052.277344 679.738281 1052.90625 C 679.933594 1053.535156 680.160156 1054.152344 680.421875 1054.757812 C 680.683594 1055.363281 680.972656 1055.953125 681.296875 1056.527344 C 681.617188 1057.097656 681.96875 1057.65625 682.351562 1058.191406 C 682.734375 1058.726562 683.140625 1059.242188 683.578125 1059.734375 C 684.011719 1060.230469 684.472656 1060.699219 684.960938 1061.144531 C 685.445312 1061.585938 685.953125 1062.003906 686.484375 1062.394531 C 687.011719 1062.785156 687.5625 1063.148438 688.128906 1063.480469 C 688.699219 1063.8125 689.28125 1064.113281 689.882812 1064.386719 C 690.484375 1064.65625 691.09375 1064.894531 691.722656 1065.097656 C 692.347656 1065.304688 692.980469 1065.476562 693.625 1065.617188 C 694.269531 1065.753906 694.917969 1065.859375 695.570312 1065.925781 C 696.226562 1065.996094 696.882812 1066.03125 697.539062 1066.03125 C 698.199219 1066.03125 698.855469 1065.996094 699.511719 1065.925781 C 700.164062 1065.859375 700.8125 1065.753906 701.457031 1065.617188 C 702.101562 1065.476562 702.734375 1065.304688 703.359375 1065.097656 C 703.984375 1064.894531 704.597656 1064.65625 705.199219 1064.386719 C 705.800781 1064.113281 706.382812 1063.8125 706.953125 1063.480469 C 707.519531 1063.148438 708.070312 1062.785156 708.597656 1062.394531 C 709.128906 1062.003906 709.636719 1061.585938 710.121094 1061.144531 C 710.605469 1060.699219 711.066406 1060.230469 711.503906 1059.734375 C 711.941406 1059.242188 712.347656 1058.726562 712.730469 1058.191406 C 713.109375 1057.65625 713.464844 1057.097656 713.785156 1056.527344 C 714.109375 1055.953125 714.398438 1055.363281 714.660156 1054.757812 C 714.917969 1054.152344 715.148438 1053.535156 715.34375 1052.90625 C 715.535156 1052.277344 715.699219 1051.640625 715.824219 1050.996094 C 715.953125 1050.347656 716.042969 1049.699219 716.101562 1049.042969 C 716.160156 1048.386719 716.183594 1047.730469 716.171875 1047.070312 C 716.160156 1046.414062 716.117188 1045.757812 716.035156 1045.101562 L 716.035156 935.25 L 881.492188 935.25 C 882.089844 935.222656 882.683594 935.167969 883.273438 935.085938 C 883.863281 935.003906 884.449219 934.894531 885.03125 934.753906 C 885.609375 934.617188 886.183594 934.453125 886.746094 934.261719 C 887.3125 934.066406 887.867188 933.847656 888.410156 933.605469 C 888.953125 933.359375 889.484375 933.089844 890.003906 932.792969 C 890.519531 932.5 891.023438 932.179688 891.511719 931.839844 C 892 931.496094 892.472656 931.132812 892.925781 930.742188 C 893.378906 930.355469 893.8125 929.949219 894.230469 929.519531 C 894.644531 929.09375 895.039062 928.644531 895.410156 928.179688 C 895.785156 927.714844 896.132812 927.234375 896.460938 926.734375 C 896.789062 926.234375 897.09375 925.722656 897.371094 925.195312 C 897.648438 924.667969 897.902344 924.128906 898.132812 923.578125 C 898.359375 923.027344 898.558594 922.464844 898.734375 921.894531 C 898.910156 921.324219 899.058594 920.746094 899.175781 920.164062 C 899.296875 919.578125 899.390625 918.988281 899.453125 918.398438 C 899.519531 917.804688 899.554688 917.210938 899.5625 916.613281 L 899.5625 788.121094 C 899.5625 787.523438 899.535156 786.925781 899.480469 786.328125 C 899.421875 785.734375 899.335938 785.140625 899.222656 784.554688 C 899.105469 783.964844 898.964844 783.386719 898.792969 782.8125 C 898.625 782.238281 898.425781 781.671875 898.203125 781.117188 C 897.976562 780.5625 897.726562 780.019531 897.449219 779.488281 C 897.171875 778.957031 896.871094 778.441406 896.542969 777.941406 C 896.214844 777.4375 895.867188 776.953125 895.492188 776.484375 C 895.117188 776.019531 894.722656 775.570312 894.308594 775.140625 C 893.890625 774.707031 893.453125 774.300781 892.996094 773.914062 C 892.542969 773.523438 892.066406 773.160156 891.578125 772.816406 C 891.085938 772.476562 890.578125 772.15625 890.054688 771.863281 C 889.535156 771.570312 889 771.304688 888.453125 771.0625 C 887.902344 770.820312 887.347656 770.605469 886.777344 770.417969 C 886.207031 770.230469 885.632812 770.070312 885.046875 769.9375 C 884.464844 769.804688 883.875 769.699219 883.28125 769.625 C 882.6875 769.550781 882.09375 769.503906 881.492188 769.484375 Z M 716.035156 806.476562 L 862.859375 806.476562 L 862.859375 896.84375 L 716.035156 896.84375 Z M 716.035156 806.476562 " fill-opacity="1" fill-rule="nonzero"/><path fill="#231f20" d="M 537.304688 781.628906 C 536.980469 780.734375 536.589844 779.871094 536.128906 779.039062 C 535.671875 778.207031 535.15625 777.414062 534.578125 776.660156 C 533.996094 775.90625 533.363281 775.203125 532.679688 774.546875 C 531.992188 773.890625 531.261719 773.289062 530.480469 772.746094 C 529.703125 772.199219 528.886719 771.71875 528.035156 771.296875 C 527.183594 770.878906 526.304688 770.527344 525.398438 770.242188 C 524.492188 769.953125 523.570312 769.738281 522.632812 769.59375 C 521.695312 769.453125 520.75 769.378906 519.800781 769.378906 C 518.851562 769.378906 517.90625 769.453125 516.964844 769.59375 C 516.027344 769.738281 515.105469 769.953125 514.199219 770.242188 C 513.292969 770.527344 512.414062 770.878906 511.5625 771.296875 C 510.710938 771.71875 509.894531 772.199219 509.117188 772.746094 C 508.339844 773.289062 507.605469 773.890625 506.921875 774.546875 C 506.234375 775.203125 505.601562 775.90625 505.023438 776.660156 C 504.445312 777.414062 503.925781 778.207031 503.46875 779.039062 C 503.011719 779.871094 502.621094 780.734375 502.292969 781.628906 L 410.246094 1038.042969 C 410.046875 1038.617188 409.871094 1039.199219 409.726562 1039.789062 C 409.582031 1040.378906 409.46875 1040.976562 409.382812 1041.578125 C 409.296875 1042.179688 409.238281 1042.785156 409.210938 1043.390625 C 409.183594 1044 409.1875 1044.605469 409.21875 1045.214844 C 409.253906 1045.820312 409.3125 1046.425781 409.40625 1047.023438 C 409.496094 1047.625 409.617188 1048.222656 409.769531 1048.8125 C 409.917969 1049.398438 410.09375 1049.980469 410.300781 1050.550781 C 410.507812 1051.125 410.742188 1051.683594 411.003906 1052.234375 C 411.265625 1052.78125 411.550781 1053.316406 411.867188 1053.835938 C 412.179688 1054.359375 412.519531 1054.863281 412.882812 1055.351562 C 413.246094 1055.835938 413.628906 1056.304688 414.039062 1056.757812 C 414.449219 1057.207031 414.878906 1057.636719 415.328125 1058.042969 C 415.777344 1058.449219 416.25 1058.835938 416.738281 1059.195312 C 417.226562 1059.558594 417.730469 1059.894531 418.253906 1060.207031 C 418.773438 1060.519531 419.308594 1060.808594 419.859375 1061.066406 C 420.40625 1061.328125 420.96875 1061.558594 421.539062 1061.765625 C 423.609375 1062.152344 425.683594 1062.152344 427.753906 1061.765625 C 428.710938 1061.773438 429.660156 1061.703125 430.609375 1061.5625 C 431.554688 1061.421875 432.484375 1061.207031 433.398438 1060.917969 C 434.3125 1060.632812 435.195312 1060.273438 436.054688 1059.847656 C 436.910156 1059.421875 437.730469 1058.933594 438.511719 1058.378906 C 439.292969 1057.824219 440.023438 1057.214844 440.710938 1056.542969 C 441.394531 1055.875 442.023438 1055.15625 442.597656 1054.390625 C 443.167969 1053.621094 443.679688 1052.816406 444.125 1051.96875 C 444.570312 1051.121094 444.949219 1050.246094 445.257812 1049.339844 L 470.105469 981.5625 L 569.492188 981.5625 L 594.339844 1050.75 C 594.648438 1051.65625 595.027344 1052.535156 595.472656 1053.382812 C 595.921875 1054.226562 596.429688 1055.035156 597.003906 1055.800781 C 597.574219 1056.570312 598.203125 1057.289062 598.890625 1057.957031 C 599.574219 1058.625 600.308594 1059.238281 601.085938 1059.789062 C 601.867188 1060.34375 602.6875 1060.835938 603.542969 1061.261719 C 604.402344 1061.6875 605.289062 1062.042969 606.199219 1062.332031 C 607.113281 1062.617188 608.042969 1062.832031 608.992188 1062.976562 C 609.9375 1063.117188 610.890625 1063.183594 611.847656 1063.175781 C 613.917969 1063.445312 615.988281 1063.445312 618.058594 1063.175781 C 618.628906 1062.972656 619.191406 1062.738281 619.742188 1062.480469 C 620.289062 1062.21875 620.824219 1061.933594 621.347656 1061.621094 C 621.867188 1061.308594 622.375 1060.972656 622.863281 1060.609375 C 623.351562 1060.246094 623.820312 1059.863281 624.269531 1059.453125 C 624.722656 1059.046875 625.152344 1058.617188 625.558594 1058.167969 C 625.96875 1057.71875 626.355469 1057.25 626.71875 1056.761719 C 627.082031 1056.273438 627.417969 1055.769531 627.734375 1055.25 C 628.046875 1054.730469 628.332031 1054.195312 628.59375 1053.644531 C 628.855469 1053.097656 629.089844 1052.535156 629.296875 1051.964844 C 629.503906 1051.390625 629.679688 1050.8125 629.832031 1050.222656 C 629.980469 1049.632812 630.101562 1049.039062 630.191406 1048.4375 C 630.285156 1047.835938 630.347656 1047.230469 630.378906 1046.625 C 630.410156 1046.019531 630.414062 1045.410156 630.386719 1044.804688 C 630.359375 1044.195312 630.304688 1043.59375 630.21875 1042.988281 C 630.132812 1042.386719 630.015625 1041.792969 629.871094 1041.203125 C 629.726562 1040.609375 629.554688 1040.027344 629.351562 1039.457031 Z M 556.222656 944.851562 L 483.375 944.851562 L 519.800781 843.191406 Z M 556.222656 944.851562 " fill-opacity="1" fill-rule="nonzero"/></svg>