<svg xmlns="http://www.w3.org/2000/svg" xmlns:xlink="http://www.w3.org/1999/xlink" width="2000" zoomAndPan="magnify" viewBox="0 0 1500 1499.999933" height="2000" preserveAspectRatio="xMidYMid meet" version="1.0"><path fill="#00d8ff" d="M 776.648438 1271.089844 C 573.832031 1271.089844 476.277344 1173.945312 405.039062 1103.003906 C 398.609375 1094.984375 391.695312 1087.402344 384.300781 1080.261719 C 376.910156 1073.121094 369.09375 1066.476562 360.855469 1060.328125 C 352.617188 1054.179688 344.023438 1048.582031 335.074219 1043.527344 C 326.121094 1038.472656 316.886719 1034.003906 307.371094 1030.125 C 264.675781 1019.664062 207.132812 1018.957031 141.066406 1105.347656 C 139.777344 1107.035156 138.417969 1108.667969 136.988281 1110.242188 C 135.558594 1111.8125 134.066406 1113.324219 132.507812 1114.769531 C 130.949219 1116.214844 129.332031 1117.589844 127.65625 1118.894531 C 125.980469 1120.203125 124.25 1121.433594 122.46875 1122.59375 C 120.6875 1123.753906 118.859375 1124.832031 116.984375 1125.835938 C 115.109375 1126.835938 113.199219 1127.757812 111.246094 1128.59375 C 109.292969 1129.433594 107.304688 1130.183594 105.289062 1130.851562 C 103.269531 1131.519531 101.226562 1132.101562 99.160156 1132.59375 C 97.09375 1133.085938 95.007812 1133.492188 92.90625 1133.804688 C 90.804688 1134.121094 88.695312 1134.34375 86.574219 1134.476562 C 84.453125 1134.613281 82.328125 1134.65625 80.203125 1134.605469 C 78.078125 1134.558594 75.960938 1134.417969 73.847656 1134.191406 C 71.734375 1133.960938 69.636719 1133.640625 67.550781 1133.230469 C 65.464844 1132.820312 63.402344 1132.324219 61.359375 1131.738281 C 59.316406 1131.152344 57.300781 1130.480469 55.316406 1129.71875 C 53.332031 1128.960938 51.382812 1128.121094 49.46875 1127.195312 C 47.554688 1126.269531 45.683594 1125.261719 43.859375 1124.175781 C 42.03125 1123.089844 40.253906 1121.929688 38.527344 1120.691406 C 36.800781 1119.453125 35.128906 1118.144531 33.511719 1116.761719 C 31.898438 1115.382812 30.34375 1113.933594 28.851562 1112.417969 C 27.359375 1110.90625 25.9375 1109.328125 24.582031 1107.695312 C 23.226562 1106.058594 21.941406 1104.367188 20.730469 1102.621094 C 19.519531 1100.875 18.382812 1099.078125 17.324219 1097.234375 C 16.265625 1095.394531 15.289062 1093.507812 14.394531 1091.582031 C 13.496094 1089.652344 12.683594 1087.691406 11.957031 1085.695312 C 11.226562 1083.699219 10.585938 1081.675781 10.03125 1079.621094 C 9.476562 1077.570312 9.011719 1075.5 8.632812 1073.410156 C 8.253906 1071.316406 7.96875 1069.214844 7.769531 1067.097656 C 7.574219 1064.980469 7.46875 1062.859375 7.449219 1060.734375 C 7.433594 1058.609375 7.511719 1056.488281 7.675781 1054.371094 C 7.84375 1052.25 8.097656 1050.144531 8.445312 1048.046875 C 8.792969 1045.949219 9.226562 1043.871094 9.75 1041.8125 C 64.617188 826.5625 209.703125 712.777344 429.304688 712.777344 C 632.121094 712.777344 729.675781 809.925781 800.917969 880.867188 C 807.347656 888.886719 814.257812 896.46875 821.652344 903.609375 C 829.046875 910.75 836.863281 917.394531 845.101562 923.542969 C 853.339844 929.6875 861.933594 935.289062 870.882812 940.34375 C 879.832031 945.398438 889.066406 949.867188 898.585938 953.746094 C 941.316406 964.167969 998.820312 964.914062 1064.886719 878.523438 C 1066.179688 876.835938 1067.535156 875.203125 1068.964844 873.628906 C 1070.394531 872.058594 1071.890625 870.546875 1073.445312 869.101562 C 1075.003906 867.65625 1076.621094 866.28125 1078.300781 864.976562 C 1079.976562 863.667969 1081.703125 862.4375 1083.484375 861.277344 C 1085.269531 860.117188 1087.097656 859.039062 1088.96875 858.035156 C 1090.84375 857.035156 1092.757812 856.113281 1094.710938 855.277344 C 1096.664062 854.4375 1098.648438 853.6875 1100.667969 853.019531 C 1102.683594 852.351562 1104.726562 851.769531 1106.792969 851.277344 C 1108.863281 850.78125 1110.945312 850.378906 1113.046875 850.066406 C 1115.148438 849.75 1117.261719 849.527344 1119.382812 849.390625 C 1121.503906 849.257812 1123.625 849.214844 1125.75 849.265625 C 1127.875 849.3125 1129.996094 849.453125 1132.109375 849.679688 C 1134.21875 849.910156 1136.320312 850.230469 1138.40625 850.640625 C 1140.492188 851.050781 1142.554688 851.546875 1144.597656 852.132812 C 1146.640625 852.71875 1148.652344 853.390625 1150.640625 854.148438 C 1152.625 854.910156 1154.574219 855.75 1156.488281 856.675781 C 1158.398438 857.601562 1160.269531 858.609375 1162.097656 859.695312 C 1163.925781 860.78125 1165.703125 861.941406 1167.429688 863.179688 C 1169.15625 864.417969 1170.828125 865.726562 1172.441406 867.109375 C 1174.058594 868.488281 1175.613281 869.9375 1177.101562 871.453125 C 1178.59375 872.964844 1180.019531 874.539062 1181.375 876.175781 C 1182.730469 877.8125 1184.015625 879.503906 1185.226562 881.25 C 1186.4375 882.996094 1187.574219 884.792969 1188.628906 886.632812 C 1189.6875 888.476562 1190.664062 890.363281 1191.5625 892.289062 C 1192.457031 894.21875 1193.269531 896.179688 1194 898.175781 C 1194.726562 900.171875 1195.367188 902.195312 1195.921875 904.246094 C 1196.476562 906.300781 1196.945312 908.371094 1197.324219 910.460938 C 1197.699219 912.554688 1197.988281 914.65625 1198.183594 916.773438 C 1198.382812 918.890625 1198.488281 921.011719 1198.503906 923.136719 C 1198.519531 925.261719 1198.445312 927.382812 1198.277344 929.5 C 1198.113281 931.621094 1197.855469 933.726562 1197.511719 935.824219 C 1197.164062 937.921875 1196.726562 940 1196.203125 942.058594 C 1141.339844 1157.308594 996.253906 1271.089844 776.648438 1271.089844 Z M 311.722656 879.527344 C 322.1875 881.015625 332.546875 883.027344 342.804688 885.558594 C 350.90625 888.113281 358.910156 890.957031 366.8125 894.082031 C 374.714844 897.207031 382.492188 900.613281 390.152344 904.289062 C 397.8125 907.96875 405.332031 911.917969 412.710938 916.128906 C 420.089844 920.34375 427.308594 924.816406 434.371094 929.542969 C 441.433594 934.269531 448.316406 939.242188 455.023438 944.457031 C 461.730469 949.675781 468.246094 955.125 474.566406 960.804688 C 480.886719 966.484375 486.996094 972.378906 492.898438 978.496094 C 498.796875 984.609375 504.472656 990.925781 509.925781 997.445312 C 574.464844 1061.648438 635.324219 1122.207031 776.648438 1122.207031 C 796.613281 1122.628906 816.46875 1121.335938 836.210938 1118.335938 C 855.953125 1115.335938 875.292969 1110.671875 894.230469 1104.34375 C 883.769531 1102.855469 873.410156 1100.84375 863.152344 1098.3125 C 855.046875 1095.753906 847.046875 1092.914062 839.144531 1089.789062 C 831.242188 1086.660156 823.460938 1083.257812 815.800781 1079.582031 C 808.140625 1075.902344 800.625 1071.953125 793.246094 1067.742188 C 785.867188 1063.527344 778.644531 1059.054688 771.585938 1054.328125 C 764.523438 1049.601562 757.640625 1044.628906 750.929688 1039.414062 C 744.222656 1034.195312 737.710938 1028.746094 731.390625 1023.066406 C 725.070312 1017.386719 718.960938 1011.488281 713.058594 1005.375 C 707.15625 999.261719 701.480469 992.945312 696.03125 986.425781 C 631.488281 922.222656 570.632812 861.664062 429.304688 861.664062 C 409.339844 861.242188 389.488281 862.535156 369.746094 865.535156 C 350.003906 868.535156 330.664062 873.199219 311.722656 879.527344 Z M 1074.417969 787.222656 C 871.601562 787.222656 773.96875 690 702.691406 619.019531 C 696.269531 611.011719 689.367188 603.441406 681.980469 596.3125 C 674.59375 589.179688 666.789062 582.546875 658.558594 576.410156 C 650.332031 570.269531 641.746094 564.679688 632.808594 559.632812 C 623.867188 554.585938 614.644531 550.125 605.136719 546.253906 C 562.445312 535.792969 504.902344 535.085938 438.832031 621.476562 C 437.542969 623.164062 436.183594 624.796875 434.757812 626.371094 C 433.328125 627.941406 431.832031 629.453125 430.273438 630.898438 C 428.714844 632.34375 427.097656 633.71875 425.421875 635.023438 C 423.746094 636.332031 422.019531 637.5625 420.234375 638.722656 C 418.453125 639.882812 416.625 640.960938 414.753906 641.964844 C 412.878906 642.964844 410.964844 643.886719 409.011719 644.722656 C 407.058594 645.5625 405.074219 646.3125 403.054688 646.980469 C 401.039062 647.648438 398.996094 648.230469 396.925781 648.722656 C 394.859375 649.214844 392.777344 649.621094 390.675781 649.933594 C 388.570312 650.25 386.460938 650.472656 384.339844 650.605469 C 382.21875 650.742188 380.09375 650.785156 377.972656 650.734375 C 375.847656 650.6875 373.726562 650.546875 371.613281 650.320312 C 369.5 650.089844 367.402344 649.769531 365.316406 649.359375 C 363.230469 648.949219 361.167969 648.453125 359.125 647.867188 C 357.082031 647.28125 355.066406 646.609375 353.082031 645.847656 C 351.097656 645.089844 349.148438 644.25 347.234375 643.324219 C 345.320312 642.398438 343.453125 641.390625 341.625 640.304688 C 339.796875 639.21875 338.019531 638.058594 336.292969 636.820312 C 334.566406 635.582031 332.894531 634.273438 331.277344 632.890625 C 329.664062 631.511719 328.109375 630.0625 326.621094 628.546875 C 325.128906 627.035156 323.703125 625.457031 322.347656 623.824219 C 320.992188 622.1875 319.707031 620.496094 318.496094 618.75 C 317.285156 617.003906 316.148438 615.207031 315.09375 613.363281 C 314.035156 611.523438 313.058594 609.636719 312.160156 607.710938 C 311.265625 605.78125 310.453125 603.820312 309.722656 601.824219 C 308.996094 599.828125 308.355469 597.804688 307.796875 595.753906 C 307.242188 593.699219 306.777344 591.628906 306.398438 589.539062 C 306.023438 587.445312 305.734375 585.34375 305.539062 583.226562 C 305.339844 581.109375 305.234375 578.988281 305.21875 576.863281 C 305.203125 574.738281 305.277344 572.617188 305.441406 570.5 C 305.609375 568.378906 305.867188 566.273438 306.210938 564.175781 C 306.558594 562.078125 306.992188 560 307.519531 557.941406 C 362.382812 342.691406 507.46875 228.90625 727.070312 228.90625 C 929.886719 228.90625 1027.445312 326.054688 1098.683594 396.996094 C 1105.113281 405.015625 1112.027344 412.597656 1119.417969 419.738281 C 1126.8125 426.878906 1134.628906 433.523438 1142.867188 439.671875 C 1151.105469 445.816406 1159.699219 451.417969 1168.648438 456.472656 C 1177.601562 461.527344 1186.835938 465.996094 1196.351562 469.875 C 1239.082031 480.296875 1296.589844 481.042969 1362.65625 394.652344 C 1363.945312 392.964844 1365.304688 391.332031 1366.734375 389.757812 C 1368.160156 388.1875 1369.65625 386.675781 1371.214844 385.230469 C 1372.773438 383.785156 1374.390625 382.410156 1376.066406 381.105469 C 1377.742188 379.796875 1379.472656 378.566406 1381.253906 377.40625 C 1383.035156 376.246094 1384.863281 375.167969 1386.738281 374.164062 C 1388.609375 373.164062 1390.523438 372.242188 1392.476562 371.40625 C 1394.429688 370.566406 1396.417969 369.816406 1398.433594 369.148438 C 1400.453125 368.480469 1402.492188 367.898438 1404.5625 367.40625 C 1406.628906 366.914062 1408.714844 366.507812 1410.816406 366.195312 C 1412.917969 365.878906 1415.027344 365.65625 1417.148438 365.523438 C 1419.269531 365.386719 1421.394531 365.34375 1423.519531 365.394531 C 1425.644531 365.441406 1427.761719 365.582031 1429.875 365.808594 C 1431.988281 366.039062 1434.085938 366.359375 1436.171875 366.769531 C 1438.257812 367.179688 1440.320312 367.675781 1442.363281 368.261719 C 1444.40625 368.847656 1446.421875 369.519531 1448.40625 370.277344 C 1450.390625 371.039062 1452.339844 371.878906 1454.253906 372.804688 C 1456.167969 373.730469 1458.035156 374.738281 1459.863281 375.824219 C 1461.691406 376.910156 1463.46875 378.070312 1465.195312 379.308594 C 1466.921875 380.546875 1468.59375 381.855469 1470.210938 383.238281 C 1471.824219 384.617188 1473.378906 386.066406 1474.871094 387.582031 C 1476.359375 389.09375 1477.785156 390.671875 1479.140625 392.304688 C 1480.496094 393.941406 1481.78125 395.632812 1482.992188 397.378906 C 1484.203125 399.125 1485.339844 400.921875 1486.398438 402.765625 C 1487.453125 404.605469 1488.433594 406.492188 1489.328125 408.417969 C 1490.222656 410.347656 1491.035156 412.308594 1491.765625 414.304688 C 1492.492188 416.300781 1493.136719 418.324219 1493.691406 420.375 C 1494.246094 422.429688 1494.710938 424.5 1495.089844 426.589844 C 1495.464844 428.683594 1495.753906 430.785156 1495.953125 432.902344 C 1496.148438 435.019531 1496.253906 437.140625 1496.269531 439.265625 C 1496.285156 441.390625 1496.210938 443.511719 1496.046875 445.628906 C 1495.878906 447.75 1495.625 449.855469 1495.277344 451.953125 C 1494.929688 454.050781 1494.496094 456.128906 1493.96875 458.1875 C 1439.105469 673.4375 1294.019531 787.222656 1074.417969 787.222656 Z M 609.492188 395.65625 C 619.953125 397.144531 630.3125 399.15625 640.570312 401.6875 C 648.675781 404.246094 656.675781 407.085938 664.578125 410.210938 C 672.480469 413.335938 680.261719 416.742188 687.921875 420.417969 C 695.578125 424.097656 703.097656 428.046875 710.476562 432.257812 C 717.855469 436.472656 725.078125 440.945312 732.136719 445.671875 C 739.199219 450.398438 746.082031 455.371094 752.789062 460.585938 C 759.5 465.804688 766.011719 471.253906 772.332031 476.933594 C 778.652344 482.613281 784.761719 488.507812 790.664062 494.625 C 796.5625 500.738281 802.242188 507.054688 807.691406 513.574219 C 869.367188 575.0625 933.089844 638.335938 1074.417969 638.335938 C 1094.382812 638.757812 1114.234375 637.464844 1133.976562 634.464844 C 1153.71875 631.464844 1173.058594 626.800781 1191.996094 620.472656 C 1181.535156 618.984375 1171.175781 616.972656 1160.917969 614.441406 C 1152.816406 611.882812 1144.8125 609.042969 1136.910156 605.917969 C 1129.007812 602.792969 1121.226562 599.386719 1113.570312 595.710938 C 1105.910156 592.03125 1098.390625 588.082031 1091.011719 583.871094 C 1083.632812 579.65625 1076.410156 575.183594 1069.351562 570.457031 C 1062.289062 565.730469 1055.40625 560.757812 1048.699219 555.542969 C 1041.992188 550.324219 1035.476562 544.875 1029.15625 539.195312 C 1022.835938 533.515625 1016.726562 527.617188 1010.824219 521.503906 C 1004.925781 515.390625 999.25 509.074219 993.796875 502.554688 C 929.253906 438.351562 868.398438 377.792969 727.070312 377.792969 C 707.109375 377.371094 687.253906 378.664062 667.511719 381.664062 C 647.769531 384.664062 628.429688 389.328125 609.492188 395.65625 Z M 609.492188 395.65625 " fill-opacity="1" fill-rule="nonzero"/></svg>