<svg xmlns="http://www.w3.org/2000/svg" xmlns:xlink="http://www.w3.org/1999/xlink" width="2000" zoomAndPan="magnify" viewBox="0 0 1500 1499.999933" height="2000" preserveAspectRatio="xMidYMid meet" version="1.0"><path fill="#9c754f" d="M 1121.332031 363.410156 C 1096.578125 363.410156 1076.441406 383.550781 1076.441406 408.304688 C 1076.441406 433.058594 1096.578125 453.195312 1121.332031 453.195312 C 1146.085938 453.195312 1166.222656 433.058594 1166.222656 408.304688 C 1166.222656 383.550781 1146.085938 363.410156 1121.332031 363.410156 Z M 1121.332031 363.410156 " fill-opacity="1" fill-rule="nonzero"/><path fill="#9c754f" d="M 856.296875 609.769531 L 856.296875 565.089844 L 742.765625 553.234375 C 743.433594 553.796875 744.03125 554.449219 744.683594 555.011719 C 746.410156 556.511719 748.015625 558.132812 749.722656 559.664062 C 755.363281 564.773438 760.789062 570.128906 765.96875 575.730469 C 767.976562 577.898438 769.949219 580.066406 771.886719 582.304688 C 777.226562 588.46875 782.316406 594.902344 787.128906 601.597656 C 788.132812 603.003906 789.242188 604.308594 790.226562 605.734375 C 795.195312 612.941406 799.917969 620.378906 804.269531 628.148438 L 856.316406 622.773438 L 856.316406 609.753906 Z M 856.296875 609.769531 " fill-opacity="1" fill-rule="nonzero"/><path fill="#9c754f" d="M 362.011719 678.675781 C 387.824219 655.351562 429.597656 628.324219 484.476562 628.324219 C 487.121094 628.324219 489.796875 628.375 492.511719 628.515625 C 569.609375 632.269531 617.164062 686.042969 638.640625 717.753906 C 673.507812 769.816406 674.210938 824.59375 674.757812 868.621094 C 676.027344 959.761719 672.484375 1056.167969 664.238281 1155.148438 C 663.359375 1165.96875 667.109375 1176.785156 674.511719 1184.820312 C 682 1192.925781 692.164062 1197.398438 703.140625 1197.398438 L 786.582031 1197.398438 C 808.003906 1197.398438 825.449219 1179.957031 825.449219 1158.53125 L 825.449219 758.242188 C 824.480469 743.582031 819.210938 693.28125 791.566406 641.695312 C 787.355469 633.800781 782.617188 626.386719 777.753906 619.109375 C 776.855469 617.769531 776.132812 616.253906 775.199219 614.933594 C 766.285156 602.140625 756.011719 590.671875 745.054688 579.871094 C 734.203125 569.179688 722.695312 559.136719 709.90625 550.484375 L 708.074219 549.304688 C 609.691406 485.191406 502.324219 512.816406 460.691406 527.652344 C 387.945312 553.515625 341.558594 601.914062 315.445312 637.976562 C 306.867188 649.730469 307.800781 665.535156 317.703125 676.421875 C 330 689.847656 349.097656 690.445312 361.976562 678.710938 Z M 487.402344 538.804688 C 515.273438 527.773438 571.917969 512.289062 638.164062 532.691406 C 712.8125 555.71875 752.332031 610.492188 765.878906 632.957031 C 768.398438 637.113281 767.042969 642.542969 762.882812 645.042969 C 761.457031 645.90625 759.90625 646.3125 758.355469 646.3125 C 755.378906 646.3125 752.453125 644.796875 750.796875 642.046875 C 738.308594 621.3125 701.820312 570.761719 632.984375 549.535156 C 571.902344 530.699219 519.609375 544.988281 493.902344 555.171875 C 489.410156 556.949219 484.265625 554.765625 482.46875 550.21875 C 480.671875 545.710938 482.890625 540.582031 487.421875 538.785156 Z M 487.402344 538.804688 " fill-opacity="1" fill-rule="nonzero"/><path fill="#9c754f" d="M 1121.386719 300.847656 C 1062.097656 300.847656 1013.859375 349.089844 1013.859375 408.375 C 1013.859375 460.578125 1051.085938 505.082031 1102.355469 514.171875 C 1107.238281 515.089844 1112.417969 515.351562 1117.578125 515.546875 C 1125.296875 515.8125 1133.066406 515.546875 1140.308594 514.191406 C 1191.664062 505.082031 1228.894531 460.59375 1228.894531 408.375 C 1228.894531 349.089844 1180.652344 300.847656 1121.367188 300.847656 Z M 1121.332031 470.8125 C 1086.851562 470.8125 1058.820312 442.765625 1058.820312 408.304688 C 1058.820312 373.84375 1086.871094 345.792969 1121.332031 345.792969 C 1155.792969 345.792969 1183.84375 373.84375 1183.84375 408.304688 C 1183.84375 442.765625 1155.792969 470.8125 1121.332031 470.8125 Z M 1121.332031 470.8125 " fill-opacity="1" fill-rule="nonzero"/><path fill="#9c754f" d="M 1121.386719 533.5 C 1117.492188 533.5 1113.652344 533.324219 1109.878906 532.972656 C 1109.792969 532.972656 1109.722656 532.972656 1109.632812 532.972656 L 1109.632812 709.050781 C 1109.632812 747 1078.765625 777.867188 1040.816406 777.867188 C 1002.867188 777.867188 972 747 972 709.050781 L 972 617.59375 C 972 595.480469 954.007812 577.492188 931.898438 577.492188 L 873.917969 577.492188 L 873.917969 600.980469 L 931.898438 600.980469 C 941.058594 600.980469 948.511719 608.433594 948.511719 617.59375 L 948.511719 709.050781 C 948.511719 759.949219 989.914062 801.371094 1040.816406 801.371094 C 1091.714844 801.371094 1133.117188 759.949219 1133.117188 709.050781 L 1133.117188 532.972656 C 1133.117188 532.972656 1132.941406 532.972656 1132.871094 532.972656 C 1129.101562 533.324219 1125.261719 533.5 1121.386719 533.5 Z M 1121.386719 533.5 " fill-opacity="1" fill-rule="nonzero"/><path stroke-linecap="round" transform="matrix(0, 0.75, -0.75, 0, 470.710865, 523.334407)" fill="none" stroke-linejoin="miter" d="M 10.502042 10.499904 L 137.127053 10.499904 " stroke="#ffffff" stroke-width="21" stroke-opacity="1" stroke-miterlimit="4"/></svg>