<svg xmlns="http://www.w3.org/2000/svg" xmlns:xlink="http://www.w3.org/1999/xlink" width="2000" zoomAndPan="magnify" viewBox="0 0 1500 1499.999933" height="2000" preserveAspectRatio="xMidYMid meet" version="1.0"><path fill="#3747d6" d="M 67.875 3.394531 C 48.40625 3.394531 29.875 11.753906 16.992188 26.347656 C 4.105469 40.941406 -1.890625 60.367188 0.523438 79.683594 L 136.269531 1165.65625 C 139.085938 1188.175781 152.96875 1207.796875 173.265625 1217.945312 L 716.253906 1489.4375 C 735.359375 1498.996094 757.851562 1498.996094 776.960938 1489.4375 L 1319.945312 1217.945312 C 1340.246094 1207.796875 1354.125 1188.175781 1356.941406 1165.65625 L 1492.691406 79.683594 C 1495.105469 60.367188 1489.105469 40.941406 1476.222656 26.347656 C 1463.339844 11.753906 1444.804688 3.394531 1425.339844 3.394531 Z M 67.875 3.394531 " fill-opacity="1" fill-rule="nonzero"/><path fill="#90caea" d="M 339.371094 207.011719 L 1221.726562 207.011719 C 1253.199219 207.011719 1280.550781 228.65625 1287.78125 259.292969 C 1295.015625 289.929688 1280.234375 321.515625 1252.078125 335.59375 L 762.632812 580.316406 L 1153.851562 580.316406 C 1173.976562 580.316406 1193.0625 589.25 1205.960938 604.699219 C 1218.855469 620.152344 1224.230469 640.527344 1220.625 660.332031 L 1152.753906 1033.636719 C 1149.257812 1052.855469 1137.652344 1069.640625 1120.902344 1079.695312 L 781.535156 1283.3125 C 760.039062 1296.210938 733.1875 1296.210938 711.691406 1283.3125 L 372.324219 1079.695312 C 355.269531 1069.460938 343.5625 1052.265625 340.292969 1032.652344 L 306.359375 829.03125 L 440.257812 806.714844 L 469.042969 979.417969 L 746.613281 1145.960938 L 1024.695312 979.105469 L 1072.527344 716.0625 L 475.117188 716.0625 C 443.640625 716.0625 416.292969 694.417969 409.058594 663.789062 C 401.828125 633.148438 416.609375 601.558594 444.761719 587.480469 L 934.207031 342.761719 L 339.371094 342.761719 Z M 339.371094 207.011719 " fill-opacity="1" fill-rule="evenodd"/></svg>