<svg xmlns="http://www.w3.org/2000/svg" xmlns:xlink="http://www.w3.org/1999/xlink" width="2000" zoomAndPan="magnify" viewBox="0 0 1500 1499.999933" height="2000" preserveAspectRatio="xMidYMid meet" version="1.0"><defs><clipPath id="9db5bfc54c"><path d="M 304 87.242188 L 1219 87.242188 L 1219 1395 L 304 1395 Z M 304 87.242188 " clip-rule="nonzero"/></clipPath></defs><g clip-path="url(#9db5bfc54c)"><path fill="#8c52ff" d="M 391.855469 937.632812 C 281.007812 838.167969 271.484375 654.714844 391.882812 544.632812 C 354.738281 509.800781 328.894531 468.292969 314.324219 419.085938 C 277.730469 295.492188 347.199219 152.230469 468.519531 108.03125 C 497.925781 97.3125 530.21875 89.738281 561.316406 89.265625 C 695.042969 87.238281 828.824219 87.65625 962.574219 88.613281 C 1087.464844 89.507812 1195.757812 182.085938 1214.945312 305.457031 C 1228.460938 392.363281 1205.628906 469.554688 1143.203125 533.367188 C 1139.511719 537.140625 1134.980469 540.089844 1130.167969 543.960938 C 1183.59375 595.921875 1215.15625 655.359375 1217.992188 729.074219 C 1220.484375 793.953125 1202.785156 851.597656 1163.230469 902.757812 C 1098.242188 986.820312 966.9375 1040.46875 828.589844 969.644531 C 828.292969 975.84375 827.867188 981.300781 827.789062 986.757812 C 826.960938 1045.121094 829.21875 1103.710938 824.742188 1161.789062 C 816.421875 1269.71875 732.277344 1363.546875 627.28125 1387.417969 C 515.703125 1412.789062 400.738281 1365.191406 343.761719 1270.046875 C 279.933594 1163.457031 295.613281 1035.6875 383.402344 946.835938 C 386.324219 943.878906 389.039062 940.707031 391.855469 937.632812 Z M 695.558594 871.835938 L 695.558594 610.917969 C 650.769531 610.917969 607.292969 610.757812 563.816406 610.953125 C 495.597656 611.257812 438.144531 667.367188 435.726562 735.789062 C 433.25 805.804688 485.820312 867.675781 554.152344 871.359375 C 600.675781 873.863281 647.449219 871.835938 695.558594 871.835938 Z M 828.910156 479.664062 C 873.761719 479.664062 916.667969 480.027344 959.570312 479.582031 C 1031.074219 478.835938 1087.554688 422.269531 1088.464844 351.082031 C 1088.5 348.960938 1088.476562 346.84375 1088.40625 344.722656 C 1088.335938 342.601562 1088.210938 340.488281 1088.035156 338.375 C 1087.859375 336.261719 1087.632812 334.152344 1087.351562 332.050781 C 1087.074219 329.949219 1086.742188 327.855469 1086.363281 325.769531 C 1085.980469 323.683594 1085.546875 321.605469 1085.066406 319.542969 C 1084.582031 317.476562 1084.046875 315.425781 1083.464844 313.386719 C 1082.878906 311.347656 1082.246094 309.324219 1081.5625 307.316406 C 1080.882812 305.308594 1080.148438 303.320312 1079.367188 301.347656 C 1078.589844 299.375 1077.761719 297.425781 1076.882812 295.492188 C 1076.007812 293.5625 1075.085938 291.652344 1074.117188 289.765625 C 1073.144531 287.882812 1072.132812 286.019531 1071.070312 284.183594 C 1070.007812 282.347656 1068.90625 280.539062 1067.753906 278.757812 C 1066.605469 276.972656 1065.414062 275.222656 1064.179688 273.496094 C 1062.941406 271.773438 1061.667969 270.082031 1060.347656 268.417969 C 1059.03125 266.757812 1057.671875 265.128906 1056.273438 263.535156 C 1054.875 261.941406 1053.441406 260.382812 1051.964844 258.859375 C 1050.492188 257.332031 1048.980469 255.847656 1047.433594 254.394531 C 1045.886719 252.945312 1044.304688 251.535156 1042.6875 250.160156 C 1041.070312 248.789062 1039.421875 247.457031 1037.742188 246.164062 C 1036.058594 244.871094 1034.347656 243.621094 1032.605469 242.414062 C 1030.859375 241.207031 1029.089844 240.042969 1027.289062 238.921875 C 1025.488281 237.800781 1023.664062 236.722656 1021.808594 235.691406 C 1019.957031 234.660156 1018.082031 233.671875 1016.179688 232.734375 C 1014.277344 231.792969 1012.355469 230.902344 1010.410156 230.054688 C 1008.464844 229.210938 1006.503906 228.414062 1004.519531 227.664062 C 1002.535156 226.914062 1000.535156 226.214844 998.515625 225.5625 C 996.496094 224.910156 994.464844 224.308594 992.417969 223.757812 C 990.367188 223.207031 988.308594 222.703125 986.238281 222.253906 C 984.164062 221.804688 982.082031 221.402344 979.992188 221.054688 C 977.898438 220.707031 975.800781 220.410156 973.695312 220.164062 C 971.585938 219.917969 969.476562 219.722656 967.359375 219.582031 C 965.246094 219.4375 963.125 219.347656 961.007812 219.308594 C 919.65625 218.523438 878.277344 219.125 836.914062 219.179688 C 834.414062 219.179688 831.917969 219.839844 828.917969 220.265625 Z M 694.847656 219.757812 C 646.566406 219.757812 599.269531 216.867188 552.46875 220.433594 C 481.65625 225.828125 431.871094 287.195312 435.890625 358.515625 C 439.710938 426.261719 496.335938 479.226562 565.527344 479.617188 C 594.707031 479.785156 623.882812 479.652344 653.058594 479.65625 L 694.847656 479.65625 Z M 694.519531 1003.265625 C 651.722656 1003.265625 608.839844 1001.921875 566.109375 1003.867188 C 546.523438 1004.761719 525.898438 1009.132812 508.0625 1017.109375 C 453.4375 1041.527344 424.238281 1106.675781 439.328125 1164.839844 C 455.179688 1225.945312 509.808594 1266.460938 572.5 1263.609375 C 633.433594 1260.835938 688.332031 1214.910156 693.625 1155.21875 C 698 1105.886719 694.519531 1055.855469 694.519531 1003.265625 Z M 828.140625 741.519531 C 828.164062 814.394531 885.582031 872.164062 958.019531 872.1875 C 1029.75 872.210938 1088.507812 813.285156 1088.484375 741.351562 C 1088.484375 739.21875 1088.429688 737.082031 1088.320312 734.949219 C 1088.214844 732.816406 1088.054688 730.6875 1087.84375 728.558594 C 1087.632812 726.433594 1087.367188 724.316406 1087.054688 722.203125 C 1086.738281 720.089844 1086.371094 717.988281 1085.953125 715.890625 C 1085.535156 713.796875 1085.0625 711.714844 1084.542969 709.644531 C 1084.019531 707.570312 1083.449219 705.515625 1082.828125 703.46875 C 1082.207031 701.425781 1081.535156 699.398438 1080.8125 697.390625 C 1080.089844 695.378906 1079.320312 693.386719 1078.5 691.414062 C 1077.683594 689.441406 1076.816406 687.492188 1075.898438 685.558594 C 1074.984375 683.628906 1074.023438 681.722656 1073.015625 679.839844 C 1072.007812 677.957031 1070.953125 676.101562 1069.851562 674.269531 C 1068.753906 672.4375 1067.609375 670.636719 1066.421875 668.859375 C 1065.230469 667.085938 1064 665.339844 1062.726562 663.625 C 1061.453125 661.910156 1060.136719 660.226562 1058.78125 658.578125 C 1057.425781 656.929688 1056.03125 655.3125 1054.59375 653.730469 C 1053.15625 652.148438 1051.683594 650.605469 1050.171875 649.09375 C 1048.660156 647.585938 1047.113281 646.113281 1045.53125 644.679688 C 1043.945312 643.246094 1042.328125 641.855469 1040.675781 640.5 C 1039.023438 639.144531 1037.339844 637.832031 1035.621094 636.5625 C 1033.90625 635.292969 1032.160156 634.0625 1030.382812 632.878906 C 1028.605469 631.691406 1026.800781 630.550781 1024.96875 629.453125 C 1023.132812 628.355469 1021.277344 627.304688 1019.390625 626.300781 C 1017.507812 625.292969 1015.597656 624.335938 1013.667969 623.425781 C 1011.734375 622.511719 1009.78125 621.648438 1007.808594 620.832031 C 1005.835938 620.015625 1003.839844 619.25 1001.828125 618.53125 C 999.816406 617.8125 997.789062 617.144531 995.746094 616.523438 C 993.703125 615.90625 991.644531 615.335938 989.570312 614.820312 C 987.496094 614.300781 985.414062 613.835938 983.320312 613.417969 C 981.222656 613.003906 979.121094 612.640625 977.007812 612.328125 C 974.894531 612.015625 972.773438 611.757812 970.648438 611.546875 C 968.523438 611.339844 966.390625 611.183594 964.257812 611.082031 C 962.125 610.976562 959.992188 610.925781 957.855469 610.925781 C 885.195312 610.980469 828.121094 668.445312 828.144531 741.519531 Z M 828.140625 741.519531 " fill-opacity="1" fill-rule="nonzero"/></g></svg>