<svg xmlns="http://www.w3.org/2000/svg" xmlns:xlink="http://www.w3.org/1999/xlink" width="2000" zoomAndPan="magnify" viewBox="0 0 1500 1499.999933" height="2000" preserveAspectRatio="xMidYMid meet" version="1.0"><defs><clipPath id="e8e234536d"><path d="M 7.160156 120 L 1492.910156 120 L 1492.910156 1381 L 7.160156 1381 Z M 7.160156 120 " clip-rule="nonzero"/></clipPath><clipPath id="d3c67f6d63"><path d="M 7.160156 54.433594 L 1492.910156 54.433594 L 1492.910156 1445.679688 L 7.160156 1445.679688 Z M 7.160156 54.433594 " clip-rule="nonzero"/></clipPath></defs><path fill="#00d8ff" d="M 882.714844 748.835938 C 882.714844 751.007812 882.664062 753.175781 882.554688 755.347656 C 882.449219 757.515625 882.289062 759.679688 882.078125 761.839844 C 881.863281 764 881.597656 766.15625 881.28125 768.304688 C 880.960938 770.453125 880.589844 772.589844 880.167969 774.71875 C 879.742188 776.847656 879.269531 778.96875 878.738281 781.074219 C 878.210938 783.179688 877.632812 785.273438 877.003906 787.351562 C 876.371094 789.429688 875.691406 791.488281 874.960938 793.535156 C 874.230469 795.578125 873.449219 797.601562 872.617188 799.609375 C 871.785156 801.617188 870.90625 803.601562 869.976562 805.5625 C 869.050781 807.527344 868.074219 809.464844 867.050781 811.378906 C 866.027344 813.292969 864.957031 815.183594 863.839844 817.046875 C 862.722656 818.910156 861.5625 820.742188 860.355469 822.546875 C 859.152344 824.351562 857.902344 826.128906 856.605469 827.871094 C 855.3125 829.617188 853.976562 831.328125 852.601562 833.007812 C 851.222656 834.683594 849.804688 836.328125 848.347656 837.9375 C 846.890625 839.546875 845.390625 841.117188 843.855469 842.652344 C 842.320312 844.1875 840.75 845.6875 839.140625 847.144531 C 837.53125 848.601562 835.886719 850.019531 834.210938 851.398438 C 832.53125 852.773438 830.820312 854.109375 829.078125 855.402344 C 827.332031 856.699219 825.558594 857.949219 823.753906 859.152344 C 821.945312 860.359375 820.113281 861.519531 818.25 862.636719 C 816.386719 863.753906 814.5 864.824219 812.585938 865.847656 C 810.667969 866.871094 808.730469 867.847656 806.769531 868.777344 C 804.804688 869.703125 802.820312 870.582031 800.816406 871.414062 C 798.808594 872.246094 796.785156 873.027344 794.738281 873.757812 C 792.695312 874.488281 790.632812 875.171875 788.554688 875.800781 C 786.476562 876.429688 784.386719 877.011719 782.28125 877.539062 C 780.171875 878.066406 778.054688 878.539062 775.925781 878.964844 C 773.796875 879.386719 771.65625 879.757812 769.511719 880.078125 C 767.363281 880.398438 765.207031 880.664062 763.046875 880.875 C 760.886719 881.089844 758.722656 881.246094 756.554688 881.355469 C 754.382812 881.460938 752.214844 881.515625 750.042969 881.515625 C 747.871094 881.515625 745.703125 881.460938 743.53125 881.355469 C 741.363281 881.246094 739.199219 881.089844 737.039062 880.875 C 734.878906 880.664062 732.722656 880.398438 730.574219 880.078125 C 728.429688 879.757812 726.289062 879.386719 724.160156 878.964844 C 722.03125 878.539062 719.914062 878.066406 717.804688 877.539062 C 715.699219 877.011719 713.609375 876.429688 711.53125 875.800781 C 709.453125 875.171875 707.390625 874.488281 705.347656 873.757812 C 703.300781 873.027344 701.277344 872.246094 699.269531 871.414062 C 697.265625 870.582031 695.28125 869.703125 693.316406 868.777344 C 691.355469 867.847656 689.414062 866.871094 687.5 865.847656 C 685.585938 864.824219 683.699219 863.753906 681.835938 862.636719 C 679.972656 861.519531 678.140625 860.359375 676.332031 859.152344 C 674.527344 857.949219 672.753906 856.699219 671.007812 855.402344 C 669.265625 854.109375 667.554688 852.773438 665.875 851.398438 C 664.199219 850.019531 662.554688 848.601562 660.945312 847.144531 C 659.335938 845.6875 657.765625 844.1875 656.230469 842.652344 C 654.691406 841.117188 653.195312 839.546875 651.738281 837.9375 C 650.28125 836.328125 648.863281 834.683594 647.484375 833.007812 C 646.109375 831.328125 644.773438 829.617188 643.480469 827.871094 C 642.183594 826.128906 640.933594 824.351562 639.730469 822.546875 C 638.523438 820.742188 637.359375 818.910156 636.246094 817.046875 C 635.128906 815.183594 634.058594 813.292969 633.035156 811.378906 C 632.011719 809.464844 631.035156 807.527344 630.109375 805.5625 C 629.179688 803.601562 628.300781 801.617188 627.46875 799.609375 C 626.636719 797.601562 625.855469 795.578125 625.125 793.535156 C 624.394531 791.488281 623.710938 789.429688 623.082031 787.351562 C 622.453125 785.273438 621.875 783.179688 621.34375 781.074219 C 620.816406 778.96875 620.34375 776.851562 619.917969 774.71875 C 619.496094 772.589844 619.125 770.453125 618.804688 768.304688 C 618.488281 766.15625 618.222656 764 618.007812 761.839844 C 617.796875 759.679688 617.636719 757.515625 617.527344 755.347656 C 617.421875 753.175781 617.371094 751.007812 617.371094 748.835938 C 617.371094 746.664062 617.421875 744.496094 617.527344 742.324219 C 617.636719 740.15625 617.796875 737.992188 618.007812 735.832031 C 618.222656 733.671875 618.488281 731.515625 618.804688 729.367188 C 619.125 727.21875 619.496094 725.082031 619.917969 722.953125 C 620.34375 720.820312 620.816406 718.703125 621.34375 716.597656 C 621.875 714.492188 622.453125 712.398438 623.082031 710.320312 C 623.710938 708.242188 624.394531 706.183594 625.125 704.136719 C 625.855469 702.09375 626.636719 700.066406 627.46875 698.0625 C 628.300781 696.054688 629.179688 694.070312 630.109375 692.109375 C 631.035156 690.144531 632.011719 688.207031 633.035156 686.292969 C 634.058594 684.375 635.128906 682.488281 636.246094 680.625 C 637.363281 678.761719 638.523438 676.929688 639.730469 675.125 C 640.933594 673.316406 642.183594 671.542969 643.480469 669.800781 C 644.773438 668.054688 646.109375 666.34375 647.484375 664.664062 C 648.863281 662.988281 650.28125 661.34375 651.738281 659.734375 C 653.195312 658.125 654.691406 656.554688 656.230469 655.019531 C 657.765625 653.484375 659.335938 651.984375 660.945312 650.527344 C 662.554688 649.070312 664.199219 647.652344 665.875 646.273438 C 667.554688 644.898438 669.265625 643.5625 671.007812 642.265625 C 672.753906 640.972656 674.527344 639.722656 676.332031 638.519531 C 678.140625 637.3125 679.972656 636.148438 681.835938 635.035156 C 683.699219 633.917969 685.585938 632.847656 687.5 631.824219 C 689.414062 630.800781 691.355469 629.824219 693.316406 628.894531 C 695.28125 627.96875 697.265625 627.089844 699.269531 626.257812 C 701.277344 625.425781 703.300781 624.644531 705.347656 623.914062 C 707.390625 623.183594 709.453125 622.5 711.53125 621.871094 C 713.609375 621.242188 715.699219 620.660156 717.804688 620.132812 C 719.914062 619.605469 722.03125 619.128906 724.160156 618.707031 C 726.289062 618.285156 728.429688 617.914062 730.574219 617.59375 C 732.722656 617.273438 734.878906 617.007812 737.039062 616.796875 C 739.199219 616.582031 741.363281 616.425781 743.53125 616.316406 C 745.703125 616.210938 747.871094 616.15625 750.042969 616.15625 C 752.214844 616.15625 754.382812 616.210938 756.554688 616.316406 C 758.722656 616.425781 760.886719 616.582031 763.046875 616.796875 C 765.207031 617.007812 767.363281 617.273438 769.511719 617.59375 C 771.65625 617.914062 773.796875 618.285156 775.925781 618.707031 C 778.054688 619.128906 780.171875 619.605469 782.28125 620.132812 C 784.386719 620.660156 786.476562 621.242188 788.554688 621.871094 C 790.632812 622.5 792.695312 623.183594 794.738281 623.914062 C 796.785156 624.644531 798.808594 625.425781 800.816406 626.257812 C 802.820312 627.085938 804.804688 627.96875 806.769531 628.894531 C 808.730469 629.824219 810.667969 630.800781 812.585938 631.824219 C 814.5 632.847656 816.386719 633.917969 818.25 635.035156 C 820.113281 636.148438 821.945312 637.3125 823.753906 638.519531 C 825.558594 639.722656 827.332031 640.972656 829.078125 642.265625 C 830.820312 643.5625 832.53125 644.898438 834.210938 646.273438 C 835.886719 647.652344 837.53125 649.070312 839.140625 650.527344 C 840.75 651.984375 842.320312 653.484375 843.855469 655.019531 C 845.390625 656.554688 846.890625 658.125 848.347656 659.734375 C 849.804688 661.34375 851.222656 662.988281 852.601562 664.664062 C 853.976562 666.34375 855.3125 668.054688 856.605469 669.800781 C 857.902344 671.542969 859.152344 673.316406 860.355469 675.125 C 861.5625 676.929688 862.722656 678.761719 863.839844 680.625 C 864.957031 682.488281 866.027344 684.375 867.050781 686.292969 C 868.074219 688.207031 869.050781 690.144531 869.976562 692.109375 C 870.90625 694.070312 871.785156 696.054688 872.617188 698.0625 C 873.449219 700.066406 874.230469 702.09375 874.960938 704.136719 C 875.691406 706.183594 876.371094 708.242188 877.003906 710.320312 C 877.632812 712.398438 878.210938 714.492188 878.738281 716.597656 C 879.269531 718.703125 879.742188 720.820312 880.167969 722.953125 C 880.589844 725.082031 880.960938 727.21875 881.28125 729.367188 C 881.597656 731.515625 881.863281 733.671875 882.078125 735.832031 C 882.289062 737.992188 882.449219 740.15625 882.554688 742.324219 C 882.664062 744.496094 882.714844 746.664062 882.714844 748.835938 Z M 882.714844 748.835938 " fill-opacity="1" fill-rule="nonzero"/><g clip-path="url(#e8e234536d)"><path stroke-linecap="butt" transform="matrix(2.644635, 0, 0, 2.644733, 37.234373, 120.367959)" fill="none" stroke-linejoin="miter" d="M 269.530038 135.630445 C 336.88633 135.630445 399.459944 145.294407 446.639776 161.536892 C 503.483925 181.107042 538.433808 210.769481 538.433808 237.630065 C 538.433808 265.620548 501.393903 297.133658 440.35051 317.358116 C 394.201657 332.647941 333.471398 340.629608 269.531515 340.629608 C 203.977221 340.629608 141.901371 333.138303 95.231121 317.189739 C 36.184695 297.008114 0.62036 265.087354 0.62036 237.630065 C 0.62036 210.988076 33.99128 181.554571 90.036347 162.013961 C 137.39047 145.50414 201.506121 135.630445 269.525607 135.630445 Z M 269.530038 135.630445 " stroke="#00d8ff" stroke-width="24" stroke-opacity="1" stroke-miterlimit="4"/></g><g clip-path="url(#d3c67f6d63)"><path stroke-linecap="butt" transform="matrix(2.644635, 0, 0, 2.644733, 37.234373, 120.367959)" fill="none" stroke-linejoin="miter" d="M 180.740319 186.920484 C 214.390401 128.571898 254.019569 79.200473 291.660632 46.439304 C 337.010402 6.975543 380.159372 -8.479705 403.430246 4.937294 C 427.677448 18.919981 436.471785 66.750904 423.497405 129.737245 C 413.697199 177.355481 390.262373 233.946446 358.321234 289.336615 C 325.570674 346.125497 288.071408 396.157138 250.941403 428.606662 C 203.960973 469.674436 158.540305 484.537411 134.761327 470.820582 C 111.680992 457.520265 102.855637 413.900248 113.927581 355.590065 C 123.281718 306.320551 146.759379 245.849528 180.727026 186.929346 Z M 180.740319 186.920484 " stroke="#00d8ff" stroke-width="24" stroke-opacity="1" stroke-miterlimit="4"/><path stroke-linecap="butt" transform="matrix(2.644635, 0, 0, 2.644733, 37.234373, 120.367959)" fill="none" stroke-linejoin="miter" d="M 180.82008 289.479884 C 147.079898 231.200717 124.100002 172.199301 114.509537 123.229617 C 102.966416 64.229678 111.128577 19.119375 134.374341 5.659543 C 158.597909 -8.3645 204.429197 7.904572 252.514458 50.599992 C 288.87049 82.879661 326.201373 131.437264 358.234089 186.769831 C 391.077703 243.502587 415.694166 300.979747 425.269861 349.349772 C 437.387554 410.563722 427.579963 457.329733 403.817232 471.089395 C 380.760531 484.438452 338.567209 470.306589 293.576361 431.590187 C 255.56456 398.880712 214.895551 348.336555 180.817126 289.469545 Z M 180.82008 289.479884 " stroke="#00d8ff" stroke-width="24" stroke-opacity="1" stroke-miterlimit="4"/></g></svg>